<svg id="svg" version="1.1" xmlns="http://www.w3.org/2000/svg" xmlns:xlink="http://www.w3.org/1999/xlink" width="400" height="400" viewBox="0, 0, 400,400"><g id="svgg"><path id="path0" d="M159.200 14.800 C 159.200 15.020,158.660 15.200,158.000 15.200 C 157.340 15.200,156.800 15.380,156.800 15.600 C 156.800 15.820,156.522 16.000,156.182 16.000 C 155.382 16.000,153.600 17.782,153.600 18.582 C 153.600 18.922,153.420 19.200,153.200 19.200 C 152.980 19.200,152.800 19.549,152.800 19.976 C 152.800 20.403,152.620 20.864,152.400 21.000 C 152.144 21.158,152.000 27.263,152.000 38.000 C 152.000 48.737,152.144 54.842,152.400 55.000 C 152.620 55.136,152.800 55.687,152.800 56.224 C 152.800 56.761,152.980 57.200,153.200 57.200 C 153.420 57.200,153.600 57.470,153.600 57.800 C 153.600 58.130,153.772 58.400,153.982 58.400 C 154.192 58.400,154.814 58.850,155.364 59.400 C 155.914 59.950,156.721 60.400,157.158 60.400 C 157.595 60.400,158.064 60.580,158.200 60.800 C 158.336 61.020,159.607 61.200,161.024 61.200 C 162.475 61.200,163.600 61.025,163.600 60.800 C 163.600 60.580,163.960 60.400,164.400 60.400 C 164.840 60.400,165.200 60.220,165.200 60.000 C 165.200 59.780,165.483 59.600,165.829 59.600 C 166.547 59.600,167.600 58.666,167.600 58.029 C 167.600 57.793,167.735 57.599,167.900 57.597 C 168.065 57.595,168.425 57.109,168.700 56.517 C 169.338 55.144,169.434 20.000,168.800 20.000 C 168.580 20.000,168.400 19.712,168.400 19.360 C 168.400 18.147,164.813 15.200,163.336 15.200 C 162.601 15.200,162.000 15.020,162.000 14.800 C 162.000 14.580,161.370 14.400,160.600 14.400 C 159.830 14.400,159.200 14.580,159.200 14.800 M80.800 36.000 C 80.800 36.220,80.502 36.400,80.138 36.400 C 79.529 36.400,76.452 39.265,76.360 39.917 C 76.339 40.073,76.246 40.650,76.154 41.200 C 75.610 44.466,75.550 45.600,75.921 45.600 C 76.143 45.600,76.229 45.966,76.112 46.413 C 75.988 46.887,76.197 47.554,76.612 48.013 C 77.004 48.446,77.194 48.800,77.035 48.800 C 76.876 48.800,77.118 49.323,77.573 49.962 C 78.028 50.601,78.400 51.321,78.400 51.562 C 78.400 51.803,78.580 52.000,78.800 52.000 C 79.020 52.000,79.200 52.360,79.200 52.800 C 79.200 53.240,79.380 53.600,79.600 53.600 C 79.820 53.600,80.000 53.836,80.000 54.125 C 80.000 54.413,80.325 54.998,80.722 55.425 C 81.120 55.851,81.703 56.785,82.020 57.500 C 82.336 58.215,82.731 58.800,82.898 58.800 C 83.064 58.800,83.200 59.120,83.200 59.512 C 83.200 59.903,83.560 60.483,84.000 60.800 C 84.440 61.117,84.800 61.697,84.800 62.088 C 84.800 62.480,84.980 62.800,85.200 62.800 C 85.420 62.800,85.600 63.160,85.600 63.600 C 85.600 64.040,85.780 64.400,86.000 64.400 C 86.220 64.400,86.400 64.636,86.400 64.925 C 86.400 65.213,86.760 65.836,87.200 66.308 C 87.640 66.780,88.000 67.444,88.000 67.783 C 88.000 68.122,88.180 68.400,88.400 68.400 C 88.620 68.400,88.800 68.678,88.800 69.017 C 88.800 69.356,89.160 70.020,89.600 70.492 C 90.040 70.964,90.400 71.587,90.400 71.875 C 90.400 72.164,90.580 72.400,90.800 72.400 C 91.020 72.400,91.200 72.655,91.200 72.967 C 91.200 73.753,94.196 76.800,94.969 76.800 C 95.316 76.800,95.600 76.980,95.600 77.200 C 95.600 77.435,97.000 77.600,99.000 77.600 C 101.000 77.600,102.400 77.435,102.400 77.200 C 102.400 76.980,102.760 76.800,103.200 76.800 C 103.640 76.800,104.000 76.620,104.000 76.400 C 104.000 76.180,104.193 76.000,104.429 76.000 C 106.461 76.000,108.930 67.269,107.200 66.200 C 106.980 66.064,106.800 65.603,106.800 65.176 C 106.800 64.749,106.664 64.400,106.498 64.400 C 106.331 64.400,105.942 63.815,105.632 63.100 C 105.323 62.385,104.559 61.048,103.935 60.128 C 103.311 59.208,102.800 58.263,102.800 58.028 C 102.800 57.793,102.620 57.600,102.400 57.600 C 102.180 57.600,102.000 57.322,102.000 56.983 C 102.000 56.644,101.640 55.980,101.200 55.508 C 100.760 55.036,100.400 54.413,100.400 54.125 C 100.400 53.836,100.220 53.600,100.000 53.600 C 99.780 53.600,99.600 53.240,99.600 52.800 C 99.600 52.360,99.420 52.000,99.200 52.000 C 98.980 52.000,98.800 51.764,98.800 51.475 C 98.800 51.187,98.440 50.564,98.000 50.092 C 97.560 49.620,97.200 48.956,97.200 48.617 C 97.200 48.278,97.020 48.000,96.800 48.000 C 96.580 48.000,96.400 47.640,96.400 47.200 C 96.400 46.760,96.220 46.400,96.000 46.400 C 95.780 46.400,95.600 46.130,95.600 45.800 C 95.600 45.470,95.420 45.200,95.200 45.200 C 94.980 45.200,94.800 44.930,94.800 44.600 C 94.800 44.270,94.664 44.000,94.498 44.000 C 94.331 44.000,93.936 43.415,93.620 42.700 C 93.303 41.985,92.720 41.051,92.322 40.625 C 91.925 40.198,91.600 39.632,91.600 39.367 C 91.600 38.637,89.368 36.400,88.640 36.400 C 88.288 36.400,88.000 36.220,88.000 36.000 C 88.000 35.763,86.533 35.600,84.400 35.600 C 82.267 35.600,80.800 35.763,80.800 36.000 M233.200 36.000 C 233.200 36.220,232.975 36.400,232.700 36.400 C 232.027 36.401,230.000 38.175,230.000 38.763 C 230.000 39.022,229.640 39.620,229.200 40.092 C 228.760 40.564,228.400 41.187,228.400 41.475 C 228.400 41.764,228.241 42.000,228.047 42.000 C 227.733 42.000,227.540 42.432,227.239 43.800 C 227.191 44.020,226.847 44.560,226.476 45.000 C 225.506 46.148,224.800 47.494,224.800 48.195 C 224.800 48.528,224.620 48.800,224.400 48.800 C 224.180 48.800,224.000 49.036,224.000 49.325 C 224.000 49.613,223.640 50.236,223.200 50.708 C 222.760 51.180,222.400 51.844,222.400 52.183 C 222.400 52.522,222.220 52.800,222.000 52.800 C 221.780 52.800,221.600 53.078,221.600 53.417 C 221.600 53.756,221.240 54.420,220.800 54.892 C 220.360 55.364,220.000 55.987,220.000 56.275 C 220.000 56.564,219.820 56.800,219.600 56.800 C 219.380 56.800,219.200 57.160,219.200 57.600 C 219.200 58.040,219.020 58.400,218.800 58.400 C 218.580 58.400,218.400 58.771,218.400 59.224 C 218.400 59.677,218.220 59.936,218.000 59.800 C 217.780 59.664,217.600 59.833,217.600 60.176 C 217.600 60.519,217.420 60.800,217.200 60.800 C 216.980 60.800,216.800 61.070,216.800 61.400 C 216.800 61.730,216.620 62.000,216.400 62.000 C 216.180 62.000,216.000 62.360,216.000 62.800 C 216.000 63.240,215.820 63.600,215.600 63.600 C 215.380 63.600,215.200 63.960,215.200 64.400 C 215.200 64.840,215.020 65.200,214.800 65.200 C 214.580 65.200,214.400 65.639,214.400 66.176 C 214.400 66.713,214.220 67.264,214.000 67.400 C 213.780 67.536,213.600 68.447,213.600 69.424 C 213.600 70.401,213.780 71.200,214.000 71.200 C 214.220 71.200,214.400 71.670,214.400 72.244 C 214.400 73.408,217.513 76.800,218.581 76.800 C 218.921 76.800,219.200 76.980,219.200 77.200 C 219.200 77.435,220.600 77.600,222.600 77.600 C 224.600 77.600,226.000 77.435,226.000 77.200 C 226.000 76.980,226.276 76.800,226.613 76.800 C 227.299 76.800,230.000 74.258,230.000 73.613 C 230.000 73.386,230.180 73.200,230.400 73.200 C 230.620 73.200,230.800 72.922,230.800 72.583 C 230.800 72.244,231.160 71.580,231.600 71.108 C 232.040 70.636,232.400 70.013,232.400 69.725 C 232.400 69.436,232.580 69.200,232.800 69.200 C 233.020 69.200,233.200 68.840,233.200 68.400 C 233.200 67.960,233.380 67.600,233.600 67.600 C 233.820 67.600,234.000 67.280,234.000 66.888 C 234.000 66.497,234.360 65.917,234.800 65.600 C 235.240 65.283,235.600 64.703,235.600 64.312 C 235.600 63.920,235.780 63.600,236.000 63.600 C 236.220 63.600,236.400 63.240,236.400 62.800 C 236.400 62.360,236.558 62.000,236.751 62.000 C 236.945 62.000,237.327 61.460,237.600 60.800 C 237.873 60.140,238.211 59.600,238.351 59.600 C 238.490 59.600,238.859 59.015,239.169 58.300 C 239.480 57.585,240.154 56.373,240.667 55.607 C 241.180 54.841,241.600 53.896,241.600 53.507 C 241.600 53.118,241.780 52.800,242.000 52.800 C 242.220 52.800,242.400 52.480,242.400 52.088 C 242.400 51.697,242.760 51.117,243.200 50.800 C 243.640 50.483,244.000 49.903,244.000 49.512 C 244.000 49.120,244.180 48.800,244.400 48.800 C 244.620 48.800,244.800 48.440,244.800 48.000 C 244.800 47.560,244.980 47.200,245.200 47.200 C 245.431 47.200,245.600 45.941,245.600 44.224 C 245.600 42.587,245.420 41.136,245.200 41.000 C 244.980 40.864,244.800 40.397,244.800 39.963 C 244.800 39.032,242.299 36.400,241.413 36.400 C 241.076 36.400,240.800 36.220,240.800 36.000 C 240.800 35.761,239.267 35.600,237.000 35.600 C 234.733 35.600,233.200 35.761,233.200 36.000 M152.800 90.000 C 152.800 90.233,151.467 90.400,149.600 90.400 C 147.733 90.400,146.400 90.567,146.400 90.800 C 146.400 91.020,145.833 91.200,145.140 91.200 C 143.484 91.200,137.592 92.330,136.705 92.818 C 136.323 93.028,135.569 93.200,135.029 93.200 C 134.489 93.200,133.936 93.380,133.800 93.600 C 133.664 93.820,133.201 94.000,132.771 94.000 C 132.341 94.000,131.632 94.180,131.195 94.400 C 130.758 94.620,130.042 94.980,129.605 95.200 C 129.168 95.420,128.448 95.600,128.005 95.600 C 127.562 95.600,127.200 95.780,127.200 96.000 C 127.200 96.220,126.840 96.400,126.400 96.400 C 125.960 96.400,125.600 96.580,125.600 96.800 C 125.600 97.020,125.240 97.200,124.800 97.200 C 124.360 97.200,124.000 97.380,124.000 97.600 C 124.000 97.820,123.640 98.000,123.200 98.000 C 122.760 98.000,122.400 98.180,122.400 98.400 C 122.400 98.620,122.040 98.800,121.600 98.800 C 121.160 98.800,120.800 98.980,120.800 99.200 C 120.800 99.420,120.440 99.600,120.000 99.600 C 119.560 99.600,119.200 99.780,119.200 100.000 C 119.200 100.220,118.840 100.400,118.400 100.400 C 117.960 100.400,117.600 100.580,117.600 100.800 C 117.600 101.020,117.280 101.200,116.888 101.200 C 116.497 101.200,115.917 101.560,115.600 102.000 C 115.283 102.440,114.703 102.800,114.312 102.800 C 113.920 102.800,113.600 102.950,113.600 103.132 C 113.600 103.315,113.108 103.720,112.506 104.032 C 111.267 104.675,110.331 105.382,108.938 106.730 C 108.410 107.241,107.494 107.910,106.904 108.216 C 104.067 109.688,93.971 119.742,92.541 122.519 C 92.178 123.224,91.548 124.091,91.141 124.447 C 90.733 124.803,90.400 125.258,90.400 125.459 C 90.400 125.659,90.040 126.083,89.600 126.400 C 89.160 126.717,88.800 127.257,88.800 127.600 C 88.800 127.943,88.440 128.483,88.000 128.800 C 87.560 129.117,87.200 129.614,87.200 129.905 C 87.200 130.196,86.840 130.820,86.400 131.292 C 85.960 131.764,85.600 132.387,85.600 132.675 C 85.600 132.964,85.420 133.200,85.200 133.200 C 84.980 133.200,84.800 133.560,84.800 134.000 C 84.800 134.440,84.620 134.800,84.400 134.800 C 84.180 134.800,84.000 135.160,84.000 135.600 C 84.000 136.040,83.820 136.400,83.600 136.400 C 83.380 136.400,83.200 136.760,83.200 137.200 C 83.200 137.640,83.020 138.000,82.800 138.000 C 82.580 138.000,82.400 138.360,82.400 138.800 C 82.400 139.240,82.220 139.600,82.000 139.600 C 81.780 139.600,81.600 139.960,81.600 140.400 C 81.600 140.840,81.420 141.200,81.200 141.200 C 80.980 141.200,80.800 141.472,80.800 141.805 C 80.800 142.138,80.592 142.813,80.338 143.305 C 79.342 145.231,79.200 145.617,79.200 146.395 C 79.200 146.838,79.020 147.200,78.800 147.200 C 78.580 147.200,78.400 147.740,78.400 148.400 C 78.400 149.060,78.220 149.600,78.000 149.600 C 77.780 149.600,77.600 150.129,77.600 150.776 C 77.600 151.423,77.420 152.064,77.200 152.200 C 76.980 152.336,76.800 153.056,76.800 153.800 C 76.800 154.544,76.644 155.249,76.453 155.367 C 76.262 155.485,75.993 156.351,75.854 157.291 C 75.715 158.231,75.434 159.990,75.230 161.200 C 75.026 162.410,74.845 164.885,74.829 166.700 C 74.812 168.614,74.632 170.000,74.400 170.000 C 74.151 170.000,74.000 172.333,74.000 176.200 C 74.000 180.067,74.151 182.400,74.400 182.400 C 74.632 182.400,74.812 183.786,74.829 185.700 C 74.845 187.515,75.026 189.990,75.230 191.200 C 75.434 192.410,75.715 194.169,75.854 195.109 C 75.993 196.049,76.262 196.915,76.453 197.033 C 76.644 197.151,76.800 197.856,76.800 198.600 C 76.800 199.344,76.980 200.064,77.200 200.200 C 77.420 200.336,77.600 200.977,77.600 201.624 C 77.600 202.271,77.780 202.800,78.000 202.800 C 78.220 202.800,78.400 203.340,78.400 204.000 C 78.400 204.660,78.580 205.200,78.800 205.200 C 79.020 205.200,79.200 205.639,79.200 206.176 C 79.200 206.713,79.380 207.264,79.600 207.400 C 79.820 207.536,80.000 208.087,80.000 208.624 C 80.000 209.161,80.180 209.600,80.400 209.600 C 80.620 209.600,80.800 209.960,80.800 210.400 C 80.800 210.840,80.980 211.200,81.200 211.200 C 81.420 211.200,81.600 211.560,81.600 212.000 C 81.600 212.440,81.780 212.800,82.000 212.800 C 82.220 212.800,82.400 213.160,82.400 213.600 C 82.400 214.040,82.580 214.400,82.800 214.400 C 83.020 214.400,83.200 214.760,83.200 215.200 C 83.200 215.640,83.380 216.000,83.600 216.000 C 83.820 216.000,84.000 216.360,84.000 216.800 C 84.000 217.240,84.180 217.600,84.400 217.600 C 84.620 217.600,84.800 217.960,84.800 218.400 C 84.800 218.840,84.980 219.200,85.200 219.200 C 85.420 219.200,85.600 219.478,85.600 219.817 C 85.600 220.156,85.960 220.820,86.400 221.292 C 86.840 221.764,87.200 222.387,87.200 222.675 C 87.200 222.964,87.380 223.200,87.600 223.200 C 87.820 223.200,88.000 223.430,88.000 223.712 C 88.000 223.993,88.360 224.483,88.800 224.800 C 89.240 225.117,89.600 225.580,89.600 225.829 C 89.600 226.078,90.140 226.846,90.800 227.537 C 91.460 228.228,92.000 228.982,92.000 229.213 C 92.000 229.679,92.417 230.227,94.210 232.122 C 94.875 232.825,95.705 233.809,96.053 234.309 C 97.525 236.417,101.589 240.338,103.196 241.198 C 103.703 241.469,104.743 242.316,105.507 243.080 C 107.031 244.604,108.256 244.692,113.000 243.615 C 122.015 241.568,137.819 241.869,143.305 244.191 C 144.174 244.559,145.200 243.777,145.200 242.746 C 145.200 242.330,145.359 241.677,145.553 241.295 C 145.748 240.913,146.089 240.150,146.311 239.600 C 151.805 226.027,162.013 216.054,176.200 210.400 C 178.163 209.617,180.961 208.813,184.800 207.928 C 187.798 207.237,200.266 207.238,203.400 207.930 C 207.108 208.748,208.936 209.245,209.695 209.639 C 210.077 209.838,210.664 210.000,211.000 210.000 C 211.336 210.000,211.923 210.164,212.305 210.365 C 212.687 210.566,214.080 211.223,215.400 211.824 C 216.720 212.426,218.106 213.074,218.481 213.263 C 219.028 213.540,219.373 213.233,220.234 211.704 C 226.485 200.605,233.436 193.190,244.400 185.923 L 247.000 184.200 247.108 175.100 C 247.178 169.118,247.075 166.000,246.808 166.000 C 246.573 166.000,246.400 164.906,246.400 163.424 C 246.400 162.007,246.220 160.736,246.000 160.600 C 245.780 160.464,245.600 159.553,245.600 158.576 C 245.600 157.599,245.420 156.800,245.200 156.800 C 244.980 156.800,244.800 156.080,244.800 155.200 C 244.800 154.320,244.620 153.600,244.400 153.600 C 244.180 153.600,244.000 152.981,244.000 152.224 C 244.000 151.467,243.820 150.736,243.600 150.600 C 243.380 150.464,243.200 149.823,243.200 149.176 C 243.200 148.529,243.020 148.000,242.800 148.000 C 242.580 148.000,242.400 147.550,242.400 147.000 C 242.400 146.450,242.244 146.000,242.052 146.000 C 241.861 146.000,241.606 145.392,241.485 144.649 C 241.365 143.906,240.891 142.523,240.433 141.574 C 239.975 140.626,239.600 139.614,239.600 139.325 C 239.600 139.036,239.420 138.800,239.200 138.800 C 238.980 138.800,238.800 138.440,238.800 138.000 C 238.800 137.560,238.620 137.200,238.400 137.200 C 238.180 137.200,238.000 136.840,238.000 136.400 C 238.000 135.960,237.820 135.600,237.600 135.600 C 237.380 135.600,237.200 135.240,237.200 134.800 C 237.200 134.360,237.020 134.000,236.800 134.000 C 236.580 134.000,236.400 133.764,236.400 133.475 C 236.400 133.187,236.040 132.564,235.600 132.092 C 235.160 131.620,234.800 130.956,234.800 130.617 C 234.800 130.278,234.620 130.000,234.400 130.000 C 234.180 130.000,234.000 129.758,234.000 129.462 C 234.000 129.166,233.640 128.598,233.200 128.200 C 232.760 127.802,232.400 127.306,232.400 127.098 C 232.400 126.891,231.860 126.217,231.200 125.600 C 230.540 124.983,230.000 124.281,230.000 124.040 C 230.000 123.798,229.280 122.859,228.400 121.952 C 227.520 121.045,226.800 120.150,226.800 119.962 C 226.800 119.018,218.755 110.995,216.008 109.200 C 215.503 108.870,214.673 108.195,214.163 107.700 C 213.653 107.205,213.047 106.800,212.815 106.800 C 212.583 106.800,211.828 106.260,211.137 105.600 C 210.446 104.940,209.638 104.400,209.341 104.400 C 209.043 104.400,208.800 104.220,208.800 104.000 C 208.800 103.780,208.530 103.600,208.200 103.600 C 207.870 103.600,207.600 103.450,207.600 103.268 C 207.600 103.085,207.105 102.680,206.500 102.368 C 205.895 102.056,205.310 101.711,205.200 101.601 C 204.806 101.205,202.587 99.946,201.900 99.729 C 201.515 99.607,201.200 99.348,201.200 99.153 C 201.200 98.959,200.840 98.800,200.400 98.800 C 199.960 98.800,199.600 98.620,199.600 98.400 C 199.600 98.180,199.240 98.000,198.800 98.000 C 198.360 98.000,198.000 97.853,198.000 97.672 C 198.000 97.492,197.100 97.100,196.000 96.800 C 194.900 96.500,194.000 96.108,194.000 95.928 C 194.000 95.747,193.728 95.600,193.395 95.600 C 193.062 95.600,192.432 95.420,191.995 95.200 C 191.558 94.980,190.842 94.620,190.405 94.400 C 189.968 94.180,189.336 94.000,189.000 94.000 C 188.664 94.000,188.077 93.838,187.695 93.639 C 186.123 92.822,178.686 91.198,176.524 91.199 C 175.602 91.200,174.736 91.020,174.600 90.800 C 174.464 90.580,173.013 90.400,171.376 90.400 C 169.659 90.400,168.400 90.231,168.400 90.000 C 168.400 89.747,165.533 89.600,160.600 89.600 C 155.667 89.600,152.800 89.747,152.800 90.000 M25.100 91.720 C 24.495 91.959,24.000 92.310,24.000 92.501 C 24.000 92.691,23.843 92.750,23.652 92.632 C 23.223 92.367,21.600 93.723,21.600 94.347 C 21.600 94.596,21.465 94.801,21.300 94.803 C 21.135 94.805,20.775 95.291,20.500 95.883 C 19.902 97.171,19.818 103.600,20.400 103.600 C 20.620 103.600,20.800 103.843,20.800 104.141 C 20.800 104.872,22.936 107.062,23.968 107.390 C 24.426 107.535,24.800 107.807,24.800 107.995 C 24.800 108.183,25.340 108.455,26.000 108.600 C 26.660 108.745,27.200 109.029,27.200 109.232 C 27.200 109.434,27.470 109.600,27.800 109.600 C 28.130 109.600,28.400 109.780,28.400 110.000 C 28.400 110.220,28.760 110.400,29.200 110.400 C 29.640 110.400,30.000 110.580,30.000 110.800 C 30.000 111.020,30.278 111.200,30.617 111.200 C 30.956 111.200,31.620 111.560,32.092 112.000 C 32.564 112.440,33.187 112.800,33.475 112.800 C 33.764 112.800,34.000 112.980,34.000 113.200 C 34.000 113.420,34.360 113.600,34.800 113.600 C 35.240 113.600,35.600 113.780,35.600 114.000 C 35.600 114.220,35.920 114.400,36.312 114.400 C 36.703 114.400,37.283 114.760,37.600 115.200 C 37.917 115.640,38.497 116.000,38.888 116.000 C 39.280 116.000,39.600 116.180,39.600 116.400 C 39.600 116.620,39.878 116.800,40.217 116.800 C 40.556 116.800,41.220 117.160,41.692 117.600 C 42.164 118.040,42.787 118.400,43.075 118.400 C 43.364 118.400,43.600 118.580,43.600 118.800 C 43.600 119.020,43.870 119.200,44.200 119.200 C 44.530 119.200,44.800 119.380,44.800 119.600 C 44.800 119.820,45.160 120.000,45.600 120.000 C 46.040 120.000,46.400 120.145,46.400 120.323 C 46.400 121.168,51.576 123.200,53.728 123.200 C 56.884 123.200,61.198 120.717,61.200 118.900 C 61.200 118.625,61.380 118.400,61.600 118.400 C 61.839 118.400,62.000 116.867,62.000 114.600 C 62.000 112.333,61.839 110.800,61.600 110.800 C 61.380 110.800,61.200 110.522,61.200 110.182 C 61.200 109.486,59.460 107.600,58.818 107.600 C 58.588 107.600,58.400 107.420,58.400 107.200 C 58.400 106.980,58.130 106.800,57.800 106.800 C 57.470 106.800,57.200 106.620,57.200 106.400 C 57.200 106.180,56.930 106.000,56.600 106.000 C 56.270 106.000,56.000 105.820,56.000 105.600 C 56.000 105.380,55.640 105.200,55.200 105.200 C 54.760 105.200,54.400 105.020,54.400 104.800 C 54.400 104.580,54.164 104.400,53.875 104.400 C 53.587 104.400,52.964 104.040,52.492 103.600 C 52.020 103.160,51.356 102.800,51.017 102.800 C 50.678 102.800,50.400 102.620,50.400 102.400 C 50.400 102.180,50.122 102.000,49.783 102.000 C 49.444 102.000,48.780 101.640,48.308 101.200 C 47.836 100.760,47.213 100.400,46.925 100.400 C 46.636 100.400,46.400 100.220,46.400 100.000 C 46.400 99.780,46.040 99.600,45.600 99.600 C 45.160 99.600,44.800 99.420,44.800 99.200 C 44.800 98.980,44.522 98.800,44.183 98.800 C 43.844 98.800,43.180 98.440,42.708 98.000 C 42.236 97.560,41.613 97.200,41.325 97.200 C 41.036 97.200,40.800 97.054,40.800 96.875 C 40.800 96.696,40.170 96.302,39.400 96.000 C 38.630 95.698,38.000 95.338,38.000 95.199 C 38.000 94.955,35.494 93.644,34.897 93.577 C 34.734 93.558,34.315 93.285,33.968 92.971 C 33.620 92.656,33.205 92.528,33.046 92.688 C 32.887 92.847,32.631 92.802,32.478 92.588 C 31.514 91.242,27.503 90.770,25.100 91.720 M290.100 91.739 C 289.385 91.974,288.800 92.319,288.800 92.506 C 288.800 92.694,288.635 92.745,288.432 92.620 C 288.230 92.495,287.801 92.656,287.480 92.977 C 287.158 93.299,286.784 93.450,286.648 93.314 C 286.511 93.178,286.400 93.277,286.400 93.533 C 286.400 93.790,286.040 94.000,285.600 94.000 C 285.160 94.000,284.800 94.180,284.800 94.400 C 284.800 94.620,284.440 94.800,284.000 94.800 C 283.560 94.800,283.200 94.958,283.200 95.151 C 283.200 95.345,282.660 95.727,282.000 96.000 C 281.340 96.273,280.800 96.655,280.800 96.849 C 280.800 97.042,280.440 97.200,280.000 97.200 C 279.560 97.200,279.200 97.380,279.200 97.600 C 279.200 97.820,279.007 98.000,278.772 98.000 C 278.537 98.000,277.559 98.540,276.600 99.200 C 275.641 99.860,274.663 100.400,274.428 100.400 C 274.193 100.400,274.000 100.580,274.000 100.800 C 274.000 101.020,273.722 101.200,273.383 101.200 C 273.044 101.200,272.380 101.560,271.908 102.000 C 271.436 102.440,270.813 102.800,270.525 102.800 C 270.236 102.800,270.000 102.980,270.000 103.200 C 270.000 103.420,269.640 103.600,269.200 103.600 C 268.760 103.600,268.400 103.780,268.400 104.000 C 268.400 104.220,268.080 104.400,267.688 104.400 C 267.297 104.400,266.717 104.760,266.400 105.200 C 266.083 105.640,265.503 106.000,265.112 106.000 C 264.720 106.000,264.400 106.180,264.400 106.400 C 264.400 106.620,264.108 106.800,263.752 106.800 C 263.061 106.800,259.424 110.357,259.765 110.699 C 259.877 110.810,259.705 111.410,259.384 112.031 C 257.680 115.325,260.296 120.943,264.315 122.622 C 265.889 123.280,270.227 123.403,270.600 122.800 C 270.736 122.580,271.197 122.400,271.624 122.400 C 272.051 122.400,272.400 122.254,272.400 122.075 C 272.400 121.896,273.030 121.502,273.800 121.200 C 274.570 120.898,275.200 120.504,275.200 120.325 C 275.200 120.146,275.436 120.000,275.725 120.000 C 276.013 120.000,276.636 119.640,277.108 119.200 C 277.580 118.760,278.244 118.400,278.583 118.400 C 278.922 118.400,279.200 118.220,279.200 118.000 C 279.200 117.780,279.478 117.600,279.817 117.600 C 280.156 117.600,280.820 117.240,281.292 116.800 C 281.764 116.360,282.387 116.000,282.675 116.000 C 282.964 116.000,283.200 115.820,283.200 115.600 C 283.200 115.380,283.560 115.200,284.000 115.200 C 284.440 115.200,284.800 115.020,284.800 114.800 C 284.800 114.580,285.036 114.400,285.325 114.400 C 285.613 114.400,286.236 114.040,286.708 113.600 C 287.180 113.160,287.844 112.800,288.183 112.800 C 288.522 112.800,288.800 112.664,288.800 112.498 C 288.800 112.331,289.385 111.940,290.100 111.628 C 290.815 111.316,291.691 110.732,292.047 110.330 C 292.403 109.929,292.988 109.600,293.347 109.600 C 293.706 109.600,294.000 109.420,294.000 109.200 C 294.000 108.980,294.279 108.800,294.620 108.800 C 296.569 108.800,301.200 104.725,301.200 103.011 C 301.200 102.455,301.380 102.000,301.600 102.000 C 301.820 102.000,302.000 101.021,302.000 99.824 C 302.000 98.627,301.820 97.536,301.600 97.400 C 301.380 97.264,301.200 96.713,301.200 96.176 C 301.200 95.639,301.020 95.200,300.800 95.200 C 300.580 95.200,300.400 95.007,300.400 94.771 C 300.400 94.536,300.130 94.073,299.800 93.743 C 299.470 93.413,299.200 93.246,299.200 93.371 C 299.200 93.497,298.840 93.240,298.400 92.800 C 297.960 92.360,297.251 92.000,296.824 92.000 C 296.397 92.000,295.936 91.820,295.800 91.600 C 295.485 91.090,291.804 91.180,290.100 91.739 M5.200 168.000 C 5.200 168.220,4.840 168.400,4.400 168.400 C 3.960 168.400,3.600 168.580,3.600 168.800 C 3.600 169.020,3.322 169.200,2.982 169.200 C 0.959 169.200,0.200 171.109,0.200 176.195 L 0.200 181.027 1.687 182.513 C 2.504 183.331,3.439 184.000,3.763 184.000 C 4.087 184.000,4.464 184.180,4.600 184.400 C 5.368 185.643,41.584 184.762,41.597 183.500 C 41.599 183.335,41.883 183.200,42.229 183.200 C 43.037 183.200,44.000 182.237,44.000 181.429 C 44.000 181.083,44.180 180.800,44.400 180.800 C 44.620 180.800,44.800 180.440,44.800 180.000 C 44.800 179.560,44.980 179.200,45.200 179.200 C 45.431 179.200,45.600 177.933,45.600 176.200 C 45.600 174.467,45.431 173.200,45.200 173.200 C 44.980 173.200,44.800 172.906,44.800 172.547 C 44.800 171.699,41.501 168.400,40.653 168.400 C 40.294 168.400,40.000 168.220,40.000 168.000 C 40.000 167.739,33.933 167.600,22.600 167.600 C 11.267 167.600,5.200 167.739,5.200 168.000 M51.200 229.600 C 51.200 229.820,50.966 230.000,50.680 230.000 C 49.944 230.000,48.007 230.941,48.003 231.300 C 48.001 231.465,47.640 231.600,47.200 231.600 C 46.760 231.600,46.400 231.780,46.400 232.000 C 46.400 232.220,46.164 232.400,45.875 232.400 C 45.587 232.400,45.002 232.725,44.575 233.122 C 44.149 233.520,43.215 234.103,42.500 234.420 C 41.785 234.736,41.200 235.131,41.200 235.298 C 41.200 235.464,40.880 235.600,40.488 235.600 C 40.097 235.600,39.517 235.960,39.200 236.400 C 38.883 236.840,38.303 237.200,37.912 237.200 C 37.520 237.200,37.200 237.380,37.200 237.600 C 37.200 237.820,36.840 238.000,36.400 238.000 C 35.960 238.000,35.600 238.180,35.600 238.400 C 35.600 238.620,35.364 238.800,35.075 238.800 C 34.787 238.800,34.164 239.160,33.692 239.600 C 33.220 240.040,32.556 240.400,32.217 240.400 C 31.878 240.400,31.600 240.580,31.600 240.800 C 31.600 241.020,31.255 241.200,30.833 241.200 C 30.412 241.200,30.007 241.335,29.933 241.500 C 29.860 241.665,28.769 242.323,27.509 242.962 C 26.249 243.601,24.862 244.456,24.426 244.862 C 23.990 245.268,23.433 245.600,23.188 245.600 C 22.621 245.600,21.600 246.610,21.600 247.171 C 21.600 247.407,21.420 247.600,21.200 247.600 C 20.980 247.600,20.800 247.870,20.800 248.200 C 20.800 248.530,20.620 248.800,20.400 248.800 C 20.161 248.800,20.000 250.333,20.000 252.600 C 20.000 254.867,20.161 256.400,20.400 256.400 C 20.620 256.400,20.800 256.625,20.800 256.900 C 20.801 257.675,22.616 259.600,23.347 259.600 C 23.706 259.600,24.000 259.780,24.000 260.000 C 24.000 260.220,24.360 260.400,24.800 260.400 C 25.240 260.400,25.600 260.580,25.600 260.800 C 25.600 261.025,26.725 261.200,28.176 261.200 C 29.593 261.200,30.864 261.020,31.000 260.800 C 31.136 260.580,31.687 260.400,32.224 260.400 C 32.761 260.400,33.200 260.220,33.200 260.000 C 33.200 259.780,33.470 259.600,33.800 259.600 C 34.130 259.600,34.400 259.440,34.400 259.243 C 34.400 259.047,34.888 258.764,35.485 258.614 C 36.081 258.465,37.303 257.847,38.199 257.243 C 39.095 256.638,40.407 255.887,41.114 255.574 C 41.821 255.261,42.400 254.869,42.400 254.702 C 42.400 254.536,42.636 254.400,42.925 254.400 C 43.213 254.400,43.836 254.040,44.308 253.600 C 44.780 253.160,45.444 252.800,45.783 252.800 C 46.122 252.800,46.400 252.620,46.400 252.400 C 46.400 252.180,46.760 252.000,47.200 252.000 C 47.640 252.000,48.000 251.820,48.000 251.600 C 48.000 251.380,48.236 251.200,48.525 251.200 C 48.813 251.200,49.436 250.840,49.908 250.400 C 50.380 249.960,51.044 249.600,51.383 249.600 C 51.722 249.600,52.000 249.420,52.000 249.200 C 52.000 248.980,52.278 248.800,52.617 248.800 C 52.956 248.800,53.620 248.440,54.092 248.000 C 54.564 247.560,55.187 247.200,55.475 247.200 C 55.764 247.200,56.000 247.064,56.000 246.898 C 56.000 246.731,56.578 246.340,57.284 246.027 C 58.857 245.331,61.200 243.049,61.200 242.213 C 61.200 241.876,61.380 241.600,61.600 241.600 C 62.434 241.600,62.082 234.639,61.200 233.692 C 60.760 233.220,60.398 232.601,60.395 232.317 C 60.389 231.719,57.891 230.000,57.029 230.000 C 56.709 230.000,56.336 229.820,56.200 229.600 C 56.064 229.380,54.883 229.200,53.576 229.200 C 52.259 229.200,51.200 229.378,51.200 229.600 " stroke="none" fill="#fbb50f" fill-rule="evenodd"></path><path id="path1" d="M275.145 175.385 C 275.005 175.527,273.295 175.810,271.345 176.014 C 265.848 176.589,264.231 176.852,263.820 177.241 C 263.611 177.438,262.947 177.600,262.344 177.600 C 261.741 177.600,261.136 177.780,261.000 178.000 C 260.864 178.220,260.234 178.400,259.600 178.400 C 258.966 178.400,258.336 178.580,258.200 178.800 C 258.064 179.020,257.513 179.200,256.976 179.200 C 256.439 179.200,256.000 179.380,256.000 179.600 C 256.000 179.820,255.460 180.000,254.800 180.000 C 254.140 180.000,253.600 180.180,253.600 180.400 C 253.600 180.620,253.240 180.800,252.800 180.800 C 252.360 180.800,252.000 180.980,252.000 181.200 C 252.000 181.420,251.640 181.600,251.200 181.600 C 250.760 181.600,250.400 181.780,250.400 182.000 C 250.400 182.220,250.040 182.400,249.600 182.400 C 249.160 182.400,248.800 182.580,248.800 182.800 C 248.800 183.020,248.484 183.200,248.098 183.200 C 247.708 183.200,247.168 183.715,246.884 184.356 C 246.400 185.447,243.696 187.600,242.809 187.600 C 242.584 187.600,242.400 187.741,242.400 187.914 C 242.400 188.086,241.867 188.543,241.215 188.928 C 240.563 189.313,239.798 189.847,239.515 190.114 C 239.232 190.381,238.370 191.082,237.600 191.671 C 235.471 193.299,231.895 196.746,229.788 199.200 C 228.750 200.410,227.505 201.857,227.023 202.415 C 225.623 204.034,223.058 207.965,221.420 211.000 C 219.424 214.699,219.582 214.603,217.350 213.469 C 216.278 212.924,214.680 212.175,213.800 211.805 C 212.920 211.435,211.887 210.968,211.505 210.766 C 211.123 210.565,210.459 210.400,210.029 210.400 C 209.599 210.400,209.148 210.240,209.027 210.044 C 208.906 209.849,208.221 209.587,207.504 209.464 C 206.787 209.340,205.120 209.014,203.800 208.739 C 200.641 208.081,187.759 208.081,184.600 208.739 C 183.280 209.014,181.613 209.340,180.896 209.464 C 180.179 209.587,179.494 209.849,179.373 210.044 C 179.252 210.240,178.801 210.400,178.371 210.400 C 177.941 210.400,177.277 210.559,176.895 210.753 C 176.513 210.948,175.750 211.289,175.200 211.511 C 173.693 212.121,169.956 213.941,168.600 214.726 C 158.311 220.677,149.492 231.564,145.857 242.800 C 145.197 244.839,144.373 244.998,139.600 244.010 C 133.173 242.678,120.740 242.683,114.400 244.020 C 113.190 244.275,110.492 244.568,108.405 244.671 C 106.318 244.775,104.508 245.025,104.383 245.228 C 104.258 245.430,103.670 245.636,103.078 245.685 C 102.485 245.734,102.000 245.915,102.000 246.087 C 102.000 246.259,101.640 246.400,101.200 246.400 C 100.760 246.400,100.400 246.580,100.400 246.800 C 100.400 247.020,100.058 247.200,99.641 247.200 C 98.874 247.200,94.388 249.397,94.006 249.960 C 93.893 250.127,93.215 250.519,92.500 250.830 C 91.785 251.141,91.200 251.531,91.200 251.698 C 91.200 251.864,90.975 252.000,90.700 252.001 C 90.425 252.001,89.570 252.541,88.800 253.200 C 88.030 253.859,87.263 254.399,87.096 254.399 C 86.929 254.400,86.228 254.940,85.537 255.600 C 84.846 256.260,84.134 256.800,83.954 256.800 C 83.543 256.800,81.318 258.770,78.651 261.496 C 74.979 265.248,74.000 266.370,74.000 266.828 C 74.000 267.076,73.460 267.783,72.800 268.400 C 72.140 269.017,71.600 269.769,71.600 270.072 C 71.600 270.375,71.240 270.883,70.800 271.200 C 70.360 271.517,70.000 272.057,70.000 272.400 C 70.000 272.743,69.640 273.283,69.200 273.600 C 68.760 273.917,68.400 274.497,68.400 274.888 C 68.400 275.280,68.220 275.600,68.000 275.600 C 67.780 275.600,67.600 275.870,67.600 276.200 C 67.600 276.530,67.420 276.800,67.200 276.800 C 66.980 276.800,66.800 277.160,66.800 277.600 C 66.800 278.040,66.620 278.400,66.400 278.400 C 66.180 278.400,66.000 278.760,66.000 279.200 C 66.000 279.640,65.820 280.000,65.600 280.000 C 65.380 280.000,65.200 280.360,65.200 280.800 C 65.200 281.240,65.020 281.600,64.800 281.600 C 64.580 281.600,64.400 281.949,64.400 282.376 C 64.400 282.803,64.220 283.264,64.000 283.400 C 63.780 283.536,63.600 284.087,63.600 284.624 C 63.600 285.161,63.420 285.600,63.200 285.600 C 62.980 285.600,62.800 286.140,62.800 286.800 C 62.800 287.460,62.620 288.000,62.400 288.000 C 62.180 288.000,62.000 288.540,62.000 289.200 C 62.000 289.860,61.839 290.400,61.642 290.400 C 61.445 290.400,61.187 291.075,61.068 291.900 C 60.949 292.725,60.647 294.300,60.398 295.400 C 59.145 300.917,58.410 313.789,59.209 316.223 C 59.430 316.895,59.632 318.384,59.658 319.531 C 59.684 320.679,59.861 321.714,60.052 321.832 C 60.244 321.951,60.400 322.836,60.400 323.800 C 60.400 324.764,60.580 325.664,60.800 325.800 C 61.020 325.936,61.200 326.489,61.200 327.029 C 61.200 327.569,61.358 328.323,61.551 328.705 C 61.744 329.087,62.116 330.120,62.377 331.000 C 62.862 332.631,63.414 334.051,64.047 335.295 C 64.241 335.677,64.400 336.262,64.400 336.595 C 64.400 336.928,64.580 337.200,64.800 337.200 C 65.020 337.200,65.200 337.650,65.200 338.200 C 65.200 338.750,65.380 339.200,65.600 339.200 C 65.820 339.200,66.000 339.560,66.000 340.000 C 66.000 340.440,66.180 340.800,66.400 340.800 C 66.620 340.800,66.800 341.036,66.800 341.325 C 66.800 341.613,67.160 342.236,67.600 342.708 C 68.040 343.180,68.400 343.844,68.400 344.183 C 68.400 344.522,68.580 344.800,68.800 344.800 C 69.020 344.800,69.200 345.120,69.200 345.512 C 69.200 345.903,69.560 346.483,70.000 346.800 C 70.440 347.117,70.800 347.625,70.800 347.928 C 70.800 348.231,71.340 348.983,72.000 349.600 C 72.660 350.217,73.200 350.914,73.200 351.150 C 73.200 351.817,80.305 359.583,80.926 359.594 C 81.105 359.597,82.129 360.500,83.200 361.600 C 84.271 362.700,85.341 363.600,85.578 363.600 C 85.814 363.600,86.572 364.140,87.263 364.800 C 87.954 365.460,88.762 366.000,89.059 366.000 C 89.357 366.000,89.600 366.180,89.600 366.400 C 89.600 366.620,89.836 366.800,90.125 366.800 C 90.413 366.800,90.998 367.125,91.425 367.522 C 91.851 367.920,92.785 368.503,93.500 368.820 C 94.215 369.136,94.800 369.531,94.800 369.698 C 94.800 369.864,95.160 370.000,95.600 370.000 C 96.040 370.000,96.400 370.180,96.400 370.400 C 96.400 370.620,96.760 370.800,97.200 370.800 C 97.640 370.800,98.000 370.980,98.000 371.200 C 98.000 371.420,98.360 371.600,98.800 371.600 C 99.240 371.600,99.600 371.746,99.600 371.924 C 99.600 372.103,100.500 372.479,101.599 372.761 C 102.699 373.043,103.699 373.437,103.823 373.637 C 103.946 373.837,104.476 374.000,105.000 374.000 C 105.524 374.000,106.059 374.172,106.189 374.382 C 106.318 374.591,107.503 374.885,108.821 375.034 C 110.139 375.183,111.314 375.462,111.433 375.653 C 111.551 375.844,112.436 376.000,113.400 376.000 C 114.364 376.000,115.264 376.180,115.400 376.400 C 115.537 376.621,117.337 376.800,119.424 376.800 C 121.684 376.800,123.200 376.961,123.200 377.201 C 123.200 377.648,336.269 377.456,342.700 377.004 C 344.735 376.860,346.400 376.576,346.400 376.372 C 346.400 376.167,347.300 376.000,348.400 376.000 C 349.500 376.000,350.400 375.843,350.400 375.652 C 350.400 375.460,351.316 375.182,352.435 375.033 C 353.554 374.885,354.814 374.591,355.235 374.382 C 355.656 374.172,356.358 373.820,356.795 373.600 C 357.232 373.380,357.862 373.200,358.195 373.200 C 358.528 373.200,358.800 373.020,358.800 372.800 C 358.800 372.580,359.065 372.400,359.389 372.400 C 360.194 372.400,363.600 370.718,363.600 370.320 C 363.600 370.144,363.960 370.000,364.400 370.000 C 364.840 370.000,365.200 369.820,365.200 369.600 C 365.200 369.380,365.520 369.200,365.912 369.200 C 366.303 369.200,366.883 368.840,367.200 368.400 C 367.517 367.960,368.025 367.600,368.328 367.600 C 368.631 367.600,369.383 367.060,370.000 366.400 C 370.617 365.740,371.297 365.200,371.512 365.200 C 371.727 365.200,372.556 364.525,373.354 363.700 C 375.035 361.962,378.112 358.851,379.700 357.285 C 380.304 356.688,380.799 356.055,380.800 355.878 C 380.800 355.701,381.339 354.981,381.998 354.278 C 382.657 353.575,383.197 352.857,383.198 352.683 C 383.199 352.509,383.560 351.980,384.000 351.508 C 384.440 351.036,384.800 350.413,384.800 350.125 C 384.800 349.836,384.980 349.600,385.200 349.600 C 385.420 349.600,385.600 349.240,385.600 348.800 C 385.600 348.360,385.780 348.000,386.000 348.000 C 386.220 348.000,386.400 347.640,386.400 347.200 C 386.400 346.760,386.580 346.400,386.800 346.400 C 387.020 346.400,387.200 346.040,387.200 345.600 C 387.200 345.160,387.380 344.800,387.600 344.800 C 387.820 344.800,388.000 344.440,388.000 344.000 C 388.000 343.560,388.180 343.200,388.400 343.200 C 388.620 343.200,388.800 342.928,388.800 342.595 C 388.800 342.262,388.967 341.677,389.171 341.295 C 389.543 340.598,390.078 339.089,390.021 338.898 C 390.005 338.842,390.256 338.162,390.580 337.387 C 390.904 336.611,391.291 334.632,391.440 332.989 C 391.588 331.345,391.866 330.000,392.055 330.000 C 392.552 330.000,392.497 310.907,392.000 310.600 C 391.780 310.464,391.600 309.714,391.600 308.934 C 391.600 307.546,390.695 303.389,390.046 301.800 C 389.680 300.902,388.929 298.849,388.254 296.900 C 388.007 296.185,387.668 295.600,387.502 295.600 C 387.336 295.600,387.200 295.240,387.200 294.800 C 387.200 294.360,387.054 294.000,386.875 294.000 C 386.696 294.000,386.302 293.370,386.000 292.600 C 385.698 291.830,385.326 291.200,385.174 291.200 C 385.022 291.200,384.673 290.660,384.400 290.000 C 384.127 289.340,383.745 288.800,383.551 288.800 C 383.358 288.800,383.200 288.557,383.200 288.259 C 383.200 287.962,382.660 287.154,382.000 286.463 C 381.340 285.772,380.800 285.066,380.800 284.892 C 380.800 284.378,373.119 276.591,371.600 275.567 C 370.830 275.047,369.851 274.302,369.425 273.911 C 368.998 273.520,368.496 273.200,368.308 273.200 C 368.120 273.200,367.580 272.840,367.108 272.400 C 366.636 271.960,366.013 271.600,365.725 271.600 C 365.436 271.600,365.200 271.420,365.200 271.200 C 365.200 270.980,364.840 270.800,364.400 270.800 C 363.960 270.800,363.600 270.620,363.600 270.400 C 363.600 270.180,363.240 270.000,362.800 270.000 C 362.360 270.000,362.000 269.820,362.000 269.600 C 362.000 269.380,361.640 269.200,361.200 269.200 C 360.760 269.200,360.400 269.020,360.400 268.800 C 360.400 268.580,360.040 268.400,359.600 268.400 C 359.160 268.400,358.800 268.220,358.800 268.000 C 358.800 267.780,358.440 267.600,358.000 267.600 C 357.560 267.600,357.200 267.420,357.200 267.200 C 357.200 266.980,356.761 266.800,356.224 266.800 C 355.687 266.800,355.136 266.620,355.000 266.400 C 354.864 266.180,354.324 266.000,353.800 266.000 C 353.276 266.000,352.736 265.820,352.600 265.600 C 352.464 265.380,351.733 265.200,350.976 265.200 C 350.219 265.200,349.600 265.020,349.600 264.800 C 349.600 264.580,348.700 264.400,347.600 264.400 C 346.500 264.400,345.600 264.220,345.600 264.000 C 345.600 263.780,345.240 263.600,344.800 263.600 C 343.972 263.600,343.696 262.635,344.400 262.200 C 344.620 262.064,344.800 261.423,344.800 260.776 C 344.800 260.129,344.980 259.600,345.200 259.600 C 345.420 259.600,345.600 258.801,345.600 257.824 C 345.600 256.847,345.780 255.936,346.000 255.800 C 346.220 255.664,346.400 254.404,346.400 253.000 C 346.400 251.596,346.580 250.336,346.800 250.200 C 347.041 250.051,347.200 247.263,347.200 243.176 C 347.200 238.925,347.051 236.400,346.800 236.400 C 346.572 236.400,346.400 235.208,346.400 233.624 C 346.400 232.097,346.220 230.736,346.000 230.600 C 345.780 230.464,345.600 229.553,345.600 228.576 C 345.600 227.599,345.420 226.800,345.200 226.800 C 344.980 226.800,344.800 226.170,344.800 225.400 C 344.800 224.630,344.620 224.000,344.400 224.000 C 344.180 224.000,344.000 223.460,344.000 222.800 C 344.000 222.140,343.820 221.600,343.600 221.600 C 343.380 221.600,343.200 221.060,343.200 220.400 C 343.200 219.740,343.020 219.200,342.800 219.200 C 342.580 219.200,342.400 218.761,342.400 218.224 C 342.400 217.687,342.220 217.136,342.000 217.000 C 341.780 216.864,341.600 216.462,341.600 216.106 C 341.600 215.255,338.820 209.616,337.911 208.625 C 337.520 208.198,337.200 207.613,337.200 207.325 C 337.200 207.036,337.020 206.800,336.800 206.800 C 336.580 206.800,336.400 206.564,336.400 206.275 C 336.400 205.987,336.080 205.402,335.689 204.975 C 335.298 204.549,334.542 203.570,334.008 202.800 C 333.475 202.030,332.714 201.109,332.319 200.753 C 331.924 200.397,331.600 199.915,331.600 199.680 C 331.600 199.008,323.643 191.200,322.957 191.200 C 322.827 191.200,322.217 190.660,321.600 190.000 C 320.983 189.340,320.281 188.800,320.040 188.800 C 319.798 188.800,319.600 188.620,319.600 188.400 C 319.600 188.180,319.412 188.000,319.183 188.000 C 318.954 188.000,318.380 187.640,317.908 187.200 C 317.436 186.760,316.813 186.400,316.525 186.400 C 316.236 186.400,316.000 186.220,316.000 186.000 C 316.000 185.780,315.764 185.600,315.475 185.600 C 315.187 185.600,314.564 185.240,314.092 184.800 C 313.620 184.360,312.956 184.000,312.617 184.000 C 312.278 184.000,312.000 183.820,312.000 183.600 C 312.000 183.380,311.640 183.200,311.200 183.200 C 310.760 183.200,310.400 183.020,310.400 182.800 C 310.400 182.580,310.040 182.400,309.600 182.400 C 309.160 182.400,308.800 182.220,308.800 182.000 C 308.800 181.780,308.440 181.600,308.000 181.600 C 307.560 181.600,307.200 181.420,307.200 181.200 C 307.200 180.980,306.750 180.800,306.200 180.800 C 305.650 180.800,305.200 180.620,305.200 180.400 C 305.200 180.180,304.851 180.000,304.424 180.000 C 303.997 180.000,303.536 179.820,303.400 179.600 C 303.264 179.380,302.724 179.200,302.200 179.200 C 301.676 179.200,301.136 179.020,301.000 178.800 C 300.864 178.580,300.324 178.400,299.800 178.400 C 299.276 178.400,298.736 178.220,298.600 178.000 C 298.464 177.780,297.744 177.600,297.000 177.600 C 296.256 177.600,295.536 177.420,295.400 177.200 C 295.264 176.980,294.389 176.800,293.456 176.800 C 292.523 176.800,291.589 176.638,291.380 176.441 C 290.747 175.842,275.662 174.861,275.145 175.385 " stroke="none" fill="#83ccf3" fill-rule="evenodd"></path><path id="path2" d="M241.260 188.003 C 240.347 188.664,239.600 189.303,239.600 189.423 C 239.600 189.611,241.854 188.077,242.980 187.122 C 243.927 186.319,242.756 186.918,241.260 188.003 M236.956 191.271 C 233.758 194.002,231.261 196.453,229.082 199.000 C 227.953 200.320,228.913 199.490,231.215 197.155 C 233.517 194.820,236.300 192.166,237.400 191.257 C 238.500 190.349,239.290 189.604,239.156 189.603 C 239.022 189.601,238.032 190.352,236.956 191.271 M226.344 202.300 C 225.193 203.689,224.706 204.400,224.904 204.400 C 225.014 204.400,225.586 203.770,226.173 203.000 C 227.263 201.571,227.395 201.032,226.344 202.300 M191.916 207.497 C 193.299 207.575,195.459 207.574,196.716 207.495 C 197.972 207.416,196.840 207.352,194.200 207.353 C 191.560 207.353,190.532 207.418,191.916 207.497 M222.553 207.700 C 221.176 210.036,221.086 210.235,221.787 209.400 C 222.600 208.432,223.300 207.200,223.038 207.200 C 222.933 207.200,222.715 207.425,222.553 207.700 M186.305 207.883 C 186.802 207.979,187.522 207.975,187.905 207.875 C 188.287 207.775,187.880 207.696,187.000 207.701 C 186.120 207.705,185.807 207.787,186.305 207.883 M200.705 207.883 C 201.202 207.979,201.922 207.975,202.305 207.875 C 202.687 207.775,202.280 207.696,201.400 207.701 C 200.520 207.705,200.207 207.787,200.705 207.883 M181.200 208.818 C 180.762 209.115,180.924 209.152,181.800 208.956 C 183.271 208.627,183.590 208.398,182.567 208.406 C 182.145 208.409,181.530 208.595,181.200 208.818 M205.233 208.544 C 205.325 208.623,205.940 208.808,206.600 208.956 C 207.476 209.152,207.638 209.115,207.200 208.818 C 206.660 208.453,204.832 208.198,205.233 208.544 M219.594 212.811 C 219.355 213.257,218.961 213.500,218.718 213.349 C 218.449 213.183,218.390 213.260,218.566 213.545 C 218.725 213.802,219.022 213.910,219.225 213.784 C 219.666 213.512,220.516 212.000,220.228 212.000 C 220.118 212.000,219.833 212.365,219.594 212.811 M168.700 213.829 C 167.205 214.640,167.296 214.978,168.800 214.200 C 169.460 213.859,170.000 213.494,170.000 213.390 C 170.000 213.132,169.957 213.147,168.700 213.829 M161.176 219.231 L 159.000 221.261 161.300 219.354 C 163.411 217.604,163.819 217.200,163.476 217.200 C 163.408 217.200,162.373 218.114,161.176 219.231 M153.144 227.500 C 151.993 228.889,151.506 229.600,151.704 229.600 C 151.814 229.600,152.386 228.970,152.973 228.200 C 154.063 226.771,154.195 226.232,153.144 227.500 M120.400 242.353 C 119.630 242.489,122.581 242.600,126.958 242.600 C 131.335 242.600,134.215 242.475,133.358 242.323 C 131.470 241.987,122.349 242.008,120.400 242.353 M114.821 243.179 C 114.446 243.416,114.870 243.465,116.021 243.318 C 116.999 243.192,117.875 243.025,117.967 242.945 C 118.342 242.619,115.355 242.840,114.821 243.179 M136.033 242.945 C 136.125 243.025,137.001 243.192,137.979 243.318 C 139.130 243.465,139.554 243.416,139.179 243.179 C 138.645 242.840,135.658 242.619,136.033 242.945 " stroke="none" fill="#c4bc70" fill-rule="evenodd"></path><path id="path3" d="M157.578 222.700 L 156.200 224.200 157.700 222.822 C 159.096 221.538,159.384 221.200,159.078 221.200 C 159.012 221.200,158.337 221.875,157.578 222.700 " stroke="none" fill="#b4bc84" fill-rule="evenodd"></path><path id="path4" d="M235.775 192.900 L 234.600 194.200 235.900 193.025 C 236.615 192.379,237.200 191.794,237.200 191.725 C 237.200 191.416,236.870 191.688,235.775 192.900 M232.378 195.896 C 231.188 197.188,231.162 197.256,232.182 196.396 C 234.139 194.746,234.473 194.400,234.107 194.400 C 233.914 194.400,233.137 195.073,232.378 195.896 M228.634 200.068 C 227.405 201.426,226.400 202.699,226.400 202.899 C 226.400 203.098,226.882 202.663,227.472 201.931 C 228.061 201.199,229.177 199.925,229.953 199.100 C 230.728 198.275,231.251 197.600,231.115 197.600 C 230.979 197.600,229.862 198.711,228.634 200.068 M191.900 207.895 C 193.055 207.976,194.945 207.976,196.100 207.895 C 197.255 207.814,196.310 207.748,194.000 207.748 C 191.690 207.748,190.745 207.814,191.900 207.895 M184.800 208.400 L 183.800 208.720 184.800 208.732 C 185.350 208.738,186.160 208.589,186.600 208.400 L 187.400 208.056 186.600 208.068 C 186.160 208.074,185.350 208.224,184.800 208.400 M201.800 208.381 C 202.568 208.729,204.710 208.956,204.367 208.653 C 204.275 208.572,203.480 208.396,202.600 208.262 C 201.485 208.093,201.242 208.129,201.800 208.381 M216.800 212.979 C 216.800 213.185,218.996 214.400,219.366 214.400 C 219.479 214.400,219.768 213.995,220.008 213.500 C 220.411 212.667,220.400 212.655,219.857 213.328 C 219.309 214.008,219.188 214.014,218.035 213.418 C 217.356 213.067,216.800 212.869,216.800 212.979 M168.600 214.400 C 167.940 214.837,167.580 215.192,167.800 215.188 C 168.201 215.182,170.376 213.623,170.000 213.612 C 169.890 213.608,169.260 213.963,168.600 214.400 M163.000 218.244 L 161.400 219.676 163.100 218.404 C 164.563 217.310,165.091 216.783,164.700 216.806 C 164.645 216.809,163.880 217.456,163.000 218.244 M157.788 222.812 C 156.045 224.565,154.718 226.000,154.838 226.000 C 155.137 226.000,161.226 219.893,161.077 219.743 C 161.011 219.678,159.531 221.059,157.788 222.812 M121.000 242.763 C 119.900 242.893,122.600 243.000,127.000 243.000 C 131.461 243.000,134.027 242.885,132.800 242.740 C 130.138 242.424,123.748 242.437,121.000 242.763 M115.000 243.600 C 113.893 243.882,113.877 243.909,114.800 243.947 C 115.350 243.969,116.070 243.813,116.400 243.600 C 117.081 243.160,116.729 243.160,115.000 243.600 M137.600 243.594 C 137.930 243.811,138.635 243.991,139.167 243.994 C 140.451 244.002,140.125 243.775,138.400 243.458 C 137.415 243.277,137.178 243.318,137.600 243.594 M111.200 244.400 C 110.376 244.664,110.341 244.726,111.000 244.754 C 111.440 244.773,112.070 244.613,112.400 244.400 C 113.101 243.947,112.614 243.947,111.200 244.400 M141.600 244.382 C 141.930 244.605,142.545 244.791,142.967 244.794 C 143.990 244.802,143.671 244.573,142.200 244.244 C 141.324 244.048,141.162 244.085,141.600 244.382 " stroke="none" fill="#a6c4a9" fill-rule="evenodd"></path></g></svg>