<svg id="svg" version="1.1" xmlns="http://www.w3.org/2000/svg" xmlns:xlink="http://www.w3.org/1999/xlink" width="400" height="400" viewBox="0, 0, 400,400"><g id="svgg"><path id="path0" d="M212.216 75.174 C 212.089 75.379,211.404 75.457,210.693 75.346 C 209.982 75.235,208.320 75.400,207.000 75.712 C 205.680 76.024,204.244 76.226,203.810 76.162 C 203.375 76.097,202.892 76.252,202.735 76.506 C 202.578 76.759,201.808 76.924,201.025 76.871 C 200.241 76.818,199.600 76.961,199.600 77.187 C 199.600 77.414,198.880 77.600,198.000 77.600 C 197.120 77.600,196.400 77.780,196.400 78.000 C 196.400 78.220,195.770 78.400,195.000 78.400 C 194.230 78.400,193.600 78.580,193.600 78.800 C 193.600 79.020,193.060 79.200,192.400 79.200 C 191.740 79.200,191.200 79.380,191.200 79.600 C 191.200 79.820,190.660 80.000,190.000 80.000 C 189.340 80.000,188.800 80.180,188.800 80.400 C 188.800 80.620,188.260 80.800,187.600 80.800 C 186.940 80.800,186.400 80.947,186.400 81.128 C 186.400 81.308,185.500 81.700,184.400 82.000 C 183.300 82.300,182.400 82.692,182.400 82.872 C 182.400 83.053,182.040 83.200,181.600 83.200 C 181.160 83.200,180.800 83.380,180.800 83.600 C 180.800 83.820,180.350 84.000,179.800 84.000 C 179.250 84.000,178.800 84.180,178.800 84.400 C 178.800 84.620,178.566 84.800,178.280 84.800 C 177.544 84.800,175.607 85.741,175.603 86.100 C 175.601 86.265,175.240 86.400,174.800 86.400 C 174.360 86.400,174.000 86.580,174.000 86.800 C 174.000 87.020,173.764 87.200,173.475 87.200 C 173.187 87.200,172.564 87.560,172.092 88.000 C 171.620 88.440,170.956 88.800,170.617 88.800 C 170.278 88.800,170.000 88.980,170.000 89.200 C 170.000 89.420,169.680 89.600,169.288 89.600 C 168.897 89.600,168.317 89.960,168.000 90.400 C 167.683 90.840,167.103 91.200,166.712 91.200 C 166.320 91.200,166.000 91.380,166.000 91.600 C 166.000 91.820,165.773 92.000,165.495 92.000 C 164.920 92.000,160.670 94.762,160.467 95.268 C 160.393 95.451,160.151 95.600,159.927 95.600 C 159.704 95.600,159.017 96.140,158.400 96.800 C 157.783 97.460,157.071 98.000,156.817 98.000 C 156.563 98.000,155.296 99.080,154.000 100.400 C 152.704 101.720,151.528 102.800,151.387 102.800 C 151.245 102.800,150.470 103.415,149.664 104.167 C 148.859 104.918,147.615 106.071,146.900 106.727 C 146.185 107.384,145.600 108.017,145.600 108.134 C 145.600 108.251,151.172 108.343,157.981 108.338 C 164.791 108.334,170.596 108.475,170.881 108.653 C 171.167 108.830,172.480 109.117,173.800 109.291 C 178.614 109.923,180.443 110.280,185.700 111.618 C 186.525 111.828,187.875 112.149,188.700 112.331 C 189.525 112.513,190.830 112.945,191.600 113.291 C 192.370 113.637,193.360 114.011,193.800 114.121 C 197.357 115.011,207.819 119.716,212.341 122.459 C 213.738 123.307,214.961 124.000,215.059 124.000 C 215.222 124.000,218.048 125.923,222.977 129.389 C 234.900 137.772,249.326 154.793,255.033 167.212 C 255.675 168.609,256.741 170.843,257.401 172.176 L 258.603 174.600 262.801 174.870 C 265.111 175.018,268.080 175.320,269.400 175.541 C 270.720 175.762,272.659 176.070,273.709 176.224 C 274.759 176.379,275.715 176.662,275.833 176.853 C 275.951 177.044,276.579 177.200,277.229 177.200 C 277.879 177.200,278.723 177.358,279.105 177.551 C 279.487 177.744,280.520 178.117,281.400 178.379 C 288.772 180.580,301.274 187.217,304.800 190.801 C 304.910 190.913,305.680 191.512,306.512 192.132 C 310.477 195.088,321.200 207.201,321.200 208.724 C 321.200 208.949,321.335 209.193,321.500 209.267 C 322.265 209.607,328.400 221.245,328.400 222.357 C 328.400 222.606,328.566 223.123,328.768 223.505 C 333.637 232.695,335.046 254.901,331.577 267.800 C 331.340 268.680,331.001 270.030,330.824 270.800 C 330.395 272.657,329.616 274.798,328.753 276.495 C 328.559 276.877,328.400 277.415,328.400 277.692 C 328.400 278.401,324.998 285.247,322.933 288.693 C 321.980 290.284,321.200 291.769,321.200 291.993 C 321.200 292.491,330.256 292.557,330.562 292.062 C 330.677 291.876,333.068 291.601,335.877 291.451 C 338.685 291.300,341.157 291.003,341.371 290.789 C 341.585 290.575,342.343 290.400,343.056 290.400 C 343.769 290.400,344.464 290.220,344.600 290.000 C 344.736 289.780,345.456 289.600,346.200 289.600 C 346.944 289.600,347.642 289.456,347.751 289.279 C 347.860 289.103,348.861 288.710,349.975 288.407 C 351.089 288.104,352.000 287.708,352.000 287.528 C 352.000 287.347,352.439 287.200,352.976 287.200 C 353.513 287.200,354.064 287.020,354.200 286.800 C 354.336 286.580,354.797 286.400,355.224 286.400 C 355.651 286.400,356.000 286.220,356.000 286.000 C 356.000 285.780,356.360 285.600,356.800 285.600 C 357.240 285.600,357.600 285.464,357.600 285.298 C 357.600 285.131,358.185 284.756,358.900 284.464 C 361.176 283.534,362.000 283.074,362.000 282.732 C 362.000 282.550,362.360 282.400,362.800 282.400 C 363.240 282.400,363.600 282.220,363.600 282.000 C 363.600 281.780,363.920 281.600,364.312 281.600 C 364.703 281.600,365.283 281.240,365.600 280.800 C 365.917 280.360,366.457 280.000,366.800 280.000 C 367.143 280.000,367.683 279.640,368.000 279.200 C 368.317 278.760,368.780 278.400,369.029 278.400 C 369.278 278.400,370.046 277.860,370.737 277.200 C 371.428 276.540,372.174 276.000,372.396 276.000 C 372.618 276.000,372.800 275.820,372.800 275.600 C 372.800 275.380,373.004 275.200,373.252 275.200 C 373.793 275.200,384.800 264.089,384.800 263.543 C 384.800 263.334,385.250 262.714,385.800 262.164 C 386.350 261.614,386.800 261.020,386.800 260.844 C 386.800 260.668,387.234 260.019,387.765 259.402 C 388.296 258.784,388.971 257.811,389.265 257.239 C 389.559 256.668,390.205 255.590,390.700 254.844 C 391.195 254.098,391.600 253.153,391.600 252.744 C 391.600 252.335,391.780 252.000,392.000 252.000 C 392.220 252.000,392.400 251.640,392.400 251.200 C 392.400 250.760,392.580 250.400,392.800 250.400 C 393.020 250.400,393.200 250.040,393.200 249.600 C 393.200 249.160,393.380 248.800,393.600 248.800 C 393.820 248.800,394.000 248.440,394.000 248.000 C 394.000 247.560,394.180 247.200,394.400 247.200 C 394.620 247.200,394.800 246.851,394.800 246.424 C 394.800 245.997,394.980 245.536,395.200 245.400 C 395.420 245.264,395.600 244.713,395.600 244.176 C 395.600 243.639,395.780 243.200,396.000 243.200 C 396.220 243.200,396.400 242.761,396.400 242.224 C 396.400 241.687,396.580 241.136,396.800 241.000 C 397.020 240.864,397.200 240.324,397.200 239.800 C 397.200 239.276,397.380 238.736,397.600 238.600 C 397.820 238.464,398.000 237.733,398.000 236.976 C 398.000 236.219,398.180 235.600,398.400 235.600 C 398.620 235.600,398.800 234.895,398.800 234.033 C 398.800 233.136,399.013 232.396,399.300 232.300 C 399.688 232.171,399.800 228.728,399.800 216.887 C 399.800 205.223,399.683 201.523,399.300 201.140 C 399.025 200.865,398.800 200.046,398.800 199.320 C 398.800 198.594,398.620 198.000,398.400 198.000 C 398.180 198.000,398.000 197.280,398.000 196.400 C 398.000 195.520,397.820 194.800,397.600 194.800 C 397.380 194.800,397.200 194.361,397.200 193.824 C 397.200 193.287,397.020 192.736,396.800 192.600 C 396.580 192.464,396.400 191.913,396.400 191.376 C 396.400 190.839,396.220 190.400,396.000 190.400 C 395.780 190.400,395.600 189.860,395.600 189.200 C 395.600 188.540,395.420 188.000,395.200 188.000 C 394.980 188.000,394.800 187.640,394.800 187.200 C 394.800 186.760,394.620 186.400,394.400 186.400 C 394.180 186.400,394.000 186.040,394.000 185.600 C 394.000 185.160,393.820 184.800,393.600 184.800 C 393.380 184.800,393.200 184.440,393.200 184.000 C 393.200 183.560,393.020 183.200,392.800 183.200 C 392.580 183.200,392.400 182.750,392.400 182.200 C 392.400 181.650,392.240 181.200,392.043 181.200 C 391.847 181.200,391.567 180.722,391.420 180.139 C 391.274 179.555,390.624 178.307,389.977 177.367 C 389.330 176.426,388.800 175.463,388.800 175.228 C 388.800 174.993,388.650 174.800,388.468 174.800 C 388.285 174.800,387.880 174.308,387.568 173.707 C 387.255 173.106,386.505 172.089,385.900 171.448 C 385.295 170.806,384.800 170.114,384.800 169.909 C 384.800 169.705,384.119 168.876,383.287 168.069 C 382.455 167.261,381.334 165.970,380.796 165.200 C 379.781 163.748,378.000 161.814,378.000 162.164 C 378.000 162.274,377.577 161.967,377.060 161.482 C 374.056 158.665,371.843 156.800,371.506 156.800 C 371.294 156.800,370.617 156.260,370.000 155.600 C 369.383 154.940,368.631 154.400,368.328 154.400 C 368.025 154.400,367.517 154.040,367.200 153.600 C 366.883 153.160,366.303 152.800,365.912 152.800 C 365.520 152.800,365.200 152.642,365.200 152.449 C 365.200 152.255,364.660 151.873,364.000 151.600 C 363.340 151.327,362.800 150.945,362.800 150.751 C 362.800 150.558,362.440 150.400,362.000 150.400 C 361.560 150.400,361.200 150.220,361.200 150.000 C 361.200 149.780,360.855 149.600,360.433 149.600 C 360.012 149.600,359.607 149.465,359.533 149.300 C 359.313 148.805,354.346 146.400,353.544 146.400 C 353.135 146.400,352.800 146.220,352.800 146.000 C 352.800 145.780,352.260 145.600,351.600 145.600 C 350.940 145.600,350.400 145.464,350.400 145.297 C 350.400 144.931,347.533 144.000,346.406 144.000 C 345.963 144.000,345.600 143.832,345.600 143.627 C 345.600 143.421,345.055 143.269,344.388 143.288 C 343.722 143.307,342.777 143.125,342.288 142.884 C 340.963 142.230,335.625 141.542,330.128 141.318 L 325.257 141.119 324.993 139.560 C 324.848 138.702,324.566 138.000,324.365 138.000 C 324.164 138.000,324.000 137.640,324.000 137.200 C 324.000 136.760,323.820 136.400,323.600 136.400 C 323.380 136.400,323.200 136.040,323.200 135.600 C 323.200 135.160,323.020 134.800,322.800 134.800 C 322.580 134.800,322.400 134.440,322.400 134.000 C 322.400 133.560,322.220 133.200,322.000 133.200 C 321.780 133.200,321.600 132.928,321.600 132.595 C 321.600 132.039,320.877 130.476,320.399 130.000 C 320.289 129.890,319.945 129.308,319.635 128.707 C 319.326 128.105,318.741 127.258,318.336 126.823 C 317.931 126.389,317.600 125.838,317.600 125.600 C 317.600 125.362,317.240 124.780,316.800 124.308 C 316.360 123.836,316.000 123.213,316.000 122.925 C 316.000 122.636,315.820 122.400,315.600 122.400 C 315.380 122.400,315.200 122.157,315.200 121.859 C 315.200 121.562,314.660 120.754,314.000 120.063 C 313.340 119.372,312.800 118.626,312.800 118.404 C 312.800 118.182,312.620 118.000,312.400 118.000 C 312.180 118.000,312.000 117.770,312.000 117.488 C 312.000 117.207,311.640 116.717,311.200 116.400 C 310.760 116.083,310.400 115.612,310.400 115.354 C 310.400 115.096,309.213 113.608,307.762 112.048 C 306.311 110.488,304.736 108.714,304.263 108.106 C 302.926 106.391,300.064 103.600,299.641 103.600 C 299.432 103.600,297.986 102.340,296.428 100.800 C 294.869 99.260,293.398 98.000,293.158 98.000 C 292.917 98.000,292.217 97.460,291.600 96.800 C 290.983 96.140,290.281 95.600,290.040 95.600 C 289.798 95.600,289.600 95.459,289.600 95.286 C 289.600 94.924,287.320 93.509,287.018 93.683 C 286.906 93.747,286.532 93.395,286.185 92.900 C 285.838 92.405,285.205 92.000,284.777 92.000 C 284.350 92.000,284.000 91.820,284.000 91.600 C 284.000 91.380,283.764 91.200,283.475 91.200 C 283.187 91.200,282.564 90.840,282.092 90.400 C 281.620 89.960,280.956 89.600,280.617 89.600 C 280.278 89.600,280.000 89.420,280.000 89.200 C 280.000 88.980,279.680 88.800,279.288 88.800 C 278.897 88.800,278.317 88.440,278.000 88.000 C 277.683 87.560,277.103 87.200,276.712 87.200 C 276.320 87.200,276.000 87.020,276.000 86.800 C 276.000 86.580,275.640 86.400,275.200 86.400 C 274.760 86.400,274.400 86.220,274.400 86.000 C 274.400 85.780,274.040 85.600,273.600 85.600 C 273.160 85.600,272.800 85.420,272.800 85.200 C 272.800 84.980,272.350 84.800,271.800 84.800 C 271.250 84.800,270.800 84.620,270.800 84.400 C 270.800 84.180,270.440 84.000,270.000 84.000 C 269.560 84.000,269.200 83.820,269.200 83.600 C 269.200 83.380,268.840 83.200,268.400 83.200 C 267.960 83.200,267.600 83.020,267.600 82.800 C 267.600 82.580,267.251 82.400,266.824 82.400 C 266.397 82.400,265.936 82.220,265.800 82.000 C 265.664 81.780,265.113 81.600,264.576 81.600 C 264.039 81.600,263.600 81.420,263.600 81.200 C 263.600 80.980,263.060 80.800,262.400 80.800 C 261.740 80.800,261.200 80.620,261.200 80.400 C 261.200 80.180,260.660 80.000,260.000 80.000 C 259.340 80.000,258.800 79.820,258.800 79.600 C 258.800 79.380,258.361 79.200,257.824 79.200 C 257.287 79.200,256.736 79.020,256.600 78.800 C 256.464 78.580,255.733 78.400,254.976 78.400 C 254.219 78.400,253.600 78.220,253.600 78.000 C 253.600 77.780,252.981 77.600,252.224 77.600 C 251.467 77.600,250.734 77.417,250.596 77.193 C 250.458 76.970,250.185 76.886,249.990 77.006 C 249.795 77.127,249.009 76.964,248.244 76.644 C 247.479 76.325,246.526 76.112,246.127 76.171 C 245.727 76.231,244.410 76.050,243.200 75.770 C 241.990 75.490,240.405 75.303,239.677 75.355 C 238.949 75.407,238.264 75.303,238.153 75.125 C 237.869 74.664,212.502 74.712,212.216 75.174 " stroke="none" fill="#64b4f4" fill-rule="evenodd"></path><path id="path1" d="M143.916 108.617 C 143.797 108.736,142.822 108.882,141.750 108.940 C 140.677 108.998,139.439 109.243,138.998 109.485 C 138.557 109.726,137.519 109.878,136.692 109.823 C 135.865 109.767,135.286 109.820,135.406 109.939 C 135.701 110.234,132.133 111.218,130.400 111.319 C 129.630 111.363,128.900 111.534,128.778 111.698 C 128.655 111.862,128.025 112.034,127.378 112.081 C 126.730 112.128,126.102 112.304,125.983 112.473 C 125.863 112.642,125.373 112.840,124.893 112.913 C 124.413 112.986,123.896 113.171,123.744 113.323 C 123.591 113.475,123.137 113.600,122.733 113.600 C 122.330 113.600,122.000 113.780,122.000 114.000 C 122.000 114.220,121.578 114.400,121.061 114.400 C 120.545 114.400,119.558 114.682,118.867 115.027 C 118.176 115.371,117.400 115.524,117.143 115.365 C 116.869 115.196,116.783 115.249,116.935 115.495 C 117.087 115.741,116.443 116.135,115.370 116.452 C 114.367 116.748,113.198 117.315,112.773 117.711 C 112.265 118.184,112.000 118.258,112.000 117.927 C 112.000 117.649,111.720 117.822,111.377 118.311 C 111.008 118.838,110.336 119.200,109.724 119.200 C 109.158 119.200,108.371 119.572,107.977 120.026 C 107.583 120.481,107.112 120.846,106.930 120.837 C 106.353 120.810,104.400 121.783,104.400 122.098 C 104.400 122.264,104.040 122.400,103.600 122.400 C 103.160 122.400,102.800 122.580,102.800 122.800 C 102.800 123.020,102.564 123.200,102.275 123.200 C 101.987 123.200,101.364 123.560,100.892 124.000 C 100.420 124.440,99.766 124.800,99.439 124.800 C 99.113 124.800,98.580 125.180,98.255 125.643 C 97.930 126.107,97.470 126.367,97.232 126.220 C 96.994 126.073,96.800 126.143,96.800 126.376 C 96.800 126.609,96.500 126.800,96.133 126.800 C 95.767 126.800,95.572 126.905,95.700 127.034 C 96.040 127.373,94.723 128.799,94.307 128.543 C 94.114 128.423,93.536 128.815,93.022 129.414 C 92.432 130.101,91.901 130.386,91.582 130.189 C 91.253 129.986,91.176 130.038,91.362 130.338 C 91.519 130.592,91.502 130.800,91.324 130.801 C 91.146 130.801,90.370 131.341,89.600 132.000 C 88.830 132.659,87.964 133.199,87.676 133.199 C 87.388 133.200,87.264 133.380,87.400 133.600 C 87.536 133.820,87.337 134.000,86.957 134.000 C 86.577 134.000,86.369 134.102,86.493 134.227 C 86.731 134.464,86.272 134.944,80.663 140.317 C 78.758 142.141,77.200 143.806,77.200 144.017 C 77.200 144.228,76.941 144.400,76.624 144.400 C 76.307 144.400,75.919 144.608,75.762 144.862 C 75.574 145.166,75.669 145.224,76.038 145.031 C 76.347 144.871,76.195 145.097,75.700 145.534 C 75.205 145.971,74.800 146.509,74.800 146.730 C 74.800 146.951,74.260 147.642,73.600 148.265 C 72.940 148.888,72.400 149.541,72.400 149.716 C 72.400 149.891,71.737 150.752,70.926 151.628 C 70.116 152.504,69.196 153.749,68.883 154.396 C 68.570 155.042,67.807 156.102,67.188 156.750 C 66.568 157.398,66.142 158.009,66.240 158.107 C 66.339 158.206,66.145 158.514,65.810 158.792 C 65.474 159.070,65.200 159.518,65.200 159.787 C 65.200 160.056,64.839 160.603,64.398 161.002 C 63.956 161.402,63.679 161.812,63.782 161.915 C 64.066 162.199,62.834 164.400,62.390 164.400 C 62.175 164.400,62.000 164.647,62.000 164.949 C 62.000 165.830,60.399 169.200,59.981 169.200 C 59.772 169.200,59.600 169.449,59.600 169.754 C 59.600 170.059,59.331 170.824,59.002 171.454 C 58.674 172.084,58.404 172.915,58.402 173.300 C 58.401 173.685,58.220 174.000,58.000 174.000 C 57.780 174.000,57.594 174.495,57.587 175.100 C 57.580 175.705,57.316 176.542,57.000 176.959 C 56.684 177.376,56.513 177.859,56.619 178.031 C 56.726 178.204,56.630 178.458,56.407 178.596 C 56.183 178.734,56.000 179.287,56.000 179.824 C 56.000 180.361,55.820 180.800,55.600 180.800 C 55.380 180.800,55.200 181.149,55.200 181.576 C 55.200 182.003,55.020 182.464,54.800 182.600 C 54.580 182.736,54.400 183.276,54.400 183.800 C 54.400 184.324,54.220 184.864,54.000 185.000 C 53.780 185.136,53.600 185.856,53.600 186.600 C 53.600 187.344,53.420 188.064,53.200 188.200 C 52.980 188.336,52.800 189.056,52.800 189.800 C 52.800 190.544,52.620 191.264,52.400 191.400 C 52.180 191.536,52.000 192.166,52.000 192.800 C 52.000 193.434,51.820 194.064,51.600 194.200 C 51.380 194.336,51.200 195.307,51.200 196.357 C 51.200 197.407,51.065 198.402,50.900 198.567 C 50.523 198.944,50.511 199.044,50.450 202.224 C 50.416 203.992,50.259 204.760,49.967 204.580 C 49.709 204.420,49.567 204.612,49.614 205.056 C 49.844 207.239,49.585 208.400,48.867 208.400 C 48.463 208.400,48.010 208.524,47.858 208.675 C 47.707 208.826,46.912 208.963,46.092 208.980 C 45.271 208.996,44.420 209.124,44.200 209.265 C 43.980 209.405,43.260 209.583,42.600 209.660 C 41.940 209.737,41.152 210.035,40.848 210.323 C 40.545 210.611,40.019 210.740,39.680 210.609 C 39.341 210.479,38.938 210.577,38.784 210.826 C 38.630 211.074,38.046 211.306,37.486 211.339 C 36.925 211.373,36.497 211.580,36.534 211.800 C 36.570 212.020,36.195 212.144,35.700 212.075 C 35.205 212.006,34.800 212.141,34.800 212.375 C 34.800 212.609,34.339 212.800,33.776 212.800 C 33.213 212.800,32.851 212.960,32.972 213.155 C 33.168 213.472,31.910 214.027,31.363 213.865 C 31.242 213.829,30.967 214.115,30.752 214.500 C 30.537 214.885,30.009 215.200,29.580 215.200 C 29.151 215.200,28.800 215.341,28.800 215.512 C 28.800 215.884,26.373 216.941,25.800 216.819 C 25.580 216.772,25.532 216.866,25.694 217.027 C 26.036 217.370,24.845 218.369,24.071 218.387 C 23.397 218.404,22.359 219.426,22.686 219.752 C 22.822 219.889,22.768 220.000,22.567 220.000 C 22.365 220.001,21.682 220.447,21.048 220.992 C 20.414 221.537,19.766 221.903,19.608 221.805 C 19.450 221.707,19.085 222.068,18.796 222.607 C 18.508 223.146,17.938 223.693,17.530 223.822 C 17.122 223.952,16.892 224.225,17.018 224.429 C 17.144 224.633,17.079 224.800,16.874 224.800 C 16.330 224.800,13.554 227.421,13.818 227.685 C 13.941 227.808,13.589 228.265,13.035 228.701 C 12.481 229.137,12.127 229.593,12.248 229.715 C 12.370 229.837,11.995 230.247,11.415 230.627 C 10.827 231.012,10.452 231.558,10.567 231.859 C 10.688 232.173,10.510 232.400,10.145 232.400 C 9.713 232.400,9.598 232.617,9.778 233.088 C 9.924 233.466,9.917 233.650,9.763 233.497 C 9.498 233.232,7.420 236.614,6.935 238.100 C 6.809 238.485,6.548 238.800,6.353 238.800 C 6.159 238.800,6.000 239.160,6.000 239.600 C 6.000 240.040,5.820 240.400,5.600 240.400 C 5.380 240.400,5.200 240.760,5.200 241.200 C 5.200 241.640,5.020 242.000,4.800 242.000 C 4.580 242.000,4.394 242.315,4.387 242.700 C 4.380 243.085,4.116 243.742,3.800 244.159 C 3.484 244.576,3.313 245.059,3.419 245.231 C 3.526 245.404,3.430 245.658,3.207 245.796 C 2.983 245.934,2.800 246.407,2.800 246.847 C 2.800 247.292,2.618 247.535,2.390 247.394 C 2.165 247.255,2.006 247.289,2.037 247.470 C 2.232 248.593,1.941 250.411,1.600 250.200 C 1.362 250.053,1.200 250.529,1.200 251.376 C 1.200 252.159,1.054 252.800,0.875 252.800 C 0.019 252.800,-0.150 278.811,0.700 279.660 C 0.975 279.935,1.200 280.844,1.200 281.680 C 1.200 282.516,1.380 283.200,1.600 283.200 C 1.820 283.200,2.000 283.661,2.000 284.225 C 2.000 285.150,3.102 287.844,5.236 292.138 C 5.656 292.984,6.000 293.929,6.000 294.238 C 6.000 294.547,6.180 294.800,6.400 294.800 C 6.620 294.800,6.800 295.160,6.800 295.600 C 6.800 296.040,6.960 296.400,7.156 296.400 C 7.352 296.400,7.893 297.210,8.358 298.200 C 8.823 299.190,9.383 300.000,9.602 300.000 C 9.821 300.000,10.000 300.188,10.000 300.417 C 10.000 300.646,10.354 301.213,10.786 301.677 C 11.219 302.141,11.490 302.655,11.388 302.819 C 11.287 302.982,11.485 303.224,11.828 303.355 C 12.170 303.487,12.339 303.776,12.202 303.997 C 12.065 304.219,12.233 304.400,12.576 304.400 C 12.919 304.400,13.200 304.561,13.200 304.758 C 13.200 305.322,15.466 307.600,15.747 307.319 C 15.886 307.180,16.000 307.397,16.000 307.800 C 16.000 308.203,16.105 308.429,16.232 308.301 C 16.360 308.173,17.546 309.133,18.867 310.434 C 20.189 311.735,21.436 312.800,21.639 312.800 C 21.841 312.800,22.572 313.340,23.263 314.000 C 23.954 314.660,24.719 315.200,24.963 315.200 C 25.208 315.200,25.632 315.560,25.907 316.000 C 26.182 316.440,26.699 316.800,27.056 316.800 C 27.414 316.800,28.029 317.172,28.423 317.626 C 28.817 318.081,29.243 318.441,29.370 318.426 C 30.164 318.336,30.417 318.449,30.200 318.800 C 30.062 319.024,30.371 319.200,30.901 319.200 C 31.422 319.200,32.236 319.560,32.708 320.000 C 33.180 320.440,33.988 320.800,34.503 320.800 C 35.018 320.800,35.611 320.958,35.820 321.151 C 36.029 321.343,37.280 321.890,38.600 322.364 C 39.920 322.839,41.270 323.339,41.600 323.476 C 41.930 323.613,42.740 323.753,43.400 323.789 C 44.060 323.824,44.960 324.031,45.400 324.248 C 45.840 324.465,46.875 324.596,47.700 324.538 C 48.525 324.481,49.200 324.607,49.200 324.818 C 49.200 325.310,269.067 325.339,269.371 324.847 C 269.489 324.656,270.351 324.544,271.285 324.598 C 272.264 324.655,273.364 324.449,273.879 324.111 C 274.372 323.789,275.005 323.607,275.287 323.708 C 275.569 323.809,276.160 323.698,276.600 323.460 C 277.040 323.223,277.670 323.013,278.000 322.995 C 278.330 322.976,279.050 322.808,279.600 322.621 C 280.150 322.435,280.870 322.251,281.200 322.213 C 281.900 322.132,283.110 321.697,284.095 321.171 C 284.477 320.967,285.231 320.800,285.771 320.800 C 286.311 320.800,286.864 320.620,287.000 320.400 C 287.136 320.180,287.514 320.000,287.840 320.000 C 288.167 320.000,288.820 319.640,289.292 319.200 C 289.764 318.760,290.477 318.400,290.875 318.400 C 291.274 318.400,291.600 318.220,291.600 318.000 C 291.600 317.780,291.960 317.600,292.400 317.600 C 292.840 317.600,293.200 317.420,293.200 317.200 C 293.200 316.980,293.560 316.800,294.000 316.800 C 294.440 316.800,294.800 316.620,294.800 316.400 C 294.800 316.180,295.055 316.000,295.367 316.000 C 295.678 316.000,295.996 315.812,296.073 315.582 C 296.149 315.352,296.602 315.135,297.078 315.099 C 297.555 315.063,297.869 314.911,297.776 314.761 C 297.683 314.611,298.211 314.201,298.948 313.851 C 299.686 313.501,300.517 312.941,300.794 312.607 C 301.071 312.273,301.454 312.000,301.644 312.000 C 301.973 312.000,303.061 311.196,304.216 310.100 C 304.506 309.825,305.036 309.600,305.395 309.600 C 305.754 309.600,305.957 309.455,305.848 309.277 C 305.738 309.099,306.121 308.604,306.700 308.177 C 307.278 307.750,308.218 306.950,308.787 306.400 C 309.357 305.850,309.953 305.355,310.111 305.300 C 310.270 305.245,310.391 305.097,310.379 304.971 C 310.368 304.846,311.088 304.215,311.979 303.569 C 312.871 302.923,313.600 302.204,313.600 301.972 C 313.600 301.739,314.500 300.671,315.600 299.600 C 316.700 298.529,317.600 297.360,317.600 297.002 C 317.600 296.645,317.780 296.464,318.000 296.600 C 318.220 296.736,318.400 296.567,318.400 296.224 C 318.400 295.881,318.535 295.594,318.700 295.587 C 319.376 295.559,320.525 293.393,320.604 291.999 C 320.655 291.087,321.176 289.797,321.944 288.681 C 322.635 287.677,323.204 286.708,323.209 286.528 C 323.214 286.348,323.570 285.750,324.000 285.200 C 324.430 284.650,324.786 283.885,324.791 283.500 C 324.796 283.115,324.980 282.800,325.200 282.800 C 325.420 282.800,325.600 282.440,325.600 282.000 C 325.600 281.560,325.780 281.200,326.000 281.200 C 326.220 281.200,326.400 280.840,326.400 280.400 C 326.400 279.960,326.580 279.600,326.800 279.600 C 327.020 279.600,327.200 279.238,327.200 278.795 C 327.200 278.352,327.359 277.677,327.553 277.295 C 328.539 275.357,329.309 273.045,330.582 268.200 C 333.126 258.517,333.231 241.185,330.798 232.600 C 329.636 228.499,328.651 225.267,328.299 224.400 C 328.076 223.850,327.716 222.950,327.500 222.400 C 327.284 221.850,326.948 221.087,326.753 220.705 C 326.559 220.323,326.400 219.738,326.400 219.405 C 326.400 219.072,326.220 218.800,326.000 218.800 C 325.780 218.800,325.600 218.440,325.600 218.000 C 325.600 217.560,325.420 217.200,325.200 217.200 C 324.980 217.200,324.800 216.840,324.800 216.400 C 324.800 215.960,324.664 215.600,324.498 215.600 C 324.331 215.600,323.942 215.015,323.632 214.300 C 323.323 213.585,322.559 212.248,321.935 211.328 C 321.311 210.408,320.800 209.555,320.800 209.433 C 320.800 209.310,320.539 208.892,320.219 208.505 C 319.899 208.117,318.562 206.360,317.248 204.600 C 314.271 200.615,305.491 191.600,304.586 191.600 C 304.471 191.600,303.217 190.700,301.800 189.600 C 300.383 188.500,299.119 187.600,298.992 187.600 C 298.865 187.600,297.825 187.006,296.681 186.281 C 294.265 184.750,286.311 180.800,285.643 180.800 C 285.394 180.800,284.832 180.620,284.395 180.400 C 283.958 180.180,283.242 179.820,282.805 179.600 C 282.368 179.380,281.659 179.200,281.229 179.200 C 280.799 179.200,280.336 179.020,280.200 178.800 C 280.064 178.580,279.344 178.400,278.600 178.400 C 277.856 178.400,277.136 178.220,277.000 178.000 C 276.864 177.780,276.234 177.600,275.600 177.600 C 274.966 177.600,274.336 177.420,274.200 177.200 C 274.064 176.980,272.984 176.800,271.800 176.800 C 270.616 176.800,269.536 176.620,269.400 176.400 C 269.264 176.180,267.599 176.000,265.700 176.000 C 261.064 176.000,257.600 175.282,257.600 174.320 C 257.600 173.924,257.420 173.600,257.200 173.600 C 256.980 173.600,256.800 173.240,256.800 172.800 C 256.800 172.360,256.620 172.000,256.400 172.000 C 256.180 172.000,256.000 171.640,256.000 171.200 C 256.000 170.760,255.820 170.400,255.600 170.400 C 255.380 170.400,255.200 170.040,255.200 169.600 C 255.200 169.160,255.020 168.800,254.800 168.800 C 254.580 168.800,254.400 168.535,254.400 168.212 C 254.400 167.889,254.040 166.989,253.600 166.212 C 250.402 160.566,249.577 159.219,247.232 155.800 C 246.024 154.040,244.809 152.368,244.532 152.085 C 244.255 151.802,243.713 151.037,243.328 150.385 C 242.943 149.733,242.486 149.200,242.314 149.200 C 242.141 149.200,242.000 149.024,242.000 148.808 C 242.000 147.704,227.899 133.731,225.140 132.101 C 224.513 131.731,224.000 131.286,224.000 131.114 C 224.000 130.941,223.822 130.800,223.605 130.800 C 223.387 130.800,222.892 130.540,222.505 130.222 C 220.331 128.440,216.829 126.000,216.445 126.000 C 216.200 126.000,216.000 125.820,216.000 125.600 C 216.000 125.380,215.838 125.200,215.641 125.200 C 215.443 125.200,214.097 124.480,212.648 123.600 C 211.200 122.720,209.831 122.000,209.607 122.000 C 209.383 122.000,209.200 121.820,209.200 121.600 C 209.200 121.380,209.008 121.200,208.774 121.200 C 208.364 121.200,206.491 120.387,201.400 117.997 C 200.080 117.378,198.280 116.637,197.400 116.352 C 196.520 116.067,195.620 115.723,195.400 115.589 C 195.180 115.454,194.190 115.100,193.200 114.802 C 192.210 114.505,191.229 114.112,191.020 113.930 C 190.811 113.749,190.147 113.600,189.544 113.600 C 188.941 113.600,188.348 113.440,188.227 113.244 C 188.106 113.049,187.376 112.779,186.604 112.644 C 185.832 112.510,184.568 112.290,183.796 112.156 C 183.024 112.021,182.294 111.751,182.173 111.556 C 182.052 111.360,181.279 111.200,180.456 111.200 C 179.633 111.200,178.789 111.035,178.580 110.834 C 178.371 110.632,177.120 110.368,175.800 110.247 C 174.480 110.125,171.510 109.812,169.200 109.552 C 164.212 108.989,152.503 108.885,148.709 109.370 C 146.381 109.668,145.985 109.625,145.767 109.057 C 145.526 108.431,144.376 108.157,143.916 108.617 " stroke="none" fill="#bcdcfc" fill-rule="evenodd"></path><path id="path2" d="M146.000 108.869 C 146.000 109.051,146.540 109.200,147.200 109.200 C 147.860 109.200,148.400 109.130,148.400 109.045 C 148.400 108.960,147.860 108.812,147.200 108.715 C 146.540 108.618,146.000 108.687,146.000 108.869 M155.300 108.697 C 157.005 108.772,159.795 108.772,161.500 108.697 C 163.205 108.622,161.810 108.561,158.400 108.561 C 154.990 108.561,153.595 108.622,155.300 108.697 M170.900 109.476 C 171.285 109.576,171.915 109.576,172.300 109.476 C 172.685 109.375,172.370 109.293,171.600 109.293 C 170.830 109.293,170.515 109.375,170.900 109.476 M176.100 110.276 C 176.485 110.376,177.115 110.376,177.500 110.276 C 177.885 110.175,177.570 110.093,176.800 110.093 C 176.030 110.093,175.715 110.175,176.100 110.276 M220.144 127.909 C 220.460 128.421,222.800 130.153,222.800 129.875 C 222.800 129.776,222.139 129.191,221.332 128.575 C 220.524 127.959,219.989 127.659,220.144 127.909 M226.000 132.125 C 226.000 132.194,226.585 132.779,227.300 133.425 L 228.600 134.600 227.425 133.300 C 226.330 132.088,226.000 131.816,226.000 132.125 M229.600 135.325 C 229.600 135.394,230.185 135.979,230.900 136.625 L 232.200 137.800 231.025 136.500 C 229.930 135.288,229.600 135.016,229.600 135.325 M234.400 139.800 C 235.146 140.570,235.847 141.200,235.957 141.200 C 236.067 141.200,235.546 140.570,234.800 139.800 C 234.054 139.030,233.353 138.400,233.243 138.400 C 233.133 138.400,233.654 139.030,234.400 139.800 M238.400 144.200 C 239.146 144.970,239.847 145.600,239.957 145.600 C 240.067 145.600,239.546 144.970,238.800 144.200 C 238.054 143.430,237.353 142.800,237.243 142.800 C 237.133 142.800,237.654 143.430,238.400 144.200 M252.200 163.200 C 252.541 163.860,252.911 164.400,253.021 164.400 C 253.131 164.400,252.941 163.860,252.600 163.200 C 252.259 162.540,251.889 162.000,251.779 162.000 C 251.669 162.000,251.859 162.540,252.200 163.200 M263.500 175.482 C 263.995 175.578,264.805 175.578,265.300 175.482 C 265.795 175.387,265.390 175.309,264.400 175.309 C 263.410 175.309,263.005 175.387,263.500 175.482 M293.200 183.779 C 293.200 183.889,293.740 184.259,294.400 184.600 C 295.060 184.941,295.600 185.131,295.600 185.021 C 295.600 184.911,295.060 184.541,294.400 184.200 C 293.740 183.859,293.200 183.669,293.200 183.779 M297.200 186.179 C 297.200 186.289,297.740 186.659,298.400 187.000 C 299.060 187.341,299.600 187.531,299.600 187.421 C 299.600 187.311,299.060 186.941,298.400 186.600 C 297.740 186.259,297.200 186.069,297.200 186.179 M308.000 194.200 C 308.746 194.970,309.447 195.600,309.557 195.600 C 309.667 195.600,309.146 194.970,308.400 194.200 C 307.654 193.430,306.953 192.800,306.843 192.800 C 306.733 192.800,307.254 193.430,308.000 194.200 M313.800 200.000 C 314.659 200.880,315.452 201.600,315.562 201.600 C 315.672 201.600,315.059 200.880,314.200 200.000 C 313.341 199.120,312.548 198.400,312.438 198.400 C 312.328 198.400,312.941 199.120,313.800 200.000 M331.256 233.600 C 331.256 233.930,331.411 234.560,331.600 235.000 C 331.817 235.504,331.944 235.578,331.944 235.200 C 331.944 234.870,331.789 234.240,331.600 233.800 C 331.383 233.296,331.256 233.222,331.256 233.600 M332.080 238.200 C 332.080 238.640,332.224 239.450,332.400 240.000 C 332.654 240.792,332.720 240.833,332.720 240.200 C 332.720 239.760,332.576 238.950,332.400 238.400 C 332.146 237.608,332.080 237.567,332.080 238.200 M332.928 245.600 C 332.928 247.030,333.001 247.615,333.089 246.900 C 333.178 246.185,333.178 245.015,333.089 244.300 C 333.001 243.585,332.928 244.170,332.928 245.600 M332.928 254.400 C 332.928 255.830,333.001 256.415,333.089 255.700 C 333.178 254.985,333.178 253.815,333.089 253.100 C 333.001 252.385,332.928 252.970,332.928 254.400 M332.200 260.800 C 332.048 261.491,332.007 262.141,332.109 262.242 C 332.211 262.344,332.409 261.853,332.550 261.150 C 332.691 260.447,332.731 259.798,332.641 259.708 C 332.550 259.617,332.352 260.109,332.200 260.800 M331.429 265.429 C 331.281 266.015,331.238 266.572,331.332 266.666 C 331.427 266.760,331.624 266.358,331.771 265.771 C 331.919 265.185,331.962 264.628,331.868 264.534 C 331.773 264.440,331.576 264.842,331.429 265.429 " stroke="none" fill="#96cefc" fill-rule="evenodd"></path><path id="path3" d="M145.761 108.890 C 145.894 109.562,148.195 109.736,150.200 109.225 C 151.582 108.874,151.410 108.847,148.940 109.029 C 147.094 109.166,146.006 109.088,145.870 108.810 C 145.755 108.574,145.705 108.610,145.761 108.890 M165.600 109.200 C 166.150 109.376,167.500 109.517,168.600 109.514 L 170.600 109.508 169.000 109.177 C 166.801 108.722,164.164 108.740,165.600 109.200 M173.200 110.000 C 173.530 110.213,174.250 110.373,174.800 110.354 L 175.800 110.320 174.800 110.000 C 173.258 109.506,172.436 109.506,173.200 110.000 M178.590 110.784 C 178.732 111.013,179.317 111.200,179.890 111.200 C 181.144 111.200,180.999 111.008,179.466 110.640 C 178.723 110.462,178.421 110.511,178.590 110.784 M185.200 112.382 C 185.530 112.605,186.145 112.791,186.567 112.794 C 187.590 112.802,187.271 112.573,185.800 112.244 C 184.924 112.048,184.762 112.085,185.200 112.382 M188.200 113.200 C 188.336 113.420,188.842 113.587,189.324 113.572 C 190.169 113.545,190.171 113.531,189.400 113.200 C 188.299 112.727,187.908 112.727,188.200 113.200 M199.600 116.965 C 199.600 117.081,200.545 117.609,201.700 118.138 C 207.092 120.607,207.819 120.943,208.100 121.090 C 208.265 121.176,208.400 121.152,208.400 121.035 C 208.400 120.919,207.455 120.391,206.300 119.862 C 200.908 117.393,200.181 117.057,199.900 116.910 C 199.735 116.824,199.600 116.848,199.600 116.965 M218.540 127.103 C 218.696 127.356,219.391 127.967,220.084 128.460 C 220.777 128.954,221.217 129.150,221.060 128.897 C 220.904 128.644,220.209 128.033,219.516 127.540 C 218.823 127.046,218.383 126.850,218.540 127.103 M224.033 131.330 C 224.125 131.401,224.830 131.866,225.600 132.363 L 227.000 133.266 225.800 132.235 C 225.140 131.668,224.435 131.203,224.233 131.202 C 224.032 131.201,223.942 131.258,224.033 131.330 M232.188 138.224 C 234.058 139.887,235.725 141.487,235.894 141.780 C 236.445 142.736,240.846 147.288,241.036 147.098 C 241.298 146.836,229.742 135.200,229.220 135.200 C 228.983 135.200,230.319 136.561,232.188 138.224 M247.892 156.770 C 248.938 158.293,249.844 159.489,249.905 159.429 C 250.095 159.238,246.617 154.014,246.295 154.007 C 246.127 154.003,246.845 155.246,247.892 156.770 M250.349 160.600 C 250.565 161.040,251.034 161.760,251.393 162.200 L 252.044 163.000 251.651 162.200 C 251.435 161.760,250.966 161.040,250.607 160.600 L 249.956 159.800 250.349 160.600 M252.015 163.400 C 252.017 163.620,252.386 164.250,252.836 164.800 C 253.379 165.464,253.515 165.531,253.240 165.000 C 252.566 163.695,252.012 162.972,252.015 163.400 M260.400 175.577 C 261.370 175.910,267.102 176.154,266.767 175.848 C 266.675 175.765,264.980 175.592,263.000 175.466 C 260.795 175.324,259.788 175.368,260.400 175.577 M269.390 176.384 C 269.532 176.613,270.117 176.800,270.690 176.800 C 271.944 176.800,271.799 176.608,270.266 176.240 C 269.523 176.062,269.221 176.111,269.390 176.384 M277.000 178.000 C 277.136 178.220,277.642 178.387,278.124 178.372 C 278.969 178.345,278.971 178.331,278.200 178.000 C 277.099 177.527,276.708 177.527,277.000 178.000 M291.600 183.383 C 291.600 183.563,294.002 184.800,294.350 184.800 C 294.697 184.800,293.094 183.767,292.300 183.479 C 291.915 183.339,291.600 183.296,291.600 183.383 M295.400 185.407 C 295.840 185.766,296.560 186.235,297.000 186.451 L 297.800 186.844 297.000 186.193 C 296.560 185.834,295.840 185.365,295.400 185.149 L 294.600 184.756 295.400 185.407 M299.740 187.903 C 299.896 188.156,300.591 188.767,301.284 189.260 C 301.977 189.754,302.417 189.950,302.260 189.697 C 302.104 189.444,301.409 188.833,300.716 188.340 C 300.023 187.846,299.583 187.650,299.740 187.903 M303.489 190.830 C 303.978 191.339,304.478 191.655,304.601 191.532 C 304.724 191.409,304.324 190.992,303.712 190.606 L 302.600 189.904 303.489 190.830 M306.000 192.768 C 306.000 193.005,306.135 193.203,306.300 193.207 C 306.465 193.211,307.847 194.379,309.371 195.803 C 310.896 197.226,312.203 198.330,312.276 198.257 C 312.350 198.183,310.968 196.821,309.205 195.229 C 307.442 193.637,306.000 192.530,306.000 192.768 M314.033 200.603 C 315.780 202.506,319.210 206.974,319.979 208.348 C 320.178 208.703,320.423 208.905,320.523 208.797 C 320.808 208.491,315.469 201.567,313.743 200.003 C 312.391 198.779,312.427 198.853,314.033 200.603 M320.815 209.400 C 320.817 209.620,321.186 210.250,321.636 210.800 C 322.179 211.464,322.315 211.531,322.040 211.000 C 321.366 209.695,320.812 208.972,320.815 209.400 M323.366 213.700 C 323.495 213.975,323.711 214.515,323.846 214.900 C 323.982 215.285,324.257 215.600,324.457 215.600 C 324.657 215.600,324.541 215.060,324.200 214.400 C 323.611 213.262,322.873 212.642,323.366 213.700 M328.812 226.000 C 328.812 226.330,328.987 226.870,329.200 227.200 C 329.545 227.733,329.588 227.733,329.588 227.200 C 329.588 226.870,329.413 226.330,329.200 226.000 C 328.855 225.467,328.812 225.467,328.812 226.000 M330.412 231.600 C 330.412 231.930,330.587 232.470,330.800 232.800 C 331.145 233.333,331.188 233.333,331.188 232.800 C 331.188 232.470,331.013 231.930,330.800 231.600 C 330.455 231.067,330.412 231.067,330.412 231.600 M331.482 236.200 C 331.609 237.300,331.777 238.275,331.856 238.367 C 332.155 238.714,331.928 235.764,331.597 235.000 C 331.374 234.485,331.333 234.913,331.482 236.200 M332.312 242.600 C 332.419 244.580,332.572 246.275,332.653 246.367 C 332.929 246.680,332.721 241.003,332.420 240.000 C 332.254 239.450,332.206 240.620,332.312 242.600 M332.920 250.000 C 332.920 251.210,332.995 251.705,333.087 251.100 C 333.178 250.495,333.178 249.505,333.087 248.900 C 332.995 248.295,332.920 248.790,332.920 250.000 M332.474 256.200 C 332.427 257.740,332.296 259.450,332.183 260.000 L 331.977 261.000 332.405 260.022 C 332.640 259.484,332.770 257.774,332.695 256.222 L 332.559 253.400 332.474 256.200 M331.659 262.600 C 331.620 263.260,331.496 264.250,331.383 264.800 L 331.177 265.800 331.608 264.814 C 331.844 264.272,331.968 263.282,331.883 262.614 L 331.728 261.400 331.659 262.600 M329.800 270.800 C 329.650 271.273,329.617 271.750,329.727 271.860 C 329.837 271.970,330.050 271.673,330.200 271.200 C 330.350 270.727,330.383 270.250,330.273 270.140 C 330.163 270.030,329.950 270.327,329.800 270.800 M323.814 285.435 C 323.441 286.004,323.227 286.561,323.339 286.672 C 323.450 286.783,323.829 286.318,324.181 285.637 C 324.959 284.133,324.744 284.015,323.814 285.435 M321.414 289.435 C 321.041 290.004,320.805 290.538,320.889 290.622 C 320.973 290.707,321.358 290.241,321.744 289.588 C 322.606 288.128,322.348 288.009,321.414 289.435 " stroke="none" fill="#a8d4fc" fill-rule="evenodd"></path><path id="path4" d="M157.705 108.287 C 158.314 108.379,159.214 108.377,159.705 108.282 C 160.197 108.187,159.700 108.111,158.600 108.114 C 157.500 108.117,157.097 108.195,157.705 108.287 M147.911 108.693 C 148.851 108.778,150.291 108.777,151.111 108.691 C 151.930 108.605,151.160 108.536,149.400 108.537 C 147.640 108.539,146.970 108.609,147.911 108.693 M164.433 108.547 C 164.525 108.628,166.201 108.790,168.158 108.907 C 170.284 109.033,171.491 108.977,171.158 108.765 C 170.639 108.437,164.067 108.223,164.433 108.547 M172.833 109.349 C 172.925 109.431,173.900 109.607,175.000 109.741 C 176.346 109.905,176.739 109.865,176.200 109.620 C 175.439 109.274,172.483 109.036,172.833 109.349 M178.033 110.143 C 178.125 110.222,178.920 110.397,179.800 110.532 C 180.890 110.699,181.209 110.655,180.800 110.395 C 180.253 110.046,177.645 109.809,178.033 110.143 M182.600 111.200 C 183.796 111.714,184.795 111.714,184.000 111.200 C 183.670 110.987,183.040 110.822,182.600 110.834 L 181.800 110.856 182.600 111.200 M185.800 112.000 C 186.996 112.514,187.995 112.514,187.200 112.000 C 186.870 111.787,186.240 111.622,185.800 111.634 L 185.000 111.656 185.800 112.000 M189.000 112.800 C 190.196 113.314,191.195 113.314,190.400 112.800 C 190.070 112.587,189.440 112.422,189.000 112.434 L 188.200 112.456 189.000 112.800 M193.600 114.400 C 193.930 114.613,194.470 114.788,194.800 114.788 C 195.333 114.788,195.333 114.745,194.800 114.400 C 194.470 114.187,193.930 114.012,193.600 114.012 C 193.067 114.012,193.067 114.055,193.600 114.400 M198.000 116.000 C 198.330 116.213,198.870 116.388,199.200 116.388 C 199.733 116.388,199.733 116.345,199.200 116.000 C 198.870 115.787,198.330 115.612,198.000 115.612 C 197.467 115.612,197.467 115.655,198.000 116.000 M200.000 116.571 C 200.000 116.771,204.378 118.809,204.748 118.781 C 205.064 118.757,200.709 116.445,200.300 116.419 C 200.135 116.408,200.000 116.477,200.000 116.571 M205.200 119.001 C 205.200 119.097,206.154 119.613,207.321 120.147 C 209.851 121.304,217.018 125.532,219.742 127.474 C 220.810 128.236,221.562 128.663,221.414 128.423 C 221.115 127.939,215.385 124.000,214.980 124.000 C 214.839 124.000,214.246 123.662,213.662 123.249 C 211.593 121.784,205.200 118.575,205.200 119.001 M222.124 129.077 C 222.485 129.661,226.000 132.067,225.993 131.725 C 225.989 131.546,225.069 130.801,223.950 130.068 C 222.830 129.336,222.008 128.890,222.124 129.077 M228.016 133.635 C 229.745 135.316,231.947 137.294,234.618 139.565 C 236.198 140.908,232.768 137.539,230.175 135.200 C 227.246 132.559,225.917 131.596,228.016 133.635 M238.257 143.700 C 242.165 147.790,246.685 153.674,249.706 158.600 C 251.336 161.259,253.094 163.693,252.306 162.200 C 249.378 156.652,238.247 142.000,236.960 142.000 C 236.780 142.000,237.364 142.765,238.257 143.700 M252.986 163.900 C 253.335 164.615,253.706 165.200,253.810 165.200 C 254.208 165.200,253.952 164.563,253.167 163.600 L 252.352 162.600 252.986 163.900 M254.834 167.400 C 254.834 167.620,255.178 168.430,255.600 169.200 C 256.022 169.970,256.366 170.420,256.366 170.200 C 256.366 169.980,256.022 169.170,255.600 168.400 C 255.178 167.630,254.834 167.180,254.834 167.400 M258.000 174.312 C 258.000 174.940,259.042 175.124,263.737 175.324 C 265.982 175.420,267.443 175.346,267.137 175.152 C 266.841 174.965,264.881 174.809,262.780 174.806 C 260.350 174.802,258.785 174.625,258.480 174.320 C 258.115 173.955,258.000 173.953,258.000 174.312 M268.833 175.749 C 268.925 175.831,269.900 176.007,271.000 176.141 C 272.346 176.305,272.739 176.265,272.200 176.020 C 271.439 175.674,268.483 175.436,268.833 175.749 M273.633 176.544 C 274.105 176.950,276.043 177.193,275.810 176.816 C 275.668 176.587,275.083 176.400,274.510 176.400 C 273.936 176.400,273.542 176.465,273.633 176.544 M277.800 177.600 C 278.901 178.073,279.292 178.073,279.000 177.600 C 278.864 177.380,278.358 177.213,277.876 177.228 C 277.031 177.255,277.029 177.269,277.800 177.600 M282.800 179.200 C 283.130 179.413,283.670 179.588,284.000 179.588 C 284.533 179.588,284.533 179.545,284.000 179.200 C 283.670 178.987,283.130 178.812,282.800 178.812 C 282.267 178.812,282.267 178.855,282.800 179.200 M292.033 182.949 C 292.445 183.317,294.800 184.400,294.800 184.221 C 294.800 183.990,292.582 182.800,292.153 182.800 C 291.996 182.800,291.942 182.867,292.033 182.949 M295.200 184.573 C 295.200 184.677,296.325 185.416,297.700 186.215 C 299.075 187.014,301.235 188.475,302.500 189.461 C 303.765 190.446,304.793 191.106,304.785 190.927 C 304.754 190.283,295.200 183.950,295.200 184.573 M307.600 193.502 C 309.030 194.828,310.270 195.848,310.354 195.768 C 310.531 195.604,307.114 192.481,305.844 191.646 C 305.380 191.341,306.170 192.176,307.600 193.502 M312.400 197.806 C 312.400 198.024,314.131 200.070,317.813 204.200 C 318.848 205.361,318.845 205.346,317.732 203.745 C 316.484 201.948,312.400 197.400,312.400 197.806 M319.853 207.208 C 320.438 208.093,321.006 208.728,321.114 208.619 C 321.314 208.419,319.315 205.600,318.974 205.600 C 318.872 205.600,319.268 206.324,319.853 207.208 M321.837 210.200 C 322.197 210.750,322.557 211.200,322.637 211.200 C 322.717 211.200,322.578 210.750,322.327 210.200 C 322.077 209.650,321.716 209.200,321.527 209.200 C 321.337 209.200,321.476 209.650,321.837 210.200 M323.386 212.700 C 323.735 213.415,324.106 214.000,324.210 214.000 C 324.608 214.000,324.352 213.363,323.567 212.400 L 322.752 211.400 323.386 212.700 M327.513 221.019 C 327.884 222.020,328.239 222.682,328.303 222.491 C 328.431 222.106,327.293 219.200,327.014 219.200 C 326.917 219.200,327.142 220.019,327.513 221.019 M329.236 225.200 C 329.222 225.310,329.559 226.480,329.984 227.800 C 330.422 229.160,330.753 229.767,330.749 229.200 C 330.742 228.368,329.309 224.580,329.236 225.200 M331.232 231.954 C 331.215 232.258,331.368 233.158,331.574 233.954 C 332.213 236.427,332.852 240.823,333.210 245.200 L 333.553 249.400 333.383 244.858 C 333.290 242.359,333.013 239.209,332.767 237.858 C 332.215 234.819,331.276 231.206,331.232 231.954 M333.061 255.370 C 332.917 257.883,332.610 260.898,332.379 262.070 C 331.656 265.724,331.140 268.169,330.916 269.000 C 330.798 269.440,330.829 269.679,330.985 269.532 C 332.032 268.546,334.435 250.800,333.522 250.800 C 333.412 250.800,333.204 252.856,333.061 255.370 M330.446 270.651 C 330.421 271.119,330.119 272.174,329.777 272.994 C 329.434 273.815,329.249 274.583,329.367 274.700 C 329.485 274.818,329.692 274.574,329.828 274.157 C 329.964 273.741,330.254 272.919,330.473 272.332 C 330.692 271.744,330.786 270.934,330.682 270.532 C 330.522 269.912,330.486 269.930,330.446 270.651 M327.513 278.981 C 327.142 279.981,326.911 280.800,327.000 280.800 C 327.319 280.800,328.474 278.022,328.332 277.596 C 328.252 277.357,327.884 277.980,327.513 278.981 M323.899 286.432 C 323.295 287.514,322.883 288.400,322.983 288.400 C 323.257 288.400,325.321 284.788,325.147 284.614 C 325.065 284.532,324.503 285.350,323.899 286.432 M321.814 289.835 C 321.441 290.404,321.227 290.961,321.339 291.072 C 321.450 291.183,321.829 290.718,322.181 290.037 C 322.959 288.533,322.744 288.415,321.814 289.835 " stroke="none" fill="#81c4fc" fill-rule="evenodd"></path></g></svg>