<svg id="svg" version="1.1" xmlns="http://www.w3.org/2000/svg" xmlns:xlink="http://www.w3.org/1999/xlink" width="400" height="400" viewBox="0, 0, 400,400"><g id="svgg"><path id="path0" d="M197.800 27.059 C 174.469 29.764,154.009 39.522,138.163 55.503 C 133.886 59.816,132.677 60.343,130.600 58.798 C 130.380 58.634,129.660 58.400,129.000 58.276 C 128.340 58.153,126.900 57.846,125.800 57.595 C 124.700 57.343,122.810 56.989,121.600 56.807 C 120.390 56.625,118.950 56.338,118.400 56.169 C 117.520 55.898,117.462 55.937,117.920 56.496 C 118.235 56.880,119.342 57.216,120.720 57.345 C 124.520 57.703,126.580 58.063,126.980 58.441 C 127.189 58.638,127.716 58.800,128.152 58.800 C 129.004 58.800,131.367 59.480,132.495 60.049 C 132.877 60.242,133.567 60.400,134.030 60.400 C 137.169 60.400,149.053 67.501,154.759 72.786 C 156.997 74.859,156.988 74.863,151.993 74.142 C 116.854 69.067,79.589 88.561,68.345 117.900 C 68.155 118.395,67.832 119.205,67.626 119.700 C 66.243 123.031,64.404 129.855,63.610 134.600 C 63.353 136.140,62.975 138.375,62.771 139.567 C 62.567 140.758,62.400 144.879,62.400 148.724 L 62.400 155.715 61.077 153.958 C 59.179 151.438,56.779 147.102,55.231 143.400 C 53.464 139.174,53.391 138.976,52.603 136.301 C 51.758 133.429,51.742 133.421,49.144 134.488 C 30.959 141.957,15.305 158.608,9.178 177.000 C 8.665 178.540,7.920 180.172,7.523 180.626 C 6.768 181.489,6.504 183.430,7.200 183.000 C 7.442 182.851,7.600 183.396,7.600 184.376 C 7.600 185.269,7.780 186.000,8.000 186.000 C 8.220 186.000,8.400 186.630,8.400 187.400 C 8.400 188.170,8.557 188.800,8.749 188.800 C 8.941 188.800,9.213 189.518,9.353 190.395 C 9.493 191.273,9.982 192.758,10.440 193.695 C 13.156 199.258,14.423 201.612,15.074 202.302 C 15.334 202.579,15.662 203.164,15.801 203.602 C 15.940 204.041,16.222 204.400,16.427 204.400 C 16.632 204.400,16.800 204.670,16.800 205.000 C 16.800 205.330,16.935 205.601,17.100 205.603 C 17.265 205.604,17.850 206.276,18.400 207.095 C 20.308 209.935,30.980 220.149,32.778 220.855 C 33.135 220.996,33.669 221.401,33.963 221.755 C 34.257 222.110,34.733 222.400,35.020 222.400 C 35.308 222.400,35.781 222.625,36.071 222.900 C 36.911 223.694,39.846 225.200,40.554 225.200 C 40.910 225.200,41.200 225.380,41.200 225.600 C 41.200 225.820,41.560 226.000,42.000 226.000 C 42.440 226.000,42.800 226.180,42.800 226.400 C 42.800 226.620,43.072 226.800,43.405 226.800 C 43.738 226.800,44.368 226.980,44.805 227.200 C 45.242 227.420,45.958 227.780,46.395 228.000 C 46.832 228.220,47.541 228.400,47.971 228.400 C 48.401 228.400,48.864 228.580,49.000 228.800 C 49.136 229.020,49.777 229.200,50.424 229.200 C 51.071 229.200,51.600 229.361,51.600 229.558 C 51.600 229.899,52.774 230.146,56.800 230.651 C 57.790 230.776,58.771 231.040,58.980 231.239 C 59.460 231.695,329.200 231.728,329.200 231.271 C 329.200 231.091,330.145 230.901,331.300 230.849 C 332.455 230.797,333.571 230.585,333.780 230.377 C 333.989 230.170,334.833 230.000,335.656 230.000 C 336.479 230.000,337.264 229.820,337.400 229.600 C 337.536 229.380,338.256 229.200,339.000 229.200 C 339.744 229.200,340.464 229.020,340.600 228.800 C 340.736 228.580,341.377 228.400,342.024 228.400 C 342.671 228.400,343.200 228.220,343.200 228.000 C 343.200 227.780,343.549 227.600,343.976 227.600 C 344.403 227.600,344.864 227.420,345.000 227.200 C 345.136 226.980,345.687 226.800,346.224 226.800 C 346.761 226.800,347.200 226.620,347.200 226.400 C 347.200 226.180,347.650 226.000,348.200 226.000 C 348.750 226.000,349.200 225.820,349.200 225.600 C 349.200 225.380,349.549 225.200,349.975 225.200 C 350.672 225.200,351.730 224.693,356.400 222.116 C 359.233 220.554,360.395 219.793,360.397 219.500 C 360.399 219.335,360.625 219.200,360.900 219.200 C 361.175 219.199,361.923 218.749,362.562 218.200 C 363.201 217.650,363.870 217.200,364.049 217.200 C 364.227 217.200,365.003 216.570,365.773 215.800 C 366.543 215.030,367.315 214.400,367.489 214.400 C 368.037 214.400,376.800 205.550,376.800 204.996 C 376.800 204.868,377.205 204.344,377.700 203.832 C 379.077 202.407,380.000 201.224,380.000 200.884 C 380.000 200.715,380.360 200.317,380.800 200.000 C 381.240 199.683,381.600 199.143,381.600 198.800 C 381.600 198.457,381.960 197.917,382.400 197.600 C 382.840 197.283,383.200 196.718,383.200 196.345 C 383.200 195.972,383.335 195.607,383.500 195.533 C 383.876 195.366,385.175 193.236,385.471 192.300 C 385.593 191.915,385.863 191.600,386.070 191.600 C 386.278 191.600,386.345 191.435,386.220 191.232 C 386.095 191.030,386.225 190.625,386.508 190.332 C 386.792 190.040,387.273 189.035,387.576 188.100 C 387.880 187.165,388.279 186.400,388.464 186.400 C 388.649 186.400,388.800 186.076,388.800 185.680 C 388.800 185.284,389.016 184.744,389.280 184.480 C 389.544 184.216,389.629 184.000,389.470 184.000 C 389.310 184.000,389.459 183.460,389.800 182.800 C 390.141 182.140,390.322 181.600,390.201 181.600 C 390.080 181.600,390.301 181.113,390.691 180.518 C 391.081 179.922,391.343 179.427,391.273 179.418 C 390.992 179.379,391.730 175.167,392.053 174.967 C 392.244 174.849,392.400 174.043,392.400 173.176 C 392.400 172.309,392.580 171.600,392.800 171.600 C 393.020 171.600,393.200 171.060,393.200 170.400 C 393.200 169.740,393.049 169.200,392.865 169.200 C 392.681 169.200,391.852 167.085,391.023 164.500 C 388.934 157.988,386.403 152.139,383.625 147.400 C 382.851 146.080,381.944 144.508,381.609 143.906 C 377.019 135.660,365.545 124.209,355.024 117.374 C 350.234 114.262,340.631 109.550,340.191 110.096 C 340.145 110.153,339.386 111.751,338.504 113.648 C 334.837 121.533,328.309 129.208,320.877 134.369 C 319.121 135.588,318.968 135.293,319.920 132.526 C 320.636 130.447,321.265 128.028,322.396 123.000 C 323.834 116.611,323.747 105.727,322.204 99.085 C 314.778 67.104,275.641 50.502,245.927 66.727 C 242.301 68.706,242.046 67.973,244.883 63.728 C 245.497 62.808,246.000 61.954,246.000 61.830 C 246.000 60.729,253.329 52.526,257.100 49.405 C 258.806 47.993,258.741 47.702,256.281 45.739 C 239.928 32.687,215.783 24.974,197.800 27.059 M102.400 56.400 C 101.912 56.715,101.964 56.789,102.676 56.794 C 103.158 56.797,103.664 56.620,103.800 56.400 C 104.115 55.891,103.188 55.891,102.400 56.400 M87.300 60.412 C 86.805 60.611,86.400 60.964,86.400 61.196 C 86.400 61.531,87.535 61.016,88.767 60.121 C 89.103 59.877,88.174 60.061,87.300 60.412 M72.200 69.758 C 71.980 70.019,71.440 70.675,71.000 71.216 L 70.200 72.200 71.188 71.400 C 72.895 70.017,73.215 69.656,72.903 69.467 C 72.736 69.367,72.420 69.497,72.200 69.758 M60.937 81.804 C 60.683 82.352,60.637 82.701,60.835 82.578 C 61.363 82.252,62.082 80.799,61.714 80.803 C 61.541 80.805,61.192 81.255,60.937 81.804 M205.200 94.187 C 231.077 95.900,252.451 116.850,255.801 143.783 C 256.459 149.071,256.168 150.005,254.697 147.319 C 253.568 145.256,253.593 145.292,250.078 140.800 C 229.607 114.639,192.339 108.683,164.835 127.177 C 159.948 130.462,160.076 130.356,155.187 135.200 C 150.905 139.442,149.208 141.502,145.797 146.600 L 143.923 149.400 144.159 145.400 C 145.742 118.487,168.408 96.024,196.000 94.024 C 198.090 93.872,200.250 93.796,200.800 93.855 C 201.350 93.914,203.330 94.063,205.200 94.187 M28.800 119.533 C 28.800 119.790,28.519 120.000,28.176 120.000 C 27.826 120.000,27.672 120.192,27.824 120.438 C 28.008 120.737,28.295 120.677,28.724 120.248 C 29.069 119.902,29.228 119.495,29.076 119.343 C 28.924 119.191,28.800 119.277,28.800 119.533 M20.000 128.143 C 20.000 128.468,19.775 128.824,19.500 128.935 C 19.186 129.062,19.168 129.149,19.451 129.168 C 20.145 129.217,20.925 128.124,20.419 127.812 C 20.189 127.669,20.000 127.818,20.000 128.143 M9.054 147.002 C 8.915 147.365,9.056 147.600,9.413 147.600 C 10.060 147.600,10.207 146.975,9.642 146.626 C 9.445 146.504,9.181 146.674,9.054 147.002 M361.849 157.716 C 368.045 160.880,370.067 167.032,367.530 175.000 C 361.877 192.756,346.543 206.721,328.200 210.822 C 321.253 212.375,320.808 212.385,262.800 212.393 L 206.600 212.399 204.184 211.256 C 194.690 206.765,194.691 193.338,204.185 188.807 L 206.714 187.600 260.692 187.600 C 319.693 187.600,318.694 187.636,326.274 185.268 C 333.833 182.908,341.138 175.377,343.606 167.400 C 344.750 163.703,345.403 162.296,346.676 160.782 C 350.220 156.571,356.946 155.212,361.849 157.716 M6.300 158.631 C 6.135 158.797,6.000 159.299,6.000 159.747 C 6.000 160.335,6.121 160.439,6.438 160.122 C 6.678 159.882,6.813 159.380,6.738 159.007 C 6.662 158.633,6.465 158.464,6.300 158.631 M6.000 177.353 C 6.000 177.903,6.180 178.464,6.400 178.600 C 6.626 178.740,6.800 178.412,6.800 177.847 C 6.800 177.297,6.620 176.736,6.400 176.600 C 6.174 176.460,6.000 176.788,6.000 177.353 M153.693 187.414 C 168.937 187.665,171.882 187.925,174.489 189.249 C 183.358 193.753,183.506 206.559,174.746 211.412 L 172.600 212.600 156.000 212.487 C 146.870 212.424,138.072 212.198,136.448 211.983 C 121.614 210.025,121.117 189.682,135.843 187.223 C 136.919 187.043,138.022 186.958,138.293 187.033 C 138.563 187.108,145.493 187.279,153.693 187.414 " stroke="none" fill="#83dceb" fill-rule="evenodd"></path><path id="path1" d="M190.600 6.400 C 190.464 6.620,189.294 6.800,188.000 6.800 C 186.706 6.800,185.536 6.980,185.400 7.200 C 185.264 7.420,184.353 7.600,183.376 7.600 C 182.399 7.600,181.600 7.780,181.600 8.000 C 181.600 8.220,180.910 8.400,180.067 8.400 C 179.223 8.400,178.404 8.529,178.247 8.687 C 178.089 8.844,177.564 8.994,177.080 9.018 C 176.238 9.061,175.735 9.211,173.681 10.033 C 173.176 10.235,172.321 10.400,171.781 10.400 C 171.242 10.400,170.800 10.580,170.800 10.800 C 170.800 11.020,170.361 11.200,169.824 11.200 C 169.287 11.200,168.736 11.380,168.600 11.600 C 168.464 11.820,167.913 12.000,167.376 12.000 C 166.839 12.000,166.400 12.137,166.400 12.304 C 166.400 12.471,166.021 12.844,165.558 13.133 C 165.095 13.422,164.822 13.488,164.951 13.279 C 165.239 12.814,160.290 15.180,159.978 15.657 C 159.855 15.843,159.283 16.035,158.706 16.083 C 158.130 16.131,157.745 16.312,157.852 16.485 C 157.960 16.658,157.767 16.800,157.424 16.800 C 157.081 16.800,156.800 16.980,156.800 17.200 C 156.800 17.420,156.440 17.600,156.000 17.600 C 155.560 17.600,155.200 17.780,155.200 18.000 C 155.200 18.220,154.906 18.400,154.547 18.400 C 154.188 18.400,153.558 18.788,153.147 19.261 C 152.705 19.770,152.400 19.909,152.400 19.600 C 152.400 19.291,152.095 19.430,151.653 19.939 C 151.242 20.412,150.780 20.800,150.625 20.800 C 150.287 20.800,146.818 23.148,146.068 23.885 C 145.775 24.172,145.342 24.288,145.106 24.142 C 144.851 23.985,144.793 24.064,144.962 24.338 C 145.119 24.592,145.063 24.800,144.838 24.800 C 144.612 24.800,143.792 25.359,143.014 26.041 C 142.236 26.724,141.600 27.206,141.600 27.111 C 141.600 27.017,140.685 27.808,139.566 28.870 C 138.447 29.931,137.356 30.800,137.142 30.800 C 136.928 30.800,136.864 30.980,137.000 31.200 C 137.136 31.420,136.993 31.600,136.683 31.600 C 135.851 31.600,133.528 33.959,133.848 34.478 C 134.000 34.723,133.955 34.819,133.748 34.691 C 133.297 34.413,130.895 36.430,130.722 37.233 C 130.655 37.545,130.060 38.364,129.400 39.053 C 127.614 40.918,126.376 42.400,125.385 43.860 C 124.898 44.578,124.358 45.038,124.186 44.883 C 124.013 44.727,123.972 44.879,124.093 45.221 C 124.220 45.576,123.904 46.236,123.357 46.763 C 122.831 47.269,122.400 47.895,122.400 48.154 C 122.400 48.412,122.040 48.883,121.600 49.200 C 121.160 49.517,120.800 50.097,120.800 50.488 C 120.800 50.880,120.620 51.200,120.400 51.200 C 120.180 51.200,120.000 51.436,120.000 51.725 C 120.000 52.013,119.640 52.636,119.200 53.108 C 118.760 53.580,118.400 54.244,118.400 54.583 C 118.400 54.922,118.220 55.200,118.000 55.200 C 117.780 55.200,117.600 55.344,117.600 55.520 C 117.600 55.948,120.014 56.800,121.229 56.800 C 121.763 56.800,123.460 57.086,125.000 57.435 C 126.540 57.785,128.340 58.167,129.000 58.286 C 129.660 58.404,130.380 58.634,130.600 58.798 C 132.677 60.343,133.886 59.816,138.163 55.503 C 171.589 21.792,221.145 17.695,256.281 45.739 C 258.741 47.702,258.806 47.993,257.100 49.405 C 253.329 52.526,246.000 60.729,246.000 61.830 C 246.000 61.954,245.497 62.808,244.883 63.728 C 242.046 67.973,242.301 68.706,245.927 66.727 C 275.641 50.502,314.778 67.104,322.204 99.085 C 323.747 105.727,323.834 116.611,322.396 123.000 C 321.265 128.028,320.636 130.447,319.920 132.526 C 318.968 135.293,319.121 135.588,320.877 134.369 C 328.309 129.208,334.837 121.533,338.504 113.648 C 339.386 111.751,340.145 110.153,340.191 110.096 C 340.631 109.550,350.234 114.262,355.024 117.374 C 365.545 124.209,377.019 135.660,381.609 143.906 C 381.944 144.508,382.851 146.080,383.625 147.400 C 386.403 152.139,388.934 157.988,391.023 164.500 C 392.549 169.258,393.195 170.264,393.206 167.900 C 393.211 166.914,393.306 166.745,393.600 167.200 C 393.859 167.601,393.990 165.707,393.994 161.476 C 393.999 156.535,394.109 155.214,394.500 155.435 C 394.900 155.661,394.900 155.610,394.500 155.179 C 394.159 154.811,394.000 153.142,394.000 149.920 C 394.000 147.040,393.844 145.200,393.600 145.200 C 393.378 145.200,393.200 144.133,393.200 142.800 C 393.200 141.467,393.022 140.400,392.800 140.400 C 392.580 140.400,392.400 139.680,392.400 138.800 C 392.400 137.920,392.243 137.200,392.052 137.200 C 391.733 137.200,391.166 134.359,391.155 132.700 C 391.152 132.315,390.981 132.000,390.775 132.000 C 390.569 132.000,390.400 131.648,390.400 131.219 C 390.400 130.394,389.601 128.339,389.149 128.000 C 389.003 127.890,388.819 127.350,388.741 126.800 C 388.664 126.250,388.510 125.710,388.400 125.600 C 387.922 125.122,387.200 123.561,387.200 123.005 C 387.200 122.672,387.020 122.400,386.800 122.400 C 386.580 122.400,386.400 122.040,386.400 121.600 C 386.400 121.160,386.241 120.800,386.047 120.800 C 385.852 120.800,385.590 120.485,385.464 120.100 C 385.338 119.715,384.684 118.500,384.010 117.400 C 383.336 116.300,382.622 115.040,382.424 114.600 C 382.225 114.160,381.598 113.313,381.031 112.717 C 380.464 112.122,380.000 111.327,380.000 110.951 C 380.000 110.575,379.886 110.381,379.746 110.521 C 379.606 110.660,378.970 110.105,378.332 109.287 C 375.033 105.059,371.097 100.928,368.043 98.488 C 367.029 97.678,365.705 96.518,365.100 95.911 C 364.495 95.304,364.000 94.908,364.000 95.031 C 364.000 95.154,363.477 94.882,362.838 94.427 C 362.199 93.972,361.449 93.600,361.172 93.600 C 360.894 93.600,360.785 93.482,360.930 93.337 C 361.074 93.192,360.294 92.629,359.196 92.086 C 358.098 91.543,357.200 90.941,357.200 90.749 C 357.200 90.557,356.840 90.400,356.400 90.400 C 355.960 90.400,355.600 90.220,355.600 90.000 C 355.600 89.780,355.330 89.600,355.000 89.600 C 354.670 89.600,354.400 89.420,354.400 89.200 C 354.400 88.980,354.040 88.800,353.600 88.800 C 353.160 88.800,352.800 88.620,352.800 88.400 C 352.800 88.180,352.451 88.000,352.024 88.000 C 351.597 88.000,351.136 87.820,351.000 87.600 C 350.864 87.380,350.403 87.200,349.976 87.200 C 349.549 87.200,349.200 87.020,349.200 86.800 C 349.200 86.580,348.750 86.400,348.200 86.400 C 347.650 86.400,347.200 86.243,347.200 86.050 C 347.200 85.858,346.705 85.592,346.100 85.461 C 344.310 85.072,343.976 84.640,343.936 82.668 C 343.915 81.641,343.741 80.800,343.549 80.800 C 343.357 80.800,343.200 80.271,343.200 79.624 C 343.200 78.977,343.020 78.336,342.800 78.200 C 342.580 78.064,342.400 77.243,342.400 76.376 C 342.400 75.509,342.220 74.800,342.000 74.800 C 341.780 74.800,341.600 74.260,341.600 73.600 C 341.600 72.940,341.450 72.400,341.267 72.400 C 341.084 72.400,340.965 71.995,341.004 71.500 C 341.043 71.005,340.833 70.226,340.536 69.768 C 340.240 69.311,340.118 68.816,340.265 68.668 C 340.413 68.521,340.323 68.400,340.067 68.400 C 339.810 68.400,339.600 68.040,339.600 67.600 C 339.600 67.160,339.465 66.799,339.300 66.799 C 339.135 66.798,338.550 65.808,338.000 64.600 C 337.450 63.392,336.865 62.402,336.700 62.401 C 336.535 62.401,336.400 62.130,336.400 61.800 C 336.400 61.470,336.220 61.200,336.000 61.200 C 335.780 61.200,335.600 60.970,335.600 60.688 C 335.600 60.407,335.240 59.917,334.800 59.600 C 334.360 59.283,334.000 58.817,334.000 58.565 C 334.000 58.314,333.010 57.077,331.799 55.817 C 330.589 54.557,329.687 53.383,329.795 53.209 C 329.903 53.034,329.633 52.797,329.196 52.683 C 328.758 52.569,328.400 52.177,328.400 51.814 C 328.400 51.450,328.239 51.252,328.042 51.374 C 327.845 51.496,327.581 51.326,327.454 50.998 C 327.328 50.669,327.032 50.400,326.797 50.400 C 326.561 50.400,325.683 49.680,324.846 48.800 C 324.009 47.920,323.126 47.200,322.885 47.200 C 322.643 47.200,322.210 46.885,321.923 46.500 C 321.635 46.115,321.130 45.742,320.800 45.670 C 320.470 45.599,319.827 45.192,319.370 44.766 C 318.914 44.341,318.423 44.110,318.280 44.254 C 318.136 44.397,317.906 44.220,317.768 43.860 C 317.629 43.499,317.370 43.295,317.190 43.406 C 317.011 43.517,316.615 43.358,316.310 43.052 C 316.004 42.747,315.182 42.372,314.482 42.218 C 313.782 42.064,313.106 41.772,312.981 41.569 C 312.855 41.366,312.403 41.200,311.976 41.200 C 311.549 41.200,311.200 41.020,311.200 40.800 C 311.200 40.580,310.660 40.400,310.000 40.400 C 309.340 40.400,308.800 40.220,308.800 40.000 C 308.800 39.780,308.260 39.600,307.600 39.600 C 306.940 39.600,306.400 39.420,306.400 39.200 C 306.400 38.980,305.849 38.800,305.176 38.800 C 304.463 38.800,304.056 38.633,304.200 38.400 C 304.354 38.151,303.596 38.000,302.200 38.000 C 300.804 38.000,300.046 37.849,300.200 37.600 C 300.359 37.343,298.879 37.200,296.047 37.200 C 293.537 37.200,291.541 37.028,291.399 36.799 C 291.234 36.531,290.903 36.531,290.402 36.799 C 289.990 37.020,287.751 37.200,285.426 37.200 C 282.875 37.200,281.200 37.359,281.200 37.600 C 281.200 37.820,280.390 38.000,279.400 38.000 C 278.410 38.000,277.600 38.142,277.600 38.315 C 277.600 39.301,276.015 38.564,275.162 37.181 C 274.633 36.323,273.945 35.617,273.633 35.611 C 273.322 35.605,273.178 35.489,273.314 35.352 C 273.624 35.042,272.615 34.000,272.005 34.000 C 271.756 34.000,271.625 33.865,271.713 33.700 C 271.907 33.337,270.549 31.985,270.270 32.263 C 270.162 32.372,269.954 32.087,269.810 31.630 C 269.665 31.174,269.360 30.800,269.133 30.800 C 268.906 30.800,267.854 29.915,266.794 28.833 C 265.735 27.751,264.778 26.956,264.667 27.066 C 264.557 27.176,264.105 26.937,263.662 26.533 C 262.189 25.191,261.637 24.800,261.217 24.800 C 260.988 24.800,260.800 24.620,260.800 24.400 C 260.800 24.180,260.570 24.000,260.288 24.000 C 260.007 24.000,259.517 23.640,259.200 23.200 C 258.883 22.760,258.393 22.400,258.112 22.400 C 257.830 22.400,257.600 22.220,257.600 22.000 C 257.600 21.780,257.319 21.600,256.976 21.600 C 256.633 21.600,256.464 21.420,256.600 21.200 C 256.736 20.980,256.477 20.800,256.024 20.800 C 255.571 20.800,255.200 20.620,255.200 20.400 C 255.200 20.180,254.919 20.000,254.576 20.000 C 254.233 20.000,254.064 19.820,254.200 19.600 C 254.336 19.380,254.164 19.200,253.818 19.200 C 253.244 19.200,251.686 18.486,251.200 18.000 C 250.459 17.259,246.190 15.200,245.396 15.200 C 245.042 15.200,244.864 15.020,245.000 14.800 C 245.140 14.573,244.804 14.400,244.224 14.400 C 243.661 14.400,243.200 14.220,243.200 14.000 C 243.200 13.780,242.840 13.600,242.400 13.600 C 241.960 13.600,241.600 13.420,241.600 13.200 C 241.600 12.980,241.240 12.800,240.800 12.800 C 240.360 12.800,240.000 12.620,240.000 12.400 C 240.000 12.180,239.698 12.000,239.328 12.000 C 238.576 12.000,236.167 11.287,235.105 10.751 C 234.723 10.558,234.138 10.400,233.805 10.400 C 233.472 10.400,233.200 10.220,233.200 10.000 C 233.200 9.780,232.671 9.600,232.024 9.600 C 231.377 9.600,230.746 9.436,230.622 9.235 C 230.498 9.035,229.947 8.920,229.398 8.980 C 228.849 9.041,228.400 8.935,228.400 8.745 C 228.400 8.555,228.265 8.421,228.100 8.447 C 226.848 8.645,224.395 8.332,224.600 8.000 C 224.752 7.754,224.079 7.600,222.847 7.600 C 221.747 7.600,220.736 7.420,220.600 7.200 C 220.464 6.980,219.294 6.800,218.000 6.800 C 216.706 6.800,215.536 6.620,215.400 6.400 C 215.244 6.148,210.796 6.000,203.376 6.000 C 195.792 6.000,191.600 6.142,191.600 6.400 C 191.600 6.620,191.409 6.800,191.176 6.800 C 190.943 6.800,190.864 6.620,191.000 6.400 C 191.136 6.180,191.157 6.000,191.047 6.000 C 190.937 6.000,190.736 6.180,190.600 6.400 M352.356 156.964 C 347.524 158.822,345.520 161.213,343.606 167.400 C 341.138 175.377,333.833 182.908,326.274 185.268 C 318.694 187.636,319.693 187.600,260.692 187.600 L 206.714 187.600 204.185 188.807 C 194.691 193.338,194.690 206.765,204.184 211.256 L 206.600 212.399 262.800 212.393 C 325.822 212.385,323.765 212.474,333.400 209.331 C 351.304 203.490,368.817 183.498,368.802 168.915 C 368.794 160.731,359.714 154.133,352.356 156.964 M5.326 169.190 C 5.514 170.425,6.013 170.661,5.914 169.468 C 5.865 168.881,5.686 168.400,5.515 168.400 C 5.345 168.400,5.259 168.755,5.326 169.190 M135.843 187.223 C 121.117 189.682,121.614 210.025,136.448 211.983 C 138.072 212.198,146.870 212.424,156.000 212.487 L 172.600 212.600 174.746 211.412 C 183.506 206.559,183.358 193.753,174.489 189.249 C 171.882 187.925,168.937 187.665,153.693 187.414 C 145.493 187.279,138.563 187.108,138.293 187.033 C 138.022 186.958,136.919 187.043,135.843 187.223 M24.000 213.800 C 24.517 214.350,25.096 214.800,25.288 214.800 C 25.480 214.800,25.186 214.350,24.636 213.800 C 24.086 213.250,23.507 212.800,23.348 212.800 C 23.190 212.800,23.483 213.250,24.000 213.800 M28.400 217.900 C 28.400 218.069,28.760 218.432,29.200 218.707 C 29.640 218.982,30.000 219.069,30.000 218.900 C 30.000 218.731,29.640 218.368,29.200 218.093 C 28.760 217.818,28.400 217.731,28.400 217.900 M93.095 262.277 C 92.707 262.378,92.493 262.627,92.619 262.830 C 92.744 263.034,92.646 263.200,92.400 263.200 C 92.154 263.200,92.045 263.350,92.159 263.533 C 92.272 263.716,91.923 264.517,91.382 265.312 C 90.842 266.107,90.400 266.947,90.400 267.179 C 90.400 267.410,90.220 267.600,90.000 267.600 C 89.780 267.600,89.600 267.960,89.600 268.400 C 89.600 268.840,89.420 269.200,89.200 269.200 C 88.980 269.200,88.800 269.370,88.800 269.579 C 88.800 269.898,87.289 272.595,85.315 275.800 C 85.044 276.240,84.580 277.098,84.285 277.707 C 83.989 278.315,83.624 278.690,83.473 278.540 C 83.323 278.390,83.200 278.673,83.200 279.169 C 83.200 279.666,82.795 280.429,82.300 280.866 C 81.805 281.303,81.638 281.538,81.930 281.389 C 82.364 281.165,82.368 281.262,81.949 281.932 C 81.669 282.381,81.298 282.661,81.125 282.553 C 80.951 282.446,80.905 282.609,81.023 282.915 C 81.140 283.221,80.958 283.703,80.618 283.985 C 80.278 284.267,80.000 284.746,80.000 285.049 C 80.000 285.352,79.827 285.600,79.616 285.600 C 79.405 285.600,79.018 286.314,78.757 287.187 C 78.495 288.060,78.148 288.692,77.986 288.591 C 77.823 288.491,77.715 288.722,77.745 289.104 C 77.775 289.487,77.601 289.764,77.357 289.719 C 77.096 289.671,76.970 290.083,77.051 290.719 C 77.126 291.314,76.900 293.288,76.549 295.106 C 73.336 311.766,93.941 322.589,106.157 310.659 C 110.204 306.706,112.018 300.998,111.006 295.400 C 110.688 293.640,110.422 291.615,110.414 290.900 C 110.406 290.185,110.220 289.600,110.000 289.600 C 109.780 289.600,109.600 289.330,109.600 289.000 C 109.600 288.670,109.465 288.399,109.300 288.397 C 108.868 288.392,107.982 286.352,108.235 285.944 C 108.352 285.755,108.212 285.596,107.924 285.590 C 107.366 285.580,106.000 283.160,106.000 282.184 C 106.000 281.863,105.809 281.600,105.576 281.600 C 105.343 281.600,105.264 281.420,105.400 281.200 C 105.536 280.980,105.427 280.800,105.157 280.800 C 104.887 280.800,104.776 280.691,104.909 280.557 C 105.043 280.424,104.803 279.940,104.376 279.482 C 103.949 279.024,103.600 278.351,103.600 277.987 C 103.600 277.622,103.240 276.998,102.800 276.600 C 102.360 276.202,102.000 275.742,102.000 275.579 C 102.000 275.415,101.280 274.097,100.400 272.648 C 99.520 271.200,98.800 269.831,98.800 269.607 C 98.800 269.383,98.664 269.200,98.498 269.200 C 98.331 269.200,97.943 268.615,97.635 267.900 C 97.327 267.185,96.743 266.122,96.337 265.538 C 95.932 264.954,95.600 264.217,95.600 263.900 C 95.600 263.365,94.348 261.942,93.969 262.046 C 93.876 262.072,93.483 262.176,93.095 262.277 M199.027 262.306 C 198.902 262.431,198.800 262.863,198.800 263.267 C 198.800 263.670,198.611 264.000,198.379 264.000 C 198.148 264.000,197.770 264.540,197.540 265.200 C 197.310 265.859,196.997 266.322,196.844 266.227 C 196.691 266.133,196.538 266.432,196.503 266.892 C 196.468 267.352,196.292 267.834,196.112 267.964 C 195.931 268.094,195.566 268.695,195.300 269.300 C 195.035 269.905,194.639 270.400,194.421 270.400 C 194.203 270.400,194.128 270.668,194.254 270.997 C 194.385 271.337,194.208 271.699,193.842 271.839 C 193.489 271.975,193.200 272.336,193.200 272.643 C 193.200 272.949,193.030 273.200,192.823 273.200 C 192.616 273.200,192.516 273.565,192.602 274.011 C 192.688 274.457,192.588 274.716,192.379 274.587 C 192.171 274.458,192.000 274.633,192.000 274.976 C 192.000 275.319,191.820 275.600,191.600 275.600 C 191.380 275.600,191.221 275.735,191.247 275.900 C 191.384 276.765,191.150 277.218,190.700 276.959 C 190.425 276.801,190.323 276.808,190.473 276.975 C 190.762 277.297,189.373 280.246,188.752 280.630 C 188.551 280.754,188.491 281.023,188.617 281.228 C 188.744 281.432,188.678 281.600,188.470 281.600 C 188.263 281.600,187.993 281.915,187.871 282.300 C 187.654 282.985,186.396 285.204,186.000 285.600 C 185.291 286.309,184.673 287.310,185.104 287.051 C 185.381 286.884,185.084 287.524,184.443 288.474 C 182.937 290.707,182.002 297.979,182.757 301.600 C 184.510 310.006,191.400 315.600,200.000 315.600 C 209.030 315.600,216.326 309.331,217.412 300.640 C 217.786 297.645,216.933 290.992,215.955 289.277 C 215.540 288.550,215.200 287.729,215.200 287.453 C 215.200 287.177,214.840 286.564,214.400 286.092 C 213.960 285.620,213.600 285.080,213.600 284.892 C 213.600 284.704,213.276 284.202,212.880 283.775 C 212.241 283.088,211.762 282.193,211.553 281.296 C 211.515 281.133,211.030 280.281,210.475 279.402 C 209.921 278.524,209.467 277.587,209.467 277.320 C 209.467 277.053,209.317 276.928,209.133 277.041 C 208.950 277.155,208.786 277.102,208.769 276.924 C 208.651 275.670,208.356 274.957,207.782 274.538 C 207.418 274.271,207.227 273.880,207.358 273.669 C 207.488 273.457,207.315 273.176,206.972 273.045 C 206.630 272.913,206.452 272.640,206.577 272.437 C 206.702 272.234,206.637 272.008,206.432 271.934 C 206.228 271.860,206.001 271.545,205.930 271.233 C 205.859 270.922,205.561 270.382,205.268 270.033 C 204.305 268.887,201.937 264.614,201.885 263.928 C 201.857 263.558,201.691 263.344,201.517 263.451 C 201.343 263.559,201.200 263.367,201.200 263.024 C 201.200 262.681,201.065 262.386,200.900 262.369 C 200.735 262.353,200.297 262.280,199.927 262.209 C 199.557 262.137,199.152 262.181,199.027 262.306 M305.310 262.824 C 305.199 263.246,304.950 263.492,304.755 263.372 C 304.560 263.251,304.400 263.534,304.400 264.000 C 304.400 264.466,304.257 264.759,304.083 264.651 C 303.909 264.544,303.740 264.805,303.708 265.231 C 303.675 265.658,303.317 266.501,302.910 267.104 C 302.504 267.707,301.926 268.689,301.625 269.286 C 301.325 269.884,300.964 270.301,300.823 270.214 C 300.682 270.127,300.538 270.432,300.503 270.892 C 300.468 271.352,300.296 271.834,300.119 271.964 C 299.943 272.094,299.545 272.692,299.235 273.293 C 298.926 273.895,298.334 274.750,297.920 275.193 C 297.507 275.637,297.294 276.000,297.446 276.000 C 297.599 276.000,297.381 276.391,296.962 276.869 C 296.479 277.419,296.420 277.614,296.800 277.400 C 297.293 277.122,297.286 277.199,296.761 277.831 C 296.409 278.254,296.010 278.915,295.873 279.300 C 295.737 279.685,295.429 280.000,295.189 280.000 C 294.949 280.000,294.855 280.165,294.980 280.368 C 295.105 280.570,294.944 280.999,294.623 281.320 C 294.301 281.642,294.145 282.012,294.276 282.143 C 294.407 282.274,294.230 282.490,293.883 282.624 C 293.535 282.757,293.348 283.120,293.467 283.430 C 293.586 283.740,293.395 284.104,293.044 284.239 C 292.692 284.373,292.496 284.633,292.609 284.814 C 292.721 284.996,292.630 285.258,292.407 285.396 C 292.183 285.534,292.000 285.997,292.000 286.424 C 292.000 286.851,291.848 287.200,291.663 287.200 C 290.219 287.200,288.500 295.607,288.951 300.462 C 290.521 317.353,314.717 321.316,322.154 305.900 C 324.292 301.469,324.292 294.194,322.155 289.340 C 321.850 288.646,321.600 287.945,321.600 287.781 C 321.600 287.617,320.960 286.518,320.177 285.340 C 319.395 284.161,318.883 282.989,319.039 282.736 C 319.215 282.452,319.147 282.385,318.862 282.562 C 318.588 282.731,318.400 282.593,318.400 282.224 C 318.400 281.881,318.209 281.600,317.976 281.600 C 317.743 281.600,317.651 281.440,317.772 281.245 C 317.893 281.050,317.723 280.668,317.396 280.396 C 317.068 280.124,316.800 279.654,316.800 279.351 C 316.800 279.048,316.620 278.800,316.400 278.800 C 316.180 278.800,316.000 278.530,316.000 278.200 C 316.000 277.870,315.809 277.600,315.576 277.600 C 315.343 277.600,315.256 277.432,315.383 277.228 C 315.509 277.023,315.435 276.745,315.217 276.611 C 315.000 276.476,314.511 275.699,314.132 274.883 C 313.752 274.067,313.342 273.310,313.221 273.200 C 312.834 272.850,311.559 270.626,311.329 269.900 C 311.207 269.515,310.937 269.200,310.730 269.200 C 310.522 269.200,310.451 269.040,310.572 268.845 C 310.693 268.650,310.523 268.268,310.196 267.996 C 309.868 267.724,309.600 267.254,309.600 266.951 C 309.600 266.648,309.434 266.400,309.232 266.400 C 309.029 266.400,308.748 265.872,308.606 265.228 C 308.464 264.583,308.092 263.842,307.779 263.582 C 307.465 263.322,307.307 262.950,307.428 262.755 C 307.549 262.560,307.502 262.386,307.324 262.369 C 307.146 262.353,306.665 262.276,306.255 262.198 C 305.783 262.109,305.437 262.338,305.310 262.824 " stroke="none" fill="#4db5d1" fill-rule="evenodd"></path><path id="path2" d="M74.832 296.888 C 74.520 297.610,74.160 298.290,74.032 298.400 C 73.558 298.808,71.387 302.969,70.797 304.600 C 70.637 305.040,70.307 305.850,70.063 306.400 C 69.819 306.950,69.570 308.210,69.510 309.200 C 69.434 310.442,69.236 310.966,68.870 310.890 C 68.579 310.830,68.435 310.933,68.550 311.119 C 68.665 311.305,68.488 311.979,68.157 312.618 C 67.560 313.768,68.090 314.800,69.276 314.800 C 69.454 314.800,69.600 315.779,69.600 316.976 C 69.600 318.173,69.780 319.264,70.000 319.400 C 70.220 319.536,70.400 319.980,70.400 320.386 C 70.400 321.184,72.009 324.515,72.500 324.733 C 72.665 324.807,72.803 325.077,72.807 325.333 C 72.816 325.922,74.587 328.134,76.349 329.757 C 79.969 333.092,80.594 333.600,81.078 333.600 C 81.365 333.600,81.600 333.780,81.600 334.000 C 81.600 334.220,81.960 334.400,82.400 334.400 C 82.840 334.400,83.200 334.580,83.200 334.800 C 83.200 335.020,83.639 335.200,84.176 335.200 C 84.713 335.200,85.266 335.383,85.404 335.607 C 85.542 335.830,85.808 335.918,85.995 335.803 C 86.182 335.687,86.612 335.870,86.951 336.208 C 87.318 336.575,87.937 336.736,88.483 336.607 C 89.668 336.326,91.829 336.957,91.700 337.545 C 91.634 337.844,92.388 337.998,93.900 337.994 C 95.339 337.990,95.997 337.859,95.657 337.644 C 94.782 337.090,95.858 336.666,98.067 336.695 C 99.130 336.709,100.000 336.558,100.000 336.360 C 100.000 336.162,100.362 336.000,100.805 336.000 C 101.248 336.000,101.968 335.820,102.405 335.600 C 102.842 335.380,103.558 335.020,103.995 334.800 C 104.432 334.580,105.062 334.400,105.395 334.400 C 105.728 334.400,106.000 334.242,106.000 334.049 C 106.000 333.855,106.500 333.490,107.110 333.237 C 108.290 332.749,114.400 326.730,114.400 326.056 C 114.400 325.837,114.625 325.419,114.900 325.129 C 115.795 324.183,117.200 321.148,117.200 320.162 C 117.200 319.633,117.391 319.200,117.625 319.200 C 117.859 319.200,118.018 318.885,117.979 318.500 C 117.752 316.266,118.035 314.400,118.600 314.400 C 119.033 314.400,119.200 313.956,119.200 312.800 C 119.200 311.644,119.033 311.200,118.600 311.200 C 118.063 311.200,117.703 309.244,117.979 307.822 C 118.019 307.614,117.836 306.984,117.572 306.422 C 117.309 305.860,116.913 304.950,116.693 304.400 C 116.014 302.703,115.411 301.409,115.200 301.200 C 115.089 301.090,114.729 300.460,114.400 299.800 C 114.071 299.140,113.703 298.510,113.584 298.400 C 113.464 298.290,113.063 297.570,112.692 296.800 L 112.018 295.400 112.009 298.876 C 112.004 300.788,111.820 302.464,111.600 302.600 C 111.380 302.736,111.200 303.276,111.200 303.800 C 111.200 304.324,111.020 304.864,110.800 305.000 C 110.580 305.136,110.400 305.519,110.400 305.852 C 110.400 307.290,106.723 311.692,104.351 313.093 C 103.718 313.467,103.200 313.914,103.200 314.086 C 103.200 314.259,102.928 314.400,102.595 314.400 C 102.262 314.400,101.677 314.559,101.295 314.753 C 99.794 315.517,98.540 315.956,97.200 316.187 C 96.430 316.320,95.283 316.536,94.652 316.667 C 92.671 317.078,84.400 314.847,84.400 313.902 C 84.400 313.736,84.222 313.600,84.005 313.600 C 83.595 313.600,82.699 312.921,80.838 311.200 C 79.407 309.876,77.200 306.618,77.200 305.828 C 77.200 305.483,77.020 305.200,76.800 305.200 C 76.580 305.200,76.400 304.696,76.400 304.080 C 76.400 303.464,76.228 302.788,76.018 302.578 C 75.808 302.368,75.583 300.706,75.518 298.886 C 75.402 295.638,75.390 295.601,74.832 296.888 M218.402 298.372 C 218.400 301.885,217.174 305.955,215.400 308.338 C 214.049 310.154,211.407 312.800,210.945 312.800 C 210.645 312.800,210.400 312.952,210.400 313.137 C 210.400 313.437,207.977 314.747,205.800 315.623 C 202.901 316.791,197.148 316.788,194.200 315.619 C 192.084 314.779,189.600 313.439,189.600 313.137 C 189.600 312.952,189.355 312.800,189.055 312.800 C 188.597 312.800,186.090 310.296,184.587 308.338 C 183.086 306.382,181.969 302.903,181.655 299.200 L 181.400 296.200 180.200 298.499 C 179.540 299.764,178.865 300.799,178.700 300.799 C 178.535 300.800,178.400 301.065,178.400 301.388 C 178.400 301.711,178.040 302.617,177.600 303.400 C 177.160 304.183,176.800 305.168,176.800 305.589 C 176.800 306.009,176.620 306.464,176.400 306.600 C 176.180 306.736,176.000 307.634,176.000 308.595 C 176.000 309.615,175.750 310.593,175.400 310.943 C 175.070 311.273,174.800 311.916,174.800 312.371 C 174.800 312.827,174.620 313.200,174.400 313.200 C 174.180 313.200,174.000 313.470,174.000 313.800 C 174.000 314.130,174.167 314.400,174.371 314.400 C 175.269 314.400,176.000 315.749,176.000 317.405 C 176.000 318.366,176.180 319.264,176.400 319.400 C 176.620 319.536,176.800 319.950,176.800 320.320 C 176.800 323.704,186.146 334.746,188.462 334.099 C 188.606 334.058,188.943 334.290,189.211 334.613 C 189.479 334.936,190.025 335.200,190.425 335.200 C 190.825 335.200,191.272 335.392,191.417 335.627 C 191.562 335.862,191.912 335.966,192.195 335.857 C 192.477 335.749,193.048 335.898,193.463 336.189 C 193.878 336.480,194.757 336.672,195.416 336.616 C 197.115 336.471,198.778 337.116,197.990 337.614 C 197.590 337.868,198.235 337.988,200.000 337.988 C 201.752 337.988,202.409 337.867,202.014 337.617 C 201.143 337.066,203.452 336.283,205.059 336.585 C 205.766 336.717,206.386 336.646,206.463 336.423 C 206.538 336.203,206.960 335.964,207.400 335.892 C 207.840 335.820,208.581 335.551,209.047 335.295 C 209.513 335.038,210.022 334.955,210.177 335.111 C 210.333 335.266,210.631 335.087,210.841 334.713 C 211.051 334.337,211.484 334.134,211.811 334.259 C 212.135 334.384,212.400 334.325,212.400 334.129 C 212.400 333.933,212.985 333.432,213.700 333.016 C 215.374 332.041,220.800 326.601,220.800 325.898 C 220.800 325.602,221.025 325.135,221.300 324.860 C 221.575 324.585,221.815 324.234,221.834 324.080 C 221.928 323.292,222.828 321.600,223.153 321.600 C 223.358 321.600,223.438 321.267,223.331 320.860 C 223.225 320.452,223.377 319.867,223.669 319.560 C 223.970 319.243,224.209 318.058,224.221 316.826 C 224.234 315.511,224.431 314.590,224.721 314.493 C 225.404 314.265,225.315 311.657,224.600 310.943 C 224.250 310.593,224.000 309.615,224.000 308.595 C 224.000 307.634,223.820 306.736,223.600 306.600 C 223.380 306.464,223.200 306.001,223.200 305.571 C 223.200 304.829,223.038 304.414,221.927 302.300 C 221.666 301.805,220.767 300.050,219.929 298.400 L 218.403 295.400 218.402 298.372 M286.823 297.739 C 286.285 298.873,285.721 299.890,285.569 300.000 C 285.072 300.360,283.600 303.210,283.600 303.812 C 283.600 304.135,283.390 304.400,283.133 304.400 C 282.877 304.400,282.775 304.509,282.908 304.641 C 283.040 304.774,282.954 305.359,282.716 305.941 C 282.313 306.926,282.228 307.447,282.062 309.943 C 282.021 310.566,281.813 310.814,281.449 310.674 C 281.046 310.519,280.842 310.948,280.694 312.262 C 280.453 314.401,280.742 315.942,281.234 315.145 C 281.764 314.288,282.080 315.024,282.106 317.174 C 282.119 318.288,282.280 319.200,282.465 319.200 C 282.649 319.200,282.800 319.740,282.800 320.400 C 282.800 321.060,282.980 321.600,283.200 321.600 C 283.420 321.600,283.600 321.849,283.600 322.154 C 283.600 322.745,284.143 323.859,285.377 325.800 C 286.519 327.596,292.297 333.200,293.007 333.200 C 293.347 333.200,293.728 333.469,293.854 333.798 C 293.981 334.126,294.230 334.305,294.410 334.194 C 294.589 334.083,295.010 334.268,295.346 334.603 C 295.682 334.939,296.102 335.170,296.279 335.115 C 296.455 335.061,297.410 335.362,298.400 335.785 C 300.107 336.514,300.630 336.615,303.343 336.745 C 304.183 336.785,304.425 336.959,304.255 337.400 C 304.065 337.896,304.458 337.995,306.513 337.968 C 307.881 337.951,308.774 337.846,308.498 337.734 C 307.498 337.331,308.487 336.800,310.238 336.800 C 311.222 336.800,312.472 336.509,313.014 336.154 C 313.556 335.799,314.000 335.641,314.000 335.803 C 314.000 335.965,314.239 335.899,314.531 335.657 C 314.824 335.414,315.409 335.149,315.831 335.068 C 317.355 334.775,318.423 334.182,321.360 332.000 C 322.925 330.837,326.800 326.631,327.052 325.820 C 327.193 325.369,327.419 324.910,327.554 324.800 C 328.154 324.313,329.600 321.034,329.600 320.162 C 329.600 319.633,329.780 319.200,330.000 319.200 C 330.220 319.200,330.400 318.405,330.400 317.433 C 330.400 315.512,330.722 314.305,331.162 314.576 C 331.748 314.938,331.610 311.953,331.014 311.356 C 330.630 310.973,330.400 310.012,330.400 308.795 C 330.400 307.724,330.220 306.736,330.000 306.600 C 329.780 306.464,329.600 305.913,329.600 305.376 C 329.600 304.839,329.420 304.400,329.200 304.400 C 328.980 304.400,328.800 303.950,328.800 303.400 C 328.800 302.850,328.641 302.400,328.447 302.400 C 328.252 302.400,327.993 302.085,327.871 301.700 C 327.643 300.982,326.371 298.758,325.983 298.400 C 325.864 298.290,325.463 297.570,325.092 296.800 L 324.418 295.400 324.409 298.572 C 324.392 304.525,321.994 309.223,316.984 313.121 C 315.924 313.946,314.665 314.601,312.200 315.609 C 310.045 316.491,305.661 316.775,302.800 316.218 C 301.493 315.964,301.014 315.794,298.400 314.659 C 295.594 313.440,291.200 309.715,291.200 308.555 C 291.200 308.286,291.065 308.007,290.900 307.933 C 290.427 307.723,288.800 304.398,288.800 303.642 C 288.800 303.267,288.628 302.788,288.418 302.578 C 288.208 302.368,287.983 300.729,287.918 298.937 L 287.800 295.678 286.823 297.739 M223.300 323.493 C 222.588 325.011,222.684 325.633,223.413 324.233 C 223.748 323.591,223.972 322.922,223.911 322.746 C 223.850 322.570,223.575 322.906,223.300 323.493 M145.379 331.500 C 145.211 331.885,145.103 332.340,145.140 332.511 C 145.177 332.682,144.936 332.927,144.604 333.054 C 144.272 333.181,144.000 333.547,144.000 333.866 C 144.000 334.745,144.624 334.178,145.357 332.633 C 145.747 331.812,146.374 331.184,146.906 331.082 C 147.696 330.929,147.677 330.903,146.743 330.854 C 146.082 330.820,145.571 331.062,145.379 331.500 M253.200 331.096 C 253.530 331.225,254.010 331.615,254.267 331.964 C 254.524 332.313,254.869 332.464,255.034 332.299 C 255.199 332.135,255.123 332.000,254.867 332.000 C 254.610 332.000,254.400 331.730,254.400 331.400 C 254.400 331.035,254.047 330.812,253.500 330.832 C 252.892 330.853,252.795 330.939,253.200 331.096 M255.683 334.319 C 256.149 335.134,256.784 336.295,257.095 336.900 C 257.405 337.505,257.819 338.000,258.016 338.000 C 258.406 338.000,256.821 335.083,256.313 334.867 C 256.141 334.793,256.000 334.408,256.000 334.009 C 256.000 333.611,255.738 333.185,255.418 333.062 C 254.993 332.899,255.064 333.239,255.683 334.319 M152.400 339.047 C 152.400 339.267,152.664 339.796,152.987 340.224 C 153.310 340.651,153.575 340.820,153.575 340.600 C 153.575 340.380,153.310 339.851,152.987 339.424 C 152.664 338.996,152.400 338.827,152.400 339.047 M246.998 339.602 C 246.598 340.044,246.366 340.499,246.482 340.615 C 246.597 340.730,246.990 340.369,247.355 339.812 C 248.152 338.596,247.993 338.502,246.998 339.602 M155.679 344.772 C 156.175 345.700,156.657 346.230,156.750 345.950 C 156.844 345.669,156.713 345.371,156.460 345.287 C 156.207 345.202,156.000 344.900,156.000 344.616 C 156.000 344.331,155.725 343.870,155.389 343.591 C 154.992 343.262,155.094 343.675,155.679 344.772 M244.480 343.680 C 244.216 343.944,244.000 344.394,244.000 344.680 C 244.000 344.966,243.820 345.200,243.600 345.200 C 243.380 345.200,243.200 345.391,243.200 345.624 C 243.200 346.311,243.959 345.640,244.613 344.375 C 245.269 343.107,245.234 342.926,244.480 343.680 M157.212 347.200 C 157.218 347.863,158.778 350.040,158.788 349.400 C 158.792 349.180,158.437 348.460,158.000 347.800 C 157.563 347.140,157.208 346.870,157.212 347.200 M135.454 348.573 C 134.519 350.000,134.646 350.304,135.646 349.033 C 136.111 348.442,136.405 347.872,136.300 347.766 C 136.195 347.661,135.814 348.024,135.454 348.573 M131.600 355.112 C 131.600 355.503,131.240 356.083,130.800 356.400 C 130.360 356.717,130.000 357.297,130.000 357.688 C 130.000 358.080,129.820 358.400,129.600 358.400 C 129.380 358.400,129.200 358.771,129.200 359.224 C 129.200 359.677,129.046 359.952,128.857 359.835 C 128.668 359.719,128.083 360.473,127.557 361.512 C 127.031 362.550,126.465 363.460,126.300 363.533 C 126.135 363.607,126.000 363.982,126.000 364.367 C 126.000 364.752,125.875 365.192,125.722 365.345 C 124.182 366.885,124.767 381.957,126.415 383.200 C 126.561 383.310,126.901 383.819,127.171 384.332 C 128.713 387.258,132.902 391.012,135.100 391.437 C 135.815 391.576,136.400 391.849,136.400 392.045 C 136.400 392.240,136.760 392.400,137.200 392.400 C 137.640 392.400,138.000 392.580,138.000 392.800 C 138.000 393.020,138.540 393.200,139.200 393.200 C 139.860 393.200,140.400 393.380,140.400 393.600 C 140.400 393.851,142.867 394.000,147.000 394.000 C 151.133 394.000,153.600 393.851,153.600 393.600 C 153.600 393.380,154.140 393.200,154.800 393.200 C 155.460 393.200,156.000 393.020,156.000 392.800 C 156.000 392.580,156.360 392.400,156.800 392.400 C 157.240 392.400,157.600 392.234,157.600 392.032 C 157.600 391.829,158.095 391.554,158.700 391.420 C 160.265 391.074,165.200 387.073,165.200 386.151 C 165.200 385.945,165.560 385.517,166.000 385.200 C 166.440 384.883,166.800 384.303,166.800 383.912 C 166.800 383.520,166.980 383.200,167.200 383.200 C 167.420 383.200,167.600 382.840,167.600 382.400 C 167.600 381.960,167.780 381.600,168.000 381.600 C 168.220 381.600,168.400 381.060,168.400 380.400 C 168.400 379.740,168.580 379.200,168.800 379.200 C 169.048 379.200,169.200 377.000,169.200 373.400 C 169.200 369.800,169.048 367.600,168.800 367.600 C 168.580 367.600,168.400 367.060,168.400 366.400 C 168.400 365.740,168.220 365.200,168.000 365.200 C 167.780 365.200,167.600 364.840,167.600 364.400 C 167.600 363.960,167.420 363.600,167.200 363.600 C 166.980 363.600,166.800 363.240,166.800 362.800 C 166.800 362.360,166.620 362.000,166.400 362.000 C 166.180 362.000,166.000 361.764,166.000 361.475 C 166.000 361.187,165.640 360.564,165.200 360.092 C 164.760 359.620,164.400 359.046,164.400 358.817 C 164.400 358.588,164.220 358.400,164.000 358.400 C 163.780 358.400,163.600 358.080,163.600 357.688 C 163.600 357.297,163.240 356.717,162.800 356.400 C 162.360 356.083,162.000 355.503,162.000 355.112 C 162.000 354.720,161.841 354.400,161.647 354.400 C 161.148 354.400,160.799 355.952,161.238 356.223 C 161.437 356.346,161.600 356.968,161.600 357.605 C 161.600 358.241,161.809 359.221,162.064 359.781 C 164.076 364.196,156.536 374.800,151.386 374.800 C 150.870 374.800,150.336 374.980,150.200 375.200 C 150.064 375.420,148.534 375.600,146.800 375.600 C 145.066 375.600,143.536 375.420,143.400 375.200 C 143.264 374.980,142.623 374.800,141.976 374.800 C 141.329 374.800,140.800 374.620,140.800 374.400 C 140.800 374.180,140.440 374.000,140.000 374.000 C 139.560 374.000,139.200 373.820,139.200 373.600 C 139.200 373.380,138.937 373.200,138.616 373.200 C 137.693 373.200,134.286 369.580,133.345 367.600 C 131.523 363.765,131.273 361.696,132.200 358.135 C 132.792 355.864,132.703 354.400,131.973 354.400 C 131.768 354.400,131.600 354.720,131.600 355.112 M238.000 355.112 C 238.000 355.503,237.640 356.083,237.200 356.400 C 236.760 356.717,236.400 357.297,236.400 357.688 C 236.400 358.080,236.220 358.400,236.000 358.400 C 235.780 358.400,235.600 358.588,235.600 358.817 C 235.600 359.046,235.240 359.620,234.800 360.092 C 234.360 360.564,234.000 361.187,234.000 361.475 C 234.000 361.764,233.820 362.000,233.600 362.000 C 233.380 362.000,233.200 362.360,233.200 362.800 C 233.200 363.240,233.020 363.600,232.800 363.600 C 232.580 363.600,232.400 363.960,232.400 364.400 C 232.400 364.840,232.220 365.200,232.000 365.200 C 231.780 365.200,231.600 365.740,231.600 366.400 C 231.600 367.060,231.420 367.600,231.200 367.600 C 230.952 367.600,230.800 369.800,230.800 373.400 C 230.800 377.000,230.952 379.200,231.200 379.200 C 231.420 379.200,231.600 379.740,231.600 380.400 C 231.600 381.060,231.780 381.600,232.000 381.600 C 232.220 381.600,232.400 381.960,232.400 382.400 C 232.400 382.840,232.580 383.200,232.800 383.200 C 233.020 383.200,233.200 383.472,233.200 383.804 C 233.200 384.136,233.740 384.972,234.400 385.663 C 235.060 386.354,235.600 387.119,235.600 387.365 C 235.600 387.610,236.320 388.256,237.200 388.800 C 238.080 389.344,238.800 389.906,238.800 390.049 C 238.800 390.297,239.863 390.841,242.700 392.044 C 243.415 392.347,244.000 392.731,244.000 392.898 C 244.000 393.064,244.540 393.200,245.200 393.200 C 245.860 393.200,246.400 393.380,246.400 393.600 C 246.400 393.851,248.867 394.000,253.000 394.000 C 257.133 394.000,259.600 393.851,259.600 393.600 C 259.600 393.380,260.140 393.200,260.800 393.200 C 261.460 393.200,262.000 393.020,262.000 392.800 C 262.000 392.580,262.360 392.400,262.800 392.400 C 263.240 392.400,263.600 392.240,263.600 392.045 C 263.600 391.849,264.185 391.576,264.900 391.437 C 267.194 390.993,273.168 385.420,273.193 383.700 C 273.197 383.425,273.380 383.200,273.600 383.200 C 273.820 383.200,274.000 382.876,274.000 382.480 C 274.000 382.084,274.225 381.535,274.500 381.260 C 274.864 380.896,275.000 378.755,275.000 373.400 C 275.000 368.045,274.864 365.904,274.500 365.540 C 274.225 365.265,274.000 364.731,274.000 364.353 C 274.000 363.976,273.865 363.607,273.700 363.533 C 273.535 363.460,272.967 362.545,272.437 361.500 C 271.908 360.455,271.323 359.600,271.137 359.600 C 270.952 359.600,270.800 359.330,270.800 359.000 C 270.800 358.670,270.620 358.400,270.400 358.400 C 270.180 358.400,270.000 358.080,270.000 357.688 C 270.000 357.297,269.640 356.717,269.200 356.400 C 268.760 356.083,268.400 355.503,268.400 355.112 C 268.400 354.720,268.239 354.400,268.043 354.400 C 267.292 354.400,267.240 355.724,267.887 358.418 C 268.648 361.589,268.257 364.727,266.719 367.778 C 265.807 369.589,262.241 373.200,261.366 373.200 C 261.055 373.200,260.800 373.380,260.800 373.600 C 260.800 373.820,260.440 374.000,260.000 374.000 C 259.560 374.000,259.200 374.180,259.200 374.400 C 259.200 374.620,258.671 374.800,258.024 374.800 C 257.377 374.800,256.736 374.980,256.600 375.200 C 256.464 375.420,254.934 375.600,253.200 375.600 C 251.466 375.600,249.936 375.420,249.800 375.200 C 249.664 374.980,249.130 374.800,248.614 374.800 C 246.046 374.800,240.822 370.479,239.185 367.000 C 238.142 364.785,237.780 357.260,238.673 356.367 C 239.153 355.887,238.911 354.400,238.353 354.400 C 238.159 354.400,238.000 354.720,238.000 355.112 " stroke="none" fill="#268cc4" fill-rule="evenodd"></path><path id="path3" d="M103.800 56.400 C 103.664 56.620,102.563 56.800,101.353 56.800 C 99.988 56.800,99.247 56.952,99.400 57.200 C 99.536 57.420,99.356 57.600,99.000 57.600 C 98.598 57.600,98.460 57.410,98.635 57.100 C 98.861 56.700,98.810 56.700,98.379 57.100 C 98.082 57.375,97.441 57.600,96.953 57.600 C 96.466 57.600,96.007 57.760,95.933 57.955 C 95.860 58.150,94.900 58.424,93.800 58.563 C 92.700 58.703,91.592 58.843,91.338 58.875 C 91.084 58.907,90.968 59.173,91.080 59.465 C 91.235 59.867,90.981 59.936,90.042 59.748 C 89.340 59.608,88.800 59.668,88.800 59.886 C 88.800 60.384,86.787 61.359,85.973 61.255 C 85.629 61.211,85.016 61.540,84.611 61.987 C 84.207 62.434,83.648 62.800,83.370 62.800 C 82.665 62.800,80.490 64.026,79.289 65.100 C 78.736 65.595,77.939 66.000,77.518 66.000 C 77.097 66.000,76.864 66.180,77.000 66.400 C 77.136 66.620,76.956 66.800,76.600 66.800 C 76.244 66.800,76.054 66.964,76.179 67.165 C 76.303 67.366,75.864 67.770,75.202 68.063 C 74.541 68.356,74.000 68.731,74.000 68.898 C 74.000 69.064,73.865 69.155,73.700 69.100 C 73.535 69.045,73.367 69.149,73.326 69.330 C 73.193 69.929,71.504 71.188,71.138 70.962 C 70.941 70.840,70.830 70.889,70.890 71.070 C 70.951 71.252,70.910 71.407,70.800 71.415 C 70.690 71.423,69.857 72.180,68.949 73.097 C 68.041 74.014,67.186 74.653,67.049 74.516 C 66.912 74.379,66.800 74.490,66.800 74.762 C 66.800 75.405,65.769 76.436,65.448 76.114 C 65.311 75.978,65.200 76.167,65.200 76.533 C 65.200 76.900,65.020 77.200,64.800 77.200 C 64.580 77.200,64.397 77.515,64.394 77.900 C 64.389 78.498,64.331 78.513,64.000 78.000 C 63.578 77.347,63.401 77.867,63.591 79.200 C 63.638 79.530,63.548 79.674,63.390 79.519 C 63.043 79.178,62.414 79.831,61.563 81.414 C 61.213 82.066,60.718 82.555,60.463 82.500 C 60.208 82.445,60.000 82.648,60.000 82.951 C 60.000 83.254,59.722 83.733,59.382 84.015 C 59.042 84.297,58.854 84.764,58.965 85.053 C 59.076 85.342,58.859 85.808,58.483 86.089 C 58.107 86.370,57.739 86.960,57.663 87.400 C 57.588 87.840,57.363 88.260,57.163 88.333 C 56.964 88.407,56.800 88.694,56.800 88.972 C 56.800 89.621,55.658 91.917,55.192 92.205 C 54.996 92.326,54.927 92.667,55.040 92.961 C 55.153 93.256,54.953 93.609,54.595 93.746 C 54.141 93.921,54.027 94.253,54.215 94.848 C 54.397 95.422,54.341 95.611,54.043 95.426 C 53.756 95.249,53.600 95.584,53.600 96.376 C 53.600 97.049,53.420 97.600,53.200 97.600 C 52.980 97.600,52.800 97.855,52.800 98.167 C 52.800 98.478,52.575 98.824,52.300 98.935 C 51.902 99.096,51.903 99.143,52.303 99.168 C 52.653 99.190,52.696 99.413,52.442 99.900 C 51.850 101.038,51.033 104.044,51.095 104.861 C 51.126 105.277,51.011 105.531,50.840 105.425 C 50.669 105.319,50.505 105.863,50.476 106.633 C 50.412 108.324,49.612 109.233,48.452 108.930 C 47.958 108.800,47.600 108.894,47.600 109.153 C 47.600 109.399,47.052 109.600,46.383 109.600 C 45.714 109.600,44.780 109.960,44.308 110.400 C 43.836 110.840,42.983 111.200,42.413 111.200 C 41.835 111.200,41.121 111.554,40.800 112.000 C 40.456 112.477,39.765 112.800,39.088 112.800 C 38.433 112.800,38.057 112.969,38.200 113.200 C 38.336 113.420,38.167 113.600,37.824 113.600 C 37.481 113.600,37.200 113.780,37.200 114.000 C 37.200 114.220,36.880 114.400,36.488 114.400 C 36.097 114.400,35.524 114.750,35.215 115.179 C 34.907 115.607,34.522 115.876,34.361 115.776 C 34.200 115.676,33.532 116.046,32.876 116.597 C 32.221 117.149,31.575 117.600,31.441 117.600 C 31.308 117.600,30.562 118.275,29.783 119.100 C 29.005 119.925,28.210 120.600,28.016 120.600 C 27.610 120.600,26.520 121.581,24.054 124.168 C 23.093 125.176,22.148 126.000,21.954 126.000 C 21.759 126.000,21.600 126.281,21.600 126.624 C 21.600 126.967,21.420 127.136,21.200 127.000 C 20.980 126.864,20.778 126.943,20.750 127.176 C 20.723 127.409,20.678 127.745,20.650 127.923 C 20.623 128.101,19.565 129.314,18.300 130.620 C 17.035 131.926,16.000 133.221,16.000 133.498 C 16.000 134.316,15.870 134.543,14.708 135.759 C 14.099 136.397,13.600 137.342,13.600 137.859 C 13.600 138.377,13.420 138.800,13.200 138.800 C 12.980 138.800,12.800 139.160,12.800 139.600 C 12.800 140.040,12.620 140.400,12.400 140.400 C 12.180 140.400,12.000 140.771,12.000 141.224 C 12.000 141.677,11.820 141.936,11.600 141.800 C 11.240 141.578,11.027 142.103,11.153 142.900 C 11.179 143.065,11.020 143.200,10.800 143.200 C 10.580 143.200,10.400 143.560,10.400 144.000 C 10.400 144.440,10.196 144.800,9.948 144.800 C 9.654 144.800,9.575 145.291,9.723 146.200 C 9.898 147.280,9.812 147.600,9.348 147.600 C 8.935 147.600,8.823 147.843,8.992 148.375 C 9.228 149.119,9.131 149.440,8.033 151.542 C 7.687 152.205,7.677 152.400,8.000 152.200 C 8.327 151.998,8.354 152.129,8.092 152.658 C 7.890 153.066,7.547 153.760,7.329 154.200 C 7.112 154.640,6.893 156.075,6.843 157.388 C 6.793 158.702,6.577 159.986,6.364 160.243 C 5.810 160.911,5.865 175.955,6.424 176.629 C 6.665 176.920,6.829 177.572,6.787 178.079 C 6.445 182.248,7.615 181.720,9.181 177.000 C 15.274 158.640,30.956 141.958,49.144 134.488 C 51.742 133.421,51.758 133.429,52.603 136.301 C 53.391 138.976,53.464 139.174,55.231 143.400 C 56.779 147.102,59.179 151.438,61.077 153.958 L 62.400 155.715 62.400 148.724 C 62.400 144.879,62.567 140.758,62.771 139.567 C 62.975 138.375,63.353 136.140,63.610 134.600 C 64.404 129.855,66.243 123.031,67.626 119.700 C 67.832 119.205,68.155 118.395,68.345 117.900 C 79.589 88.561,116.854 69.067,151.993 74.142 C 156.988 74.863,156.997 74.859,154.759 72.786 C 149.053 67.501,137.169 60.400,134.030 60.400 C 133.567 60.400,132.877 60.242,132.495 60.049 C 131.367 59.480,129.004 58.800,128.152 58.800 C 127.716 58.800,127.189 58.638,126.980 58.441 C 126.580 58.063,124.520 57.703,120.720 57.345 C 119.467 57.227,118.229 56.877,117.971 56.565 C 117.401 55.879,104.217 55.725,103.800 56.400 M196.000 94.024 C 168.408 96.024,145.742 118.487,144.159 145.400 L 143.923 149.400 145.797 146.600 C 149.208 141.502,150.905 139.442,155.187 135.200 C 160.076 130.356,159.948 130.462,164.835 127.177 C 175.441 120.045,187.413 116.364,200.000 116.364 C 220.994 116.364,238.670 125.775,253.036 144.600 C 253.372 145.040,254.119 146.263,254.697 147.319 C 257.875 153.123,255.694 138.088,252.010 128.800 C 244.426 109.677,225.275 95.516,205.200 94.187 C 203.330 94.063,201.350 93.914,200.800 93.855 C 200.250 93.796,198.090 93.872,196.000 94.024 " stroke="none" fill="#bbfbfb" fill-rule="evenodd"></path><path id="path4" d="M322.814 290.928 C 322.806 291.329,323.100 293.181,323.466 295.046 C 326.522 310.598,309.286 321.390,295.884 312.316 C 290.186 308.459,287.996 302.119,289.314 293.300 C 289.520 291.918,289.486 291.200,289.214 291.200 C 288.986 291.200,288.800 291.470,288.800 291.800 C 288.800 292.130,288.654 292.400,288.475 292.400 C 288.296 292.400,287.902 293.030,287.600 293.800 C 287.298 294.570,286.948 295.200,286.823 295.200 C 286.698 295.200,286.342 295.785,286.032 296.500 C 285.723 297.215,284.999 298.520,284.423 299.400 C 283.847 300.280,283.156 301.495,282.888 302.100 C 282.619 302.705,282.196 303.638,281.946 304.174 C 281.697 304.709,281.590 305.519,281.709 305.974 C 281.852 306.520,281.734 306.800,281.363 306.800 C 280.681 306.800,280.560 310.204,281.227 310.616 C 281.862 311.009,282.038 310.663,282.182 308.741 C 282.254 307.783,282.500 306.524,282.731 305.941 C 282.961 305.359,283.040 304.774,282.908 304.641 C 282.775 304.509,282.877 304.400,283.133 304.400 C 283.390 304.400,283.600 304.135,283.600 303.812 C 283.600 303.217,285.066 300.368,285.562 300.000 C 285.710 299.890,286.317 298.810,286.910 297.600 L 287.990 295.400 287.995 298.876 C 287.998 300.788,288.180 302.464,288.400 302.600 C 288.620 302.736,288.800 303.180,288.800 303.586 C 288.800 304.384,290.409 307.715,290.900 307.933 C 291.065 308.007,291.200 308.286,291.200 308.555 C 291.200 310.121,296.167 313.857,300.600 315.626 C 303.529 316.795,309.322 316.786,312.200 315.609 C 314.665 314.601,315.924 313.946,316.984 313.121 C 321.994 309.223,324.392 304.525,324.409 298.572 L 324.418 295.400 325.092 296.800 C 325.463 297.570,325.864 298.290,325.983 298.400 C 326.371 298.758,327.643 300.982,327.871 301.700 C 327.993 302.085,328.252 302.400,328.447 302.400 C 328.641 302.400,328.800 302.850,328.800 303.400 C 328.800 303.950,328.980 304.400,329.200 304.400 C 329.420 304.400,329.600 304.839,329.600 305.376 C 329.600 305.913,329.780 306.464,330.000 306.600 C 330.220 306.736,330.400 307.632,330.400 308.591 C 330.400 310.525,330.701 311.600,331.243 311.600 C 331.439 311.600,331.600 310.520,331.600 309.200 C 331.600 307.867,331.422 306.800,331.200 306.800 C 330.980 306.800,330.800 306.170,330.800 305.400 C 330.800 304.630,330.620 304.000,330.400 304.000 C 330.180 304.000,330.000 303.565,330.000 303.033 C 330.000 302.502,329.865 302.007,329.700 301.933 C 329.535 301.860,328.967 300.945,328.437 299.900 C 327.908 298.855,327.323 298.000,327.137 298.000 C 326.952 298.000,326.800 297.655,326.800 297.233 C 326.800 296.812,326.657 296.407,326.481 296.333 C 326.306 296.260,325.761 295.337,325.271 294.283 C 324.718 293.094,324.208 292.471,323.928 292.644 C 323.680 292.798,323.578 292.759,323.703 292.557 C 323.828 292.355,323.682 291.742,323.379 291.195 C 322.939 290.400,322.826 290.346,322.814 290.928 M76.200 291.600 C 76.064 291.820,76.060 292.000,76.192 292.000 C 76.324 292.000,76.064 292.394,75.616 292.875 C 75.167 293.357,74.800 294.077,74.800 294.475 C 74.800 294.874,74.664 295.200,74.498 295.200 C 74.331 295.200,73.941 295.785,73.630 296.500 C 73.319 297.215,72.960 297.890,72.832 298.000 C 72.446 298.333,71.166 300.553,70.929 301.300 C 70.807 301.685,70.548 302.000,70.353 302.000 C 70.159 302.000,70.000 302.540,70.000 303.200 C 70.000 303.860,69.820 304.400,69.600 304.400 C 69.380 304.400,69.200 304.940,69.200 305.600 C 69.200 306.260,69.011 306.800,68.779 306.800 C 68.522 306.800,68.392 307.731,68.444 309.195 C 68.549 312.105,69.600 311.878,69.600 308.946 C 69.600 307.980,69.759 306.877,69.953 306.495 C 70.148 306.113,70.482 305.350,70.697 304.800 C 71.452 302.861,73.538 298.842,74.017 298.400 C 74.136 298.290,74.537 297.570,74.908 296.800 L 75.582 295.400 75.591 298.876 C 75.596 300.788,75.780 302.464,76.000 302.600 C 76.220 302.736,76.400 303.377,76.400 304.024 C 76.400 304.671,76.580 305.200,76.800 305.200 C 77.020 305.200,77.200 305.483,77.200 305.828 C 77.200 306.618,79.407 309.876,80.838 311.200 C 82.699 312.921,83.595 313.600,84.005 313.600 C 84.222 313.600,84.400 313.736,84.400 313.902 C 84.400 314.874,92.677 317.072,94.752 316.652 C 95.438 316.514,96.585 316.298,97.300 316.173 C 98.551 315.954,99.823 315.502,101.295 314.753 C 101.677 314.559,102.262 314.400,102.595 314.400 C 102.928 314.400,103.200 314.259,103.200 314.086 C 103.200 313.914,103.718 313.467,104.351 313.093 C 106.723 311.692,110.400 307.290,110.400 305.852 C 110.400 305.519,110.580 305.136,110.800 305.000 C 111.020 304.864,111.200 304.324,111.200 303.800 C 111.200 303.276,111.380 302.736,111.600 302.600 C 111.820 302.464,112.004 300.788,112.009 298.876 L 112.018 295.400 112.692 296.800 C 113.063 297.570,113.464 298.290,113.584 298.400 C 113.703 298.510,114.071 299.140,114.400 299.800 C 114.729 300.460,115.089 301.090,115.200 301.200 C 115.406 301.405,115.941 302.547,116.746 304.500 C 116.996 305.105,117.392 306.015,117.626 306.522 C 117.860 307.029,118.019 307.614,117.979 307.822 C 117.703 309.244,118.063 311.200,118.600 311.200 C 119.301 311.200,119.481 307.421,118.800 307.000 C 118.580 306.864,118.400 306.311,118.400 305.771 C 118.400 305.231,118.220 304.432,118.000 303.995 C 117.780 303.558,117.420 302.842,117.200 302.405 C 116.980 301.968,116.800 301.338,116.800 301.005 C 116.800 300.672,116.620 300.400,116.400 300.400 C 116.180 300.400,116.000 300.130,116.000 299.800 C 116.000 299.470,115.820 299.200,115.600 299.200 C 115.380 299.200,115.200 298.930,115.200 298.600 C 115.200 298.270,115.020 298.000,114.800 298.000 C 114.580 298.000,114.400 297.640,114.400 297.200 C 114.400 296.760,114.220 296.400,114.000 296.400 C 113.780 296.400,113.600 296.130,113.600 295.800 C 113.600 295.470,113.420 295.200,113.200 295.200 C 112.980 295.200,112.800 294.840,112.800 294.400 C 112.800 293.960,112.642 293.600,112.449 293.600 C 112.255 293.600,111.873 293.060,111.600 292.400 C 110.440 289.600,110.188 290.874,111.006 295.400 C 112.937 306.087,104.835 315.600,93.800 315.600 C 82.606 315.600,74.340 305.780,76.558 295.117 C 77.359 291.271,77.224 289.944,76.200 291.600 M181.621 293.206 C 181.083 294.303,180.532 295.200,180.396 295.200 C 180.260 295.200,179.902 295.830,179.600 296.600 C 179.298 297.370,178.919 298.000,178.757 298.000 C 178.596 298.000,178.348 298.525,178.207 299.167 C 178.066 299.808,177.666 300.442,177.318 300.576 C 176.970 300.710,176.784 300.917,176.904 301.038 C 177.025 301.158,176.885 301.716,176.593 302.278 C 176.302 302.840,176.158 303.547,176.274 303.850 C 176.391 304.152,176.286 304.400,176.043 304.400 C 175.799 304.400,175.600 304.940,175.600 305.600 C 175.600 306.260,175.420 306.800,175.200 306.800 C 174.980 306.800,174.800 307.790,174.800 309.000 C 174.800 310.210,174.961 311.200,175.157 311.200 C 175.682 311.200,176.000 310.141,176.000 308.391 C 176.000 307.542,176.180 306.736,176.400 306.600 C 176.620 306.464,176.800 306.009,176.800 305.589 C 176.800 305.168,177.160 304.183,177.600 303.400 C 178.040 302.617,178.400 301.711,178.400 301.388 C 178.400 301.065,178.535 300.800,178.700 300.799 C 178.865 300.799,179.540 299.764,180.200 298.499 L 181.400 296.200 181.655 299.200 C 181.969 302.903,183.086 306.382,184.587 308.338 C 186.090 310.296,188.597 312.800,189.055 312.800 C 189.355 312.800,189.600 312.952,189.600 313.137 C 189.600 313.439,192.084 314.779,194.200 315.619 C 197.148 316.788,202.901 316.791,205.800 315.623 C 207.977 314.747,210.400 313.437,210.400 313.137 C 210.400 312.952,210.645 312.800,210.945 312.800 C 211.407 312.800,214.049 310.154,215.400 308.338 C 217.174 305.955,218.400 301.885,218.402 298.372 L 218.403 295.400 219.929 298.400 C 220.767 300.050,221.666 301.805,221.927 302.300 C 223.038 304.414,223.200 304.829,223.200 305.571 C 223.200 306.001,223.380 306.464,223.600 306.600 C 223.820 306.736,224.000 307.542,224.000 308.391 C 224.000 310.141,224.318 311.200,224.843 311.200 C 225.260 311.200,225.333 307.066,224.923 306.656 C 224.771 306.504,224.589 305.979,224.518 305.490 C 224.448 305.000,224.276 304.330,224.135 304.000 C 223.994 303.670,223.826 303.133,223.761 302.807 C 223.697 302.481,223.454 302.151,223.222 302.074 C 222.990 301.997,222.800 301.661,222.800 301.328 C 222.800 300.996,222.445 300.225,222.012 299.617 C 221.578 299.008,221.338 298.395,221.478 298.255 C 221.619 298.115,221.557 298.000,221.341 298.000 C 221.126 298.000,220.702 297.370,220.400 296.600 C 220.098 295.830,219.723 295.200,219.568 295.200 C 219.412 295.200,218.861 294.303,218.342 293.207 C 217.099 290.578,216.668 290.677,217.071 293.500 C 218.119 300.829,216.957 305.755,213.245 309.725 C 201.577 322.203,181.115 313.588,182.567 296.808 C 182.710 295.153,182.931 293.215,183.058 292.500 C 183.396 290.601,182.743 290.922,181.621 293.206 M330.814 314.774 C 330.586 315.199,330.400 316.369,330.400 317.374 C 330.400 318.378,330.220 319.200,330.000 319.200 C 329.780 319.200,329.600 319.633,329.600 320.162 C 329.600 321.034,328.154 324.313,327.554 324.800 C 327.419 324.910,327.193 325.369,327.052 325.820 C 326.800 326.631,322.925 330.837,321.360 332.000 C 318.423 334.182,317.355 334.775,315.831 335.068 C 315.409 335.149,314.824 335.414,314.531 335.657 C 314.239 335.899,314.000 335.965,314.000 335.803 C 314.000 335.641,313.556 335.799,313.014 336.154 C 312.472 336.509,311.222 336.800,310.238 336.800 C 308.398 336.800,307.515 337.328,308.635 337.758 C 309.663 338.152,312.800 338.033,312.800 337.600 C 312.800 337.380,313.162 337.200,313.605 337.200 C 314.383 337.200,314.769 337.058,316.695 336.062 C 317.187 335.808,317.862 335.600,318.195 335.600 C 318.528 335.600,318.800 335.449,318.800 335.264 C 318.800 335.080,319.263 334.717,319.830 334.459 C 321.707 333.604,326.000 329.932,326.000 329.182 C 326.000 328.972,326.180 328.800,326.400 328.800 C 326.620 328.800,326.800 328.570,326.800 328.288 C 326.800 328.007,327.160 327.517,327.600 327.200 C 328.040 326.883,328.400 326.303,328.400 325.912 C 328.400 325.520,328.580 325.200,328.800 325.200 C 329.020 325.200,329.200 324.840,329.200 324.400 C 329.200 323.960,329.380 323.600,329.600 323.600 C 329.820 323.600,330.000 323.251,330.000 322.824 C 330.000 322.397,330.180 321.936,330.400 321.800 C 330.620 321.664,330.800 321.023,330.800 320.376 C 330.800 319.729,330.990 319.200,331.221 319.200 C 331.481 319.200,331.610 318.207,331.558 316.600 C 331.466 313.750,331.421 313.640,330.814 314.774 M68.400 316.813 C 68.400 318.138,68.578 319.200,68.800 319.200 C 69.020 319.200,69.200 319.830,69.200 320.600 C 69.200 321.370,69.380 322.000,69.600 322.000 C 69.820 322.000,70.000 322.360,70.000 322.800 C 70.000 323.240,70.180 323.600,70.400 323.600 C 70.620 323.600,70.800 323.960,70.800 324.400 C 70.800 324.840,70.980 325.200,71.200 325.200 C 71.420 325.200,71.600 325.478,71.600 325.818 C 71.600 326.158,72.050 326.886,72.600 327.436 C 73.150 327.986,73.600 328.593,73.600 328.786 C 73.600 329.173,76.604 332.400,76.965 332.400 C 77.091 332.400,78.044 333.049,79.083 333.843 C 80.998 335.304,82.348 336.000,83.800 336.273 C 84.240 336.355,84.660 336.598,84.733 336.812 C 84.807 337.025,85.381 337.200,86.010 337.200 C 86.638 337.200,87.264 337.380,87.400 337.600 C 87.723 338.122,91.479 338.120,91.802 337.597 C 92.142 337.047,90.926 336.627,89.000 336.629 C 88.120 336.630,87.160 336.398,86.868 336.112 C 86.575 335.826,86.182 335.687,85.995 335.803 C 85.808 335.918,85.542 335.830,85.404 335.607 C 85.266 335.383,84.713 335.200,84.176 335.200 C 83.639 335.200,83.200 335.020,83.200 334.800 C 83.200 334.580,82.840 334.400,82.400 334.400 C 81.960 334.400,81.600 334.220,81.600 334.000 C 81.600 333.780,81.365 333.600,81.078 333.600 C 80.594 333.600,79.969 333.092,76.349 329.757 C 74.587 328.134,72.816 325.922,72.807 325.333 C 72.803 325.077,72.665 324.807,72.500 324.733 C 72.009 324.515,70.400 321.184,70.400 320.386 C 70.400 319.980,70.220 319.536,70.000 319.400 C 69.780 319.264,69.600 318.193,69.600 317.019 C 69.600 315.492,69.430 314.820,69.000 314.655 C 68.508 314.467,68.400 314.855,68.400 316.813 M117.954 316.100 C 117.929 317.035,117.940 318.115,117.979 318.500 C 118.018 318.885,117.859 319.200,117.625 319.200 C 117.391 319.200,117.200 319.633,117.200 320.162 C 117.200 321.148,115.795 324.183,114.900 325.129 C 114.625 325.419,114.400 325.837,114.400 326.056 C 114.400 326.730,108.290 332.749,107.110 333.237 C 106.500 333.490,106.000 333.855,106.000 334.049 C 106.000 334.242,105.728 334.400,105.395 334.400 C 105.062 334.400,104.432 334.580,103.995 334.800 C 103.558 335.020,102.842 335.380,102.405 335.600 C 101.968 335.820,101.248 336.000,100.805 336.000 C 100.362 336.000,100.000 336.162,100.000 336.360 C 100.000 336.558,99.094 336.708,97.986 336.694 C 95.656 336.664,94.456 337.398,96.143 337.821 C 96.726 337.968,97.787 337.983,98.501 337.855 C 99.215 337.728,100.475 337.508,101.300 337.368 C 102.125 337.227,102.800 336.952,102.800 336.756 C 102.800 336.560,103.124 336.400,103.520 336.400 C 104.414 336.400,106.393 335.506,106.397 335.100 C 106.399 334.935,106.670 334.800,107.000 334.800 C 107.330 334.800,107.600 334.620,107.600 334.400 C 107.600 334.180,107.870 334.000,108.200 334.000 C 108.530 334.000,108.800 333.850,108.800 333.668 C 108.800 333.485,109.295 333.080,109.900 332.768 C 111.300 332.045,114.400 328.818,114.400 328.084 C 114.400 327.915,114.760 327.517,115.200 327.200 C 115.640 326.883,116.000 326.303,116.000 325.912 C 116.000 325.520,116.180 325.200,116.400 325.200 C 116.620 325.200,116.800 324.840,116.800 324.400 C 116.800 323.960,116.980 323.600,117.200 323.600 C 117.420 323.600,117.600 323.251,117.600 322.824 C 117.600 322.397,117.780 321.936,118.000 321.800 C 118.220 321.664,118.400 321.124,118.400 320.600 C 118.400 320.076,118.580 319.536,118.800 319.400 C 119.487 318.975,119.304 314.400,118.600 314.400 C 118.168 314.400,117.987 314.876,117.954 316.100 M224.173 315.806 C 224.028 316.579,223.988 317.623,224.084 318.127 C 224.180 318.630,224.005 319.279,223.695 319.569 C 223.385 319.858,223.220 320.434,223.328 320.848 C 223.437 321.261,223.358 321.600,223.153 321.600 C 222.789 321.600,221.820 323.541,221.923 324.062 C 221.951 324.206,221.710 324.543,221.387 324.811 C 221.064 325.079,220.800 325.554,220.800 325.867 C 220.800 326.594,215.413 332.019,213.700 333.016 C 212.985 333.432,212.400 333.933,212.400 334.129 C 212.400 334.325,212.135 334.384,211.811 334.259 C 211.484 334.134,211.051 334.337,210.841 334.713 C 210.631 335.087,210.333 335.266,210.177 335.111 C 210.022 334.955,209.513 335.038,209.047 335.295 C 208.581 335.551,207.840 335.820,207.400 335.892 C 206.960 335.964,206.538 336.203,206.463 336.423 C 206.386 336.646,205.766 336.717,205.059 336.585 C 203.452 336.283,201.143 337.066,202.014 337.617 C 202.800 338.114,205.890 338.102,206.200 337.600 C 206.336 337.380,206.977 337.200,207.624 337.200 C 208.326 337.200,208.800 336.989,208.800 336.677 C 208.800 336.344,209.236 336.184,210.000 336.237 C 210.660 336.283,211.200 336.158,211.200 335.960 C 211.200 335.762,211.436 335.600,211.725 335.600 C 212.013 335.600,212.636 335.240,213.108 334.800 C 213.580 334.360,214.204 334.000,214.495 334.000 C 214.786 334.000,215.283 333.640,215.600 333.200 C 215.917 332.760,216.407 332.400,216.688 332.400 C 216.970 332.400,217.200 332.220,217.200 332.000 C 217.200 331.780,217.425 331.593,217.700 331.584 C 219.784 331.515,224.715 321.840,225.082 317.100 C 225.306 314.194,224.650 313.260,224.173 315.806 M174.917 317.100 C 175.173 320.243,175.965 323.212,176.613 323.460 C 176.908 323.574,177.063 323.892,176.957 324.169 C 176.850 324.446,177.042 324.903,177.382 325.185 C 177.722 325.467,178.000 325.938,178.000 326.231 C 178.000 326.524,178.450 327.214,179.000 327.764 C 179.550 328.314,180.000 328.878,180.000 329.017 C 180.000 329.500,182.966 332.400,183.460 332.400 C 183.732 332.400,184.192 332.715,184.482 333.100 C 184.772 333.485,185.437 334.042,185.960 334.338 C 186.482 334.633,187.520 335.218,188.267 335.638 C 189.014 336.057,189.968 336.400,190.389 336.400 C 190.809 336.400,191.275 336.597,191.423 336.838 C 191.572 337.078,192.087 337.200,192.568 337.108 C 193.049 337.016,193.665 337.179,193.937 337.471 C 194.504 338.077,197.112 338.170,197.990 337.614 C 198.778 337.116,197.115 336.471,195.416 336.616 C 194.757 336.672,193.878 336.480,193.463 336.189 C 193.048 335.898,192.477 335.749,192.195 335.857 C 191.912 335.966,191.562 335.862,191.417 335.627 C 191.272 335.392,190.839 335.200,190.456 335.200 C 190.073 335.200,189.535 334.975,189.260 334.700 C 188.985 334.425,188.634 334.194,188.480 334.187 C 185.518 334.046,176.800 323.696,176.800 320.320 C 176.800 319.950,176.620 319.536,176.400 319.400 C 176.180 319.264,176.000 318.458,176.000 317.609 C 176.000 315.822,175.681 314.800,175.122 314.800 C 174.888 314.800,174.805 315.734,174.917 317.100 M281.043 315.433 C 280.659 316.433,280.760 318.728,281.200 319.000 C 281.420 319.136,281.600 319.681,281.600 320.211 C 281.600 320.742,281.960 321.817,282.400 322.600 C 282.840 323.383,283.200 324.289,283.200 324.612 C 283.200 324.935,283.380 325.200,283.600 325.200 C 283.820 325.200,284.000 325.494,284.000 325.853 C 284.000 326.212,284.324 326.797,284.719 327.153 C 285.114 327.509,285.878 328.430,286.416 329.200 C 287.445 330.674,289.190 332.366,289.704 332.387 C 289.871 332.394,290.572 332.940,291.263 333.600 C 291.954 334.260,292.717 334.804,292.959 334.809 C 293.202 334.814,293.850 335.170,294.400 335.600 C 294.950 336.030,295.794 336.386,296.276 336.391 C 296.758 336.396,297.275 336.597,297.423 336.838 C 297.572 337.078,298.122 337.194,298.644 337.094 C 299.167 336.994,299.798 337.157,300.046 337.456 C 300.581 338.100,303.834 338.192,304.216 337.573 C 304.615 336.928,304.279 336.777,302.150 336.645 C 301.077 336.579,299.390 336.185,298.400 335.771 C 297.410 335.356,296.455 335.061,296.279 335.115 C 296.102 335.170,295.682 334.939,295.346 334.603 C 295.010 334.268,294.589 334.083,294.410 334.194 C 294.230 334.305,293.981 334.126,293.854 333.798 C 293.728 333.469,293.347 333.200,293.007 333.200 C 292.297 333.200,286.519 327.596,285.377 325.800 C 284.143 323.859,283.600 322.745,283.600 322.154 C 283.600 321.849,283.420 321.600,283.200 321.600 C 282.980 321.600,282.800 321.060,282.800 320.400 C 282.800 319.740,282.634 319.200,282.432 319.200 C 282.230 319.200,282.070 318.615,282.077 317.900 C 282.109 314.825,281.674 313.788,281.043 315.433 M146.854 331.134 C 146.333 331.208,145.818 331.611,145.708 332.029 C 145.597 332.455,145.309 332.676,145.055 332.531 C 144.805 332.389,144.736 332.421,144.901 332.604 C 145.067 332.787,144.928 333.356,144.592 333.868 C 144.256 334.381,144.083 334.800,144.206 334.800 C 144.330 334.800,144.064 335.194,143.616 335.675 C 143.167 336.157,142.800 336.787,142.800 337.075 C 142.800 337.364,142.654 337.600,142.475 337.600 C 142.296 337.600,141.902 338.230,141.600 339.000 C 141.298 339.770,140.904 340.400,140.725 340.400 C 140.546 340.400,140.400 340.636,140.400 340.925 C 140.400 341.213,140.040 341.836,139.600 342.308 C 139.160 342.780,138.800 343.444,138.800 343.783 C 138.800 344.122,138.620 344.400,138.400 344.400 C 138.180 344.400,138.000 344.636,138.000 344.925 C 138.000 345.213,137.640 345.836,137.200 346.308 C 136.760 346.780,136.400 347.334,136.400 347.538 C 136.400 347.742,135.680 348.987,134.800 350.305 C 133.920 351.623,133.200 352.903,133.200 353.150 C 133.200 353.398,132.998 353.600,132.750 353.600 C 132.466 353.600,132.386 354.032,132.535 354.774 C 132.664 355.420,132.506 356.959,132.185 358.194 C 131.274 361.692,131.532 363.783,133.345 367.600 C 134.286 369.580,137.693 373.200,138.616 373.200 C 138.937 373.200,139.200 373.380,139.200 373.600 C 139.200 373.820,139.560 374.000,140.000 374.000 C 140.440 374.000,140.800 374.180,140.800 374.400 C 140.800 374.620,141.329 374.800,141.976 374.800 C 142.623 374.800,143.264 374.980,143.400 375.200 C 143.536 375.420,145.066 375.600,146.800 375.600 C 148.534 375.600,150.064 375.420,150.200 375.200 C 150.336 374.980,150.870 374.800,151.386 374.800 C 156.536 374.800,164.076 364.196,162.064 359.781 C 161.809 359.221,161.600 358.241,161.600 357.605 C 161.600 356.968,161.450 356.355,161.267 356.241 C 161.083 356.128,161.014 355.487,161.112 354.818 C 161.220 354.083,161.114 353.600,160.845 353.600 C 160.600 353.600,160.400 353.240,160.400 352.800 C 160.400 352.360,160.220 352.000,160.000 352.000 C 159.780 352.000,159.600 351.807,159.600 351.572 C 159.600 351.337,159.060 350.359,158.400 349.400 C 157.740 348.441,157.200 347.373,157.200 347.028 C 157.200 346.683,157.041 346.400,156.846 346.400 C 156.494 346.400,154.975 343.543,155.168 343.245 C 155.223 343.159,155.092 342.979,154.876 342.845 C 154.485 342.601,150.400 336.119,150.400 335.743 C 150.400 335.633,149.882 334.791,149.248 333.870 C 148.615 332.949,148.030 331.927,147.948 331.598 C 147.856 331.225,147.444 331.050,146.854 331.134 M252.000 331.415 C 252.000 331.783,251.460 332.884,250.800 333.862 C 250.140 334.840,249.600 335.783,249.600 335.958 C 249.600 336.133,249.240 336.602,248.800 337.000 C 248.360 337.398,248.000 337.983,248.000 338.300 C 248.000 338.617,247.664 339.354,247.252 339.938 C 246.841 340.522,246.379 341.405,246.226 341.900 C 246.072 342.395,245.678 342.800,245.349 342.800 C 245.021 342.800,244.851 342.959,244.971 343.153 C 245.091 343.347,244.747 344.157,244.206 344.953 C 243.666 345.749,243.354 346.403,243.512 346.406 C 243.670 346.409,243.618 346.544,243.395 346.706 C 243.172 346.868,242.558 347.855,242.032 348.900 C 241.505 349.945,240.923 350.800,240.737 350.800 C 240.552 350.800,240.400 350.993,240.400 351.229 C 240.400 351.464,240.128 351.929,239.796 352.261 C 239.464 352.593,239.295 353.030,239.420 353.232 C 239.545 353.435,239.443 353.600,239.193 353.600 C 238.937 353.600,238.790 354.079,238.855 354.700 C 238.919 355.305,238.806 356.067,238.605 356.393 C 237.790 357.710,238.182 364.869,239.185 367.000 C 240.822 370.479,246.046 374.800,248.614 374.800 C 249.130 374.800,249.664 374.980,249.800 375.200 C 249.936 375.420,251.466 375.600,253.200 375.600 C 254.934 375.600,256.464 375.420,256.600 375.200 C 256.736 374.980,257.377 374.800,258.024 374.800 C 258.671 374.800,259.200 374.620,259.200 374.400 C 259.200 374.180,259.560 374.000,260.000 374.000 C 260.440 374.000,260.800 373.820,260.800 373.600 C 260.800 373.380,261.055 373.200,261.366 373.200 C 262.241 373.200,265.807 369.589,266.719 367.778 C 268.265 364.710,268.649 361.592,267.876 358.372 C 267.501 356.810,267.303 355.357,267.436 355.142 C 267.681 354.745,266.873 352.365,266.369 352.000 C 266.217 351.890,265.729 351.150,265.284 350.355 C 263.690 347.506,263.390 347.030,262.700 346.245 C 262.315 345.807,262.000 345.213,262.000 344.925 C 262.000 344.636,261.820 344.400,261.600 344.400 C 261.380 344.400,261.200 344.040,261.200 343.600 C 261.200 343.160,261.020 342.800,260.800 342.800 C 260.580 342.800,260.400 342.564,260.400 342.275 C 260.400 341.987,260.076 341.402,259.680 340.975 C 258.912 340.148,258.232 338.794,258.336 338.300 C 258.371 338.135,258.233 338.000,258.029 338.000 C 257.825 338.000,257.405 337.505,257.095 336.900 C 256.784 336.295,256.144 335.125,255.672 334.300 C 255.200 333.475,254.901 332.800,255.007 332.800 C 255.473 332.800,253.597 331.253,252.839 331.013 C 252.215 330.814,252.000 330.918,252.000 331.415 " stroke="none" fill="#3ba4d4" fill-rule="evenodd"></path></g></svg>