<svg id="svg" version="1.1" xmlns="http://www.w3.org/2000/svg" xmlns:xlink="http://www.w3.org/1999/xlink" width="400" height="400" viewBox="0, 0, 400,400"><g id="svgg"><path id="path0" d="M162.762 160.328 C 161.091 162.457,155.421 169.599,150.162 176.199 C 144.903 182.798,140.386 188.468,140.124 188.799 C 139.574 189.494,128.344 203.556,126.693 205.618 C 126.084 206.378,124.884 207.918,124.025 209.039 C 123.167 210.160,122.225 211.330,121.932 211.639 C 121.640 211.948,120.886 212.887,120.259 213.727 C 119.631 214.567,118.641 215.467,118.059 215.727 C 116.895 216.247,114.400 218.566,114.400 219.127 C 114.400 219.322,113.903 220.003,113.296 220.641 C 112.688 221.278,111.752 222.430,111.215 223.200 C 110.678 223.970,110.130 224.690,109.998 224.800 C 109.866 224.910,109.228 225.720,108.580 226.600 C 107.932 227.480,106.907 228.677,106.301 229.260 C 105.696 229.844,105.200 230.497,105.200 230.712 C 105.200 230.927,104.480 231.845,103.600 232.752 C 102.600 233.783,102.000 234.776,102.000 235.400 L 102.000 236.400 129.000 236.400 C 146.733 236.400,156.000 236.537,156.000 236.800 C 156.000 237.020,155.850 237.200,155.668 237.200 C 155.485 237.200,155.080 237.694,154.768 238.297 C 154.455 238.900,153.660 239.965,153.000 240.664 C 150.974 242.807,149.833 244.149,148.800 245.604 C 148.255 246.372,147.312 247.522,146.704 248.159 C 146.097 248.797,145.600 249.490,145.600 249.699 C 145.600 249.908,145.087 250.558,144.459 251.145 C 143.832 251.731,142.995 252.835,142.600 253.600 C 142.205 254.365,141.368 255.469,140.741 256.055 C 140.113 256.642,139.600 257.309,139.600 257.538 C 139.600 257.767,139.277 258.190,138.883 258.477 C 138.489 258.765,137.544 259.800,136.783 260.778 C 136.022 261.756,134.905 263.088,134.300 263.737 C 133.695 264.387,133.200 265.072,133.200 265.259 C 133.200 265.446,132.480 266.341,131.600 267.248 C 130.720 268.155,130.000 269.061,130.000 269.262 C 130.000 269.462,129.370 270.257,128.600 271.027 C 127.830 271.797,127.200 272.573,127.200 272.752 C 127.200 272.931,126.829 273.510,126.376 274.039 C 125.922 274.567,125.202 275.406,124.776 275.903 C 124.349 276.400,124.000 276.895,124.000 277.003 C 124.000 277.111,123.280 277.941,122.400 278.848 C 121.520 279.755,120.800 280.655,120.800 280.848 C 120.800 281.041,120.080 281.941,119.200 282.848 C 118.320 283.755,117.600 284.669,117.600 284.880 C 117.600 285.090,116.880 285.954,116.000 286.800 C 115.120 287.646,114.400 288.555,114.400 288.822 C 114.400 289.088,114.081 289.597,113.691 289.953 C 112.606 290.944,108.733 295.710,108.481 296.365 C 108.359 296.683,107.571 297.654,106.730 298.520 C 105.888 299.387,105.200 300.255,105.200 300.448 C 105.200 300.641,104.480 301.541,103.600 302.448 C 102.720 303.355,102.000 304.252,102.000 304.442 C 102.000 304.631,101.382 305.465,100.627 306.293 C 97.187 310.070,96.696 310.653,96.081 311.693 C 95.722 312.302,95.286 312.800,95.114 312.800 C 94.941 312.800,94.800 313.160,94.800 313.600 C 94.800 314.222,95.067 314.400,96.000 314.400 C 96.660 314.400,97.200 314.220,97.200 314.000 C 97.200 313.780,97.520 313.600,97.912 313.600 C 98.303 313.600,98.883 313.240,99.200 312.800 C 99.517 312.360,100.057 312.000,100.400 312.000 C 100.743 312.000,101.283 311.640,101.600 311.200 C 101.917 310.760,102.457 310.400,102.800 310.400 C 103.143 310.400,103.683 310.040,104.000 309.600 C 104.317 309.160,104.819 308.800,105.115 308.800 C 105.663 308.800,108.490 306.846,108.733 306.300 C 108.807 306.135,109.172 306.000,109.545 306.000 C 109.918 306.000,110.483 305.640,110.800 305.200 C 111.117 304.760,111.657 304.400,112.000 304.400 C 112.343 304.400,112.883 304.040,113.200 303.600 C 113.517 303.160,114.057 302.800,114.400 302.800 C 114.743 302.800,115.283 302.440,115.600 302.000 C 115.917 301.560,116.457 301.200,116.800 301.200 C 117.143 301.200,117.683 300.840,118.000 300.400 C 118.317 299.960,118.814 299.600,119.105 299.600 C 119.396 299.600,120.020 299.240,120.492 298.800 C 120.964 298.360,121.587 298.000,121.875 298.000 C 122.164 298.000,122.400 297.820,122.400 297.600 C 122.400 297.380,122.670 297.200,123.000 297.200 C 123.330 297.200,123.600 297.020,123.600 296.800 C 123.600 296.580,123.870 296.400,124.200 296.400 C 124.530 296.400,124.800 296.220,124.800 296.000 C 124.800 295.780,125.030 295.600,125.312 295.600 C 125.593 295.600,126.083 295.240,126.400 294.800 C 126.717 294.360,127.257 294.000,127.600 294.000 C 127.943 294.000,128.483 293.640,128.800 293.200 C 129.117 292.760,129.697 292.400,130.088 292.400 C 130.480 292.400,130.800 292.247,130.800 292.061 C 130.800 291.874,131.520 291.397,132.400 291.000 C 133.280 290.603,134.000 290.126,134.000 289.939 C 134.000 289.753,134.236 289.600,134.525 289.600 C 134.813 289.600,135.398 289.285,135.825 288.900 C 136.251 288.515,137.095 287.945,137.700 287.632 C 138.305 287.320,138.800 286.915,138.800 286.732 C 138.800 286.550,139.036 286.400,139.325 286.400 C 139.613 286.400,140.236 286.040,140.708 285.600 C 141.180 285.160,141.714 284.800,141.895 284.800 C 142.076 284.800,142.483 284.440,142.800 284.000 C 143.117 283.560,143.657 283.200,144.000 283.200 C 144.343 283.200,144.883 282.840,145.200 282.400 C 145.517 281.960,146.057 281.600,146.400 281.600 C 146.743 281.600,147.283 281.240,147.600 280.800 C 147.917 280.360,148.457 280.000,148.800 280.000 C 149.143 280.000,149.683 279.640,150.000 279.200 C 150.317 278.760,150.897 278.400,151.288 278.400 C 151.680 278.400,152.000 278.220,152.000 278.000 C 152.000 277.780,152.270 277.600,152.600 277.600 C 152.930 277.600,153.200 277.420,153.200 277.200 C 153.200 276.980,153.470 276.800,153.800 276.800 C 154.130 276.800,154.400 276.620,154.400 276.400 C 154.400 276.180,154.670 276.000,155.000 276.000 C 155.330 276.000,155.600 275.840,155.600 275.643 C 155.600 275.447,156.005 275.182,156.500 275.054 C 156.995 274.926,157.917 274.371,158.549 273.822 C 159.181 273.272,160.036 272.716,160.449 272.584 C 160.862 272.453,161.200 272.178,161.200 271.973 C 161.200 271.768,161.436 271.600,161.725 271.600 C 162.013 271.600,162.636 271.240,163.108 270.800 C 163.580 270.360,164.204 270.000,164.495 270.000 C 164.786 270.000,165.283 269.640,165.600 269.200 C 165.917 268.760,166.457 268.400,166.800 268.400 C 167.143 268.400,167.683 268.040,168.000 267.600 C 168.317 267.160,168.857 266.800,169.200 266.800 C 169.543 266.800,170.083 266.440,170.400 266.000 C 170.717 265.560,171.257 265.200,171.600 265.200 C 171.943 265.200,172.483 264.840,172.800 264.400 C 173.117 263.960,173.605 263.600,173.885 263.600 C 174.164 263.600,174.618 263.240,174.893 262.800 C 175.168 262.360,175.669 262.000,176.008 262.000 C 176.346 262.000,176.883 261.640,177.200 261.200 C 177.517 260.760,178.057 260.400,178.400 260.400 C 178.743 260.400,179.283 260.040,179.600 259.600 C 179.917 259.160,180.484 258.800,180.860 258.800 C 181.235 258.800,181.788 258.575,182.087 258.300 C 182.386 258.025,183.029 257.575,183.515 257.300 C 184.002 257.025,184.796 256.575,185.280 256.300 C 185.763 256.025,186.517 255.485,186.955 255.100 C 187.393 254.715,187.904 254.400,188.092 254.400 C 188.280 254.400,188.789 254.069,189.223 253.664 C 189.658 253.259,190.505 252.675,191.107 252.367 C 191.708 252.058,192.491 251.489,192.847 251.103 C 193.203 250.716,193.748 250.400,194.059 250.400 C 194.369 250.400,194.883 250.040,195.200 249.600 C 195.517 249.160,196.057 248.800,196.400 248.800 C 196.743 248.800,197.283 248.440,197.600 248.000 C 197.917 247.560,198.457 247.200,198.800 247.200 C 199.143 247.200,199.683 246.840,200.000 246.400 C 200.317 245.960,200.857 245.600,201.200 245.600 C 201.543 245.600,202.083 245.240,202.400 244.800 C 202.717 244.360,203.257 244.000,203.600 244.000 C 203.943 244.000,204.483 243.640,204.800 243.200 C 205.117 242.760,205.697 242.400,206.088 242.400 C 206.480 242.400,206.800 242.232,206.800 242.027 C 206.800 241.822,207.205 241.526,207.700 241.370 C 208.195 241.213,208.891 240.751,209.247 240.343 C 209.603 239.934,210.148 239.600,210.459 239.600 C 210.769 239.600,211.283 239.240,211.600 238.800 C 211.917 238.360,212.414 238.000,212.705 238.000 C 212.996 238.000,213.620 237.640,214.092 237.200 C 214.564 236.760,215.187 236.400,215.475 236.400 C 215.764 236.400,216.000 236.220,216.000 236.000 C 216.000 235.780,216.236 235.600,216.525 235.600 C 216.813 235.600,217.436 235.240,217.908 234.800 C 218.380 234.360,218.954 234.000,219.183 234.000 C 219.412 234.000,219.600 233.820,219.600 233.600 C 219.600 233.380,219.870 233.200,220.200 233.200 C 220.530 233.200,220.800 233.020,220.800 232.800 C 220.800 232.580,221.070 232.400,221.400 232.400 C 221.730 232.400,222.000 232.220,222.000 232.000 C 222.000 231.780,222.270 231.600,222.600 231.600 C 222.930 231.600,223.200 231.420,223.200 231.200 C 223.200 230.980,223.430 230.800,223.712 230.800 C 223.993 230.800,224.483 230.440,224.800 230.000 C 225.117 229.560,225.657 229.200,226.000 229.200 C 226.343 229.200,226.883 228.840,227.200 228.400 C 227.517 227.960,228.057 227.600,228.400 227.600 C 228.743 227.600,229.283 227.240,229.600 226.800 C 229.917 226.360,230.497 226.000,230.888 226.000 C 231.280 226.000,231.600 225.855,231.600 225.677 C 231.600 225.499,232.320 225.036,233.200 224.648 C 234.080 224.260,234.800 223.775,234.800 223.571 C 234.800 223.367,235.036 223.200,235.325 223.200 C 235.613 223.200,236.198 222.885,236.625 222.500 C 237.051 222.115,237.895 221.545,238.500 221.232 C 239.105 220.920,239.600 220.515,239.600 220.332 C 239.600 220.150,239.868 220.000,240.197 220.000 C 240.525 220.000,241.018 219.640,241.293 219.200 C 241.568 218.760,242.069 218.400,242.408 218.400 C 242.746 218.400,243.283 218.040,243.600 217.600 C 243.917 217.160,244.497 216.800,244.888 216.800 C 245.770 216.800,245.822 216.171,244.967 215.843 C 244.619 215.709,230.746 215.600,214.138 215.600 C 188.144 215.600,183.959 215.520,184.071 215.027 C 184.175 214.567,192.364 203.937,193.182 203.200 C 193.305 203.090,193.896 202.341,194.496 201.535 C 195.097 200.729,195.816 199.824,196.094 199.525 C 196.372 199.225,197.228 198.175,197.994 197.190 C 199.704 194.995,199.709 194.990,203.071 190.797 C 204.572 188.926,206.292 186.736,206.894 185.932 C 207.496 185.127,208.216 184.229,208.494 183.935 C 208.772 183.641,209.492 182.741,210.094 181.935 C 210.696 181.129,211.416 180.229,211.694 179.935 C 211.972 179.641,212.675 178.770,213.255 178.000 C 213.835 177.230,214.645 176.205,215.055 175.723 C 216.000 174.611,218.238 171.815,222.838 166.000 C 224.839 163.470,226.774 161.039,227.138 160.599 C 227.502 160.158,228.400 159.033,229.134 158.099 L 230.467 156.400 198.134 156.428 L 165.800 156.455 162.762 160.328 M261.594 242.700 C 261.590 242.865,261.095 243.564,260.494 244.254 C 257.950 247.170,257.600 247.627,257.600 248.034 C 257.600 248.270,256.880 249.154,256.000 250.000 C 255.120 250.846,254.400 251.746,254.400 252.000 C 254.400 252.254,253.680 253.154,252.800 254.000 C 251.920 254.846,251.200 255.746,251.200 256.000 C 251.200 256.254,250.480 257.154,249.600 258.000 C 248.720 258.846,248.000 259.665,248.000 259.822 C 248.000 259.978,247.676 260.397,247.281 260.753 C 246.886 261.109,246.125 262.030,245.590 262.800 C 245.055 263.570,244.253 264.596,243.809 265.081 C 242.351 266.668,242.000 267.160,242.000 267.614 C 242.000 267.861,241.280 268.754,240.400 269.600 C 239.520 270.446,238.800 271.346,238.800 271.600 C 238.800 271.854,238.080 272.754,237.200 273.600 C 236.320 274.446,235.600 275.265,235.600 275.422 C 235.600 275.578,235.276 275.997,234.881 276.353 C 234.486 276.709,233.728 277.630,233.196 278.400 C 232.665 279.170,231.729 280.277,231.115 280.860 C 230.502 281.444,230.000 282.092,230.000 282.301 C 230.000 282.510,229.495 283.210,228.878 283.856 C 228.260 284.502,227.199 285.834,226.519 286.815 C 225.840 287.797,224.815 289.140,224.242 289.800 C 223.670 290.460,223.201 291.182,223.200 291.404 C 223.200 291.626,222.840 292.032,222.400 292.307 C 221.948 292.590,221.600 293.240,221.600 293.803 L 221.600 294.800 238.400 294.800 C 257.159 294.800,256.404 294.663,253.600 297.552 C 252.720 298.459,252.000 299.352,252.000 299.537 C 252.000 299.722,251.190 300.730,250.200 301.778 C 249.210 302.826,248.400 303.839,248.400 304.029 C 248.400 304.218,247.770 305.003,247.000 305.773 C 246.230 306.543,245.600 307.328,245.600 307.517 C 245.600 307.706,245.139 308.294,244.575 308.823 C 244.011 309.353,243.164 310.419,242.692 311.193 C 242.220 311.967,241.332 313.077,240.717 313.660 C 240.103 314.244,239.600 314.887,239.600 315.090 C 239.600 315.293,238.700 316.422,237.600 317.600 C 236.500 318.778,235.600 319.907,235.600 320.110 C 235.600 320.313,235.060 320.983,234.400 321.600 C 233.740 322.217,233.200 322.933,233.200 323.192 C 233.200 323.451,232.480 324.354,231.600 325.200 C 230.720 326.046,230.000 326.841,230.000 326.968 C 230.000 327.095,229.280 327.941,228.400 328.848 C 227.520 329.755,226.800 330.653,226.800 330.845 C 226.800 331.165,225.734 332.546,224.500 333.825 C 224.225 334.110,224.000 334.550,224.000 334.803 C 224.000 335.056,223.280 335.954,222.400 336.800 C 221.520 337.646,220.800 338.546,220.800 338.800 C 220.800 339.054,220.080 339.954,219.200 340.800 C 218.320 341.646,217.600 342.621,217.600 342.969 C 217.600 343.316,217.420 343.600,217.200 343.600 C 216.980 343.600,216.800 343.870,216.800 344.200 C 216.800 345.111,218.908 344.961,219.600 344.000 C 219.917 343.560,220.431 343.200,220.741 343.200 C 221.052 343.200,221.597 342.885,221.953 342.500 C 222.309 342.115,223.267 341.461,224.081 341.047 C 224.896 340.633,225.924 339.958,226.365 339.547 C 226.806 339.136,227.404 338.800,227.695 338.800 C 227.986 338.800,228.483 338.440,228.800 338.000 C 229.117 337.560,229.657 337.200,230.000 337.200 C 230.343 337.200,230.883 336.840,231.200 336.400 C 231.517 335.960,232.057 335.600,232.400 335.600 C 232.743 335.600,233.283 335.240,233.600 334.800 C 233.917 334.360,234.457 334.000,234.800 334.000 C 235.143 334.000,235.683 333.640,236.000 333.200 C 236.317 332.760,236.857 332.400,237.200 332.400 C 237.543 332.400,238.083 332.040,238.400 331.600 C 238.717 331.160,239.205 330.800,239.484 330.800 C 239.953 330.800,240.930 330.121,242.216 328.900 C 242.506 328.625,242.986 328.400,243.283 328.400 C 243.580 328.400,244.083 328.040,244.400 327.600 C 244.717 327.160,245.257 326.800,245.600 326.800 C 245.943 326.800,246.483 326.440,246.800 326.000 C 247.117 325.560,247.669 325.200,248.027 325.200 C 248.385 325.200,249.087 324.845,249.586 324.412 C 250.086 323.978,250.834 323.516,251.248 323.385 C 251.661 323.254,252.000 322.978,252.000 322.773 C 252.000 322.568,252.236 322.400,252.525 322.400 C 252.813 322.400,253.398 322.085,253.825 321.700 C 254.251 321.315,255.095 320.745,255.700 320.432 C 256.305 320.120,256.800 319.715,256.800 319.532 C 256.800 319.350,257.068 319.200,257.397 319.200 C 257.725 319.200,258.218 318.840,258.493 318.400 C 258.768 317.960,259.269 317.600,259.608 317.600 C 259.946 317.600,260.483 317.240,260.800 316.800 C 261.117 316.360,261.657 316.000,262.000 316.000 C 262.343 316.000,262.883 315.640,263.200 315.200 C 263.517 314.760,264.057 314.400,264.400 314.400 C 264.743 314.400,265.283 314.040,265.600 313.600 C 265.917 313.160,266.457 312.800,266.800 312.800 C 267.143 312.800,267.683 312.440,268.000 312.000 C 268.317 311.560,268.857 311.200,269.200 311.200 C 269.543 311.200,270.083 310.840,270.400 310.400 C 270.717 309.960,271.297 309.600,271.688 309.600 C 272.080 309.600,272.400 309.420,272.400 309.200 C 272.400 308.980,272.615 308.800,272.878 308.800 C 273.353 308.800,276.135 307.039,277.102 306.126 C 277.379 305.866,277.964 305.538,278.402 305.399 C 278.841 305.260,279.200 304.978,279.200 304.773 C 279.200 304.568,279.436 304.400,279.725 304.400 C 280.013 304.400,280.636 304.040,281.108 303.600 C 281.580 303.160,282.204 302.800,282.495 302.800 C 282.786 302.800,283.283 302.440,283.600 302.000 C 283.917 301.560,284.457 301.200,284.800 301.200 C 285.143 301.200,285.683 300.840,286.000 300.400 C 286.317 299.960,286.831 299.600,287.141 299.600 C 287.452 299.600,287.997 299.284,288.353 298.897 C 288.709 298.511,289.495 297.940,290.100 297.630 C 290.705 297.319,291.200 296.915,291.200 296.732 C 291.200 296.550,291.430 296.400,291.712 296.400 C 291.993 296.400,292.483 296.040,292.800 295.600 C 293.117 295.160,293.657 294.800,294.000 294.800 C 294.343 294.800,294.883 294.440,295.200 294.000 C 295.517 293.560,296.057 293.200,296.400 293.200 C 296.743 293.200,297.283 292.840,297.600 292.400 C 297.917 291.960,298.484 291.600,298.860 291.600 C 299.235 291.600,299.781 291.375,300.071 291.100 C 300.362 290.825,301.095 290.345,301.700 290.032 C 302.305 289.720,302.800 289.315,302.800 289.132 C 302.800 288.950,303.160 288.800,303.600 288.800 C 304.040 288.800,304.401 288.665,304.402 288.500 C 304.403 288.335,305.392 287.570,306.600 286.800 C 307.808 286.030,308.797 285.265,308.798 285.100 C 308.799 284.935,309.120 284.800,309.512 284.800 C 309.903 284.800,310.483 284.440,310.800 284.000 C 311.117 283.560,311.615 283.200,311.906 283.200 C 312.637 283.200,314.400 281.374,314.400 280.618 C 314.400 280.069,312.251 280.000,295.200 280.000 C 284.640 280.000,276.000 279.892,276.000 279.760 C 276.000 279.629,276.540 279.017,277.200 278.400 C 277.860 277.783,278.400 277.074,278.400 276.823 C 278.400 276.573,279.120 275.683,280.000 274.846 C 280.880 274.009,281.600 273.206,281.600 273.062 C 281.600 272.919,282.320 272.059,283.200 271.152 C 284.080 270.245,284.800 269.345,284.800 269.152 C 284.800 268.959,285.520 268.059,286.400 267.152 C 287.280 266.245,288.000 265.344,288.000 265.148 C 288.000 264.953,288.558 264.209,289.240 263.496 C 289.923 262.783,290.739 261.701,291.056 261.091 C 291.634 259.973,292.707 258.671,295.100 256.180 C 295.815 255.436,296.400 254.662,296.400 254.462 C 296.400 254.261,297.120 253.355,298.000 252.448 C 298.880 251.541,299.600 250.641,299.600 250.448 C 299.600 250.255,300.320 249.355,301.200 248.448 C 302.080 247.541,302.800 246.602,302.800 246.360 C 302.800 246.119,303.359 245.399,304.043 244.760 C 306.621 242.352,307.048 242.400,283.213 242.400 C 271.326 242.400,261.597 242.535,261.594 242.700 " stroke="none" fill="#f8af0d" fill-rule="evenodd"></path><path id="path1" d="M326.624 232.924 C 325.416 233.664,324.000 235.116,324.000 235.613 C 324.000 235.860,323.280 236.754,322.400 237.600 C 321.520 238.446,320.800 239.346,320.800 239.600 C 320.800 239.854,320.080 240.754,319.200 241.600 C 318.320 242.446,317.600 243.311,317.600 243.524 C 317.600 243.736,317.062 244.335,316.404 244.855 C 315.746 245.375,315.206 246.025,315.204 246.300 C 315.202 246.575,315.020 246.800,314.800 246.800 C 314.580 246.800,314.400 246.980,314.400 247.200 C 314.400 247.419,313.680 248.341,312.800 249.248 C 311.920 250.155,311.200 251.063,311.200 251.266 C 311.200 251.470,310.795 252.070,310.300 252.599 C 308.858 254.141,308.400 254.744,308.400 255.099 C 308.400 255.282,307.680 256.228,306.800 257.200 C 305.920 258.172,305.200 259.280,305.200 259.660 C 305.200 260.041,305.020 260.464,304.800 260.600 C 303.145 261.623,305.727 268.400,307.771 268.400 C 308.117 268.400,308.400 268.580,308.400 268.800 C 308.400 269.376,313.044 269.295,314.092 268.700 C 315.173 268.087,319.200 264.025,319.200 263.547 C 319.200 263.357,319.826 262.538,320.592 261.726 C 321.357 260.915,321.918 260.185,321.839 260.105 C 321.759 260.025,322.482 259.136,323.447 258.130 C 324.411 257.123,325.200 256.125,325.200 255.910 C 325.200 255.696,325.740 255.017,326.400 254.400 C 327.060 253.783,327.600 253.108,327.600 252.899 C 327.600 252.690,328.097 251.997,328.704 251.359 C 329.312 250.722,330.255 249.570,330.801 248.800 C 331.347 248.030,332.380 246.778,333.096 246.017 C 333.812 245.257,334.501 244.312,334.626 243.917 C 334.751 243.523,334.993 243.200,335.163 243.200 C 335.827 243.200,336.400 241.039,336.400 238.533 C 336.400 233.787,330.621 230.471,326.624 232.924 M101.600 250.777 C 101.270 250.959,100.505 251.339,99.900 251.621 C 99.295 251.904,98.800 252.375,98.800 252.668 C 98.800 252.960,98.620 253.200,98.400 253.200 C 98.180 253.200,98.000 253.398,98.000 253.640 C 98.000 253.881,97.441 254.601,96.758 255.240 C 96.074 255.878,95.632 256.400,95.773 256.400 C 96.055 256.400,95.886 256.620,93.798 258.978 C 93.029 259.846,92.400 260.693,92.400 260.860 C 92.400 261.027,91.950 261.614,91.400 262.164 C 90.850 262.714,90.400 263.362,90.400 263.605 C 90.400 263.848,90.220 263.936,90.000 263.800 C 89.780 263.664,89.600 263.833,89.600 264.176 C 89.600 264.519,89.420 264.800,89.200 264.800 C 88.980 264.800,88.800 264.998,88.800 265.240 C 88.800 265.481,88.260 266.183,87.600 266.800 C 86.940 267.417,86.400 268.133,86.400 268.392 C 86.400 268.651,85.680 269.554,84.800 270.400 C 83.920 271.246,83.200 272.137,83.200 272.380 C 83.200 272.624,82.615 273.455,81.900 274.227 C 81.185 274.999,80.147 276.119,79.594 276.716 C 79.041 277.312,78.147 278.430,77.607 279.200 C 77.068 279.970,76.440 280.819,76.213 281.086 C 74.393 283.227,73.200 285.079,73.200 285.762 C 73.200 286.113,73.020 286.400,72.800 286.400 C 72.580 286.400,72.400 287.390,72.400 288.600 C 72.400 289.810,72.580 290.800,72.800 290.800 C 73.020 290.800,73.200 291.078,73.200 291.418 C 73.200 292.114,74.940 294.000,75.582 294.000 C 75.812 294.000,76.000 294.180,76.000 294.400 C 76.000 294.631,77.269 294.800,79.007 294.800 L 82.015 294.800 84.607 292.207 C 86.033 290.781,87.200 289.498,87.200 289.354 C 87.200 289.211,87.524 288.803,87.919 288.447 C 88.314 288.091,89.075 287.170,89.608 286.400 C 90.859 284.595,90.970 284.454,92.399 282.858 C 93.059 282.119,93.600 281.360,93.600 281.171 C 93.600 280.982,94.230 280.197,95.000 279.427 C 95.770 278.657,96.400 277.862,96.400 277.662 C 96.400 277.461,97.120 276.555,98.000 275.648 C 98.880 274.741,99.600 273.910,99.600 273.800 C 99.600 273.691,100.230 272.934,101.000 272.118 C 101.770 271.301,102.400 270.512,102.400 270.364 C 102.400 270.216,103.208 269.218,104.196 268.147 C 105.183 267.076,105.993 266.063,105.996 265.896 C 105.998 265.729,106.548 265.019,107.219 264.318 C 107.889 263.616,108.719 262.448,109.064 261.721 C 109.409 260.995,109.851 260.400,110.046 260.400 C 110.562 260.400,110.480 254.897,109.949 253.904 C 108.423 251.054,104.064 249.421,101.600 250.777 M18.500 288.544 C 18.005 288.789,17.600 289.127,17.600 289.295 C 17.600 289.463,17.240 289.600,16.800 289.600 C 16.351 289.600,16.000 289.867,16.000 290.207 C 16.000 290.541,15.415 291.407,14.700 292.133 C 12.930 293.928,10.669 296.671,9.368 298.600 C 8.775 299.480,7.955 300.491,7.545 300.847 C 7.135 301.203,6.800 301.676,6.800 301.899 C 6.800 302.121,6.080 303.045,5.200 303.952 C 4.320 304.859,3.600 305.759,3.600 305.952 C 3.600 306.145,2.835 307.090,1.900 308.052 L 0.200 309.800 0.065 313.620 C -0.077 317.645,0.992 320.000,2.960 320.000 C 3.312 320.000,3.600 320.180,3.600 320.400 C 3.600 320.973,7.443 320.895,8.499 320.300 C 9.625 319.666,13.600 315.736,13.600 315.257 C 13.600 315.059,14.320 314.155,15.200 313.248 C 16.080 312.341,16.800 311.419,16.800 311.200 C 16.800 310.980,16.980 310.800,17.200 310.800 C 17.420 310.800,17.600 310.612,17.600 310.382 C 17.600 310.152,18.005 309.554,18.500 309.054 C 19.649 307.892,22.821 304.143,23.586 303.043 C 24.208 302.148,24.365 301.946,25.596 300.452 C 26.025 299.931,26.484 299.166,26.615 298.752 C 26.746 298.339,27.022 298.000,27.227 298.000 C 27.432 298.000,27.600 296.554,27.600 294.787 C 27.600 291.439,26.107 288.800,24.213 288.800 C 23.876 288.800,23.600 288.620,23.600 288.400 C 23.600 287.867,19.642 287.978,18.500 288.544 M212.011 310.470 C 211.247 310.918,210.291 311.670,209.886 312.142 C 209.482 312.614,208.817 313.390,208.408 313.866 C 207.999 314.342,207.456 315.122,207.201 315.598 C 206.946 316.075,206.121 317.118,205.369 317.916 C 204.616 318.714,204.000 319.503,204.000 319.670 C 204.000 319.837,203.370 320.603,202.600 321.373 C 201.830 322.143,201.200 322.959,201.200 323.187 C 201.200 323.414,201.020 323.600,200.800 323.600 C 200.580 323.600,200.400 323.798,200.400 324.040 C 200.400 324.281,199.860 324.983,199.200 325.600 C 198.540 326.217,198.000 326.847,198.000 327.000 C 198.000 327.153,197.460 327.783,196.800 328.400 C 196.140 329.017,195.600 329.719,195.600 329.960 C 195.600 330.202,195.420 330.400,195.200 330.400 C 194.980 330.400,194.800 330.580,194.800 330.799 C 194.800 331.019,194.170 331.866,193.400 332.682 C 192.630 333.499,192.000 334.399,192.000 334.683 C 192.000 334.967,191.280 335.941,190.400 336.848 C 189.520 337.755,188.800 338.669,188.800 338.880 C 188.800 339.090,188.080 339.954,187.200 340.800 C 186.320 341.646,185.600 342.456,185.600 342.600 C 185.600 342.745,184.880 343.597,184.000 344.495 C 183.120 345.393,182.400 346.285,182.400 346.477 C 182.400 346.669,181.770 347.457,181.000 348.227 C 180.230 348.997,179.600 349.795,179.600 350.000 C 179.600 350.205,178.989 350.985,178.242 351.732 C 177.494 352.479,176.639 353.541,176.342 354.093 C 175.719 355.245,173.815 357.698,172.500 359.043 C 172.005 359.549,171.600 360.152,171.600 360.382 C 171.600 360.612,171.420 360.800,171.200 360.800 C 170.980 360.800,170.800 361.149,170.800 361.576 C 170.800 362.003,170.620 362.464,170.400 362.600 C 170.180 362.736,170.000 363.636,170.000 364.600 C 170.000 365.564,170.180 366.464,170.400 366.600 C 170.620 366.736,170.800 367.125,170.800 367.464 C 170.800 368.276,173.342 370.800,174.160 370.800 C 174.512 370.800,174.800 370.980,174.800 371.200 C 174.800 371.420,175.599 371.600,176.576 371.600 C 177.553 371.600,178.464 371.420,178.600 371.200 C 178.736 370.980,179.152 370.795,179.524 370.789 C 180.224 370.778,183.200 368.243,183.200 367.658 C 183.200 367.476,184.010 366.470,185.000 365.422 C 185.990 364.374,186.800 363.361,186.800 363.171 C 186.800 362.982,187.385 362.224,188.100 361.487 C 188.815 360.750,189.580 359.875,189.800 359.542 C 191.149 357.501,193.179 354.887,194.300 353.748 C 195.015 353.021,195.600 352.241,195.600 352.013 C 195.600 351.786,195.780 351.600,196.000 351.600 C 196.220 351.600,196.400 351.402,196.400 351.160 C 196.400 350.919,196.940 350.217,197.600 349.600 C 198.260 348.983,198.800 348.319,198.800 348.123 C 198.800 347.927,199.609 346.874,200.598 345.783 C 201.587 344.692,202.397 343.693,202.398 343.562 C 202.399 343.431,202.858 342.801,203.417 342.162 C 203.977 341.523,204.832 340.485,205.317 339.856 C 205.803 339.227,206.695 338.186,207.300 337.543 C 207.905 336.899,208.400 336.207,208.400 336.004 C 208.400 335.802,208.809 335.223,209.309 334.718 C 209.808 334.213,210.655 333.170,211.190 332.400 C 211.725 331.630,212.449 330.730,212.800 330.400 C 213.151 330.070,213.877 329.172,214.414 328.404 C 215.386 327.015,216.359 325.852,218.550 323.457 C 221.489 320.244,222.596 315.808,221.137 313.082 C 219.521 310.063,214.943 308.753,212.011 310.470 M153.800 317.200 C 153.936 317.420,153.841 317.600,153.589 317.600 C 153.057 317.600,148.800 321.930,148.800 322.472 C 148.800 322.672,148.395 323.256,147.900 323.768 C 147.405 324.280,146.656 325.127,146.236 325.650 C 145.815 326.172,145.005 327.157,144.436 327.837 C 143.866 328.517,143.130 329.487,142.800 329.992 C 142.470 330.497,141.795 331.327,141.300 331.837 C 140.805 332.347,140.400 332.952,140.400 333.182 C 140.400 333.412,140.220 333.600,140.000 333.600 C 139.780 333.600,139.600 333.798,139.600 334.040 C 139.600 334.281,139.060 334.983,138.400 335.600 C 137.740 336.217,137.200 336.933,137.200 337.192 C 137.200 337.451,136.480 338.354,135.600 339.200 C 134.720 340.046,134.000 340.932,134.000 341.169 C 134.000 341.407,133.325 342.315,132.500 343.187 C 129.789 346.055,127.810 348.369,127.645 348.866 C 127.555 349.135,127.103 349.761,126.641 350.258 C 125.176 351.832,124.800 352.354,124.800 352.814 C 124.800 353.061,124.080 353.954,123.200 354.800 C 122.320 355.646,121.600 356.510,121.600 356.720 C 121.600 356.931,120.880 357.845,120.000 358.752 C 119.120 359.659,118.400 360.581,118.400 360.800 C 118.400 361.020,118.220 361.200,118.000 361.200 C 117.446 361.200,117.489 367.046,118.051 368.096 C 118.791 369.479,120.309 370.800,121.158 370.800 C 121.595 370.800,122.064 370.980,122.200 371.200 C 123.381 373.111,128.631 370.206,131.599 366.000 C 132.142 365.230,133.175 364.009,133.893 363.287 C 134.612 362.564,135.200 361.818,135.200 361.629 C 135.200 361.440,135.695 360.741,136.300 360.076 C 138.622 357.526,140.622 355.043,141.161 354.042 C 141.470 353.469,142.018 352.730,142.380 352.400 C 142.742 352.070,143.478 351.170,144.016 350.400 C 144.554 349.630,145.580 348.377,146.297 347.617 C 147.014 346.856,147.600 346.113,147.600 345.967 C 147.600 345.820,148.230 345.013,149.000 344.172 C 149.770 343.331,150.400 342.513,150.400 342.353 C 150.400 342.193,151.120 341.356,152.000 340.493 C 152.880 339.631,153.600 338.727,153.600 338.485 C 153.600 338.243,153.922 337.810,154.316 337.523 C 154.710 337.235,155.467 336.370,155.997 335.600 C 156.528 334.830,157.243 333.930,157.587 333.600 C 157.930 333.270,158.715 332.221,159.332 331.269 C 159.948 330.317,160.981 328.985,161.626 328.310 C 162.272 327.634,162.800 326.838,162.800 326.541 C 162.800 326.243,162.952 326.000,163.137 326.000 C 163.322 326.000,163.512 324.830,163.558 323.400 C 163.610 321.793,163.481 320.800,163.221 320.800 C 162.990 320.800,162.800 320.522,162.800 320.182 C 162.800 319.382,161.018 317.600,160.218 317.600 C 159.878 317.600,159.600 317.420,159.600 317.200 C 159.600 316.969,158.325 316.800,156.576 316.800 C 154.663 316.800,153.644 316.947,153.800 317.200 M93.079 327.591 C 91.619 328.320,88.013 331.836,88.004 332.540 C 88.002 332.726,87.460 333.383,86.800 334.000 C 86.140 334.617,85.600 335.284,85.600 335.482 C 85.600 335.681,85.015 336.492,84.300 337.285 C 82.404 339.387,81.600 340.381,81.600 340.623 C 81.600 340.740,81.195 341.251,80.700 341.757 C 79.168 343.324,77.859 344.911,76.211 347.200 C 75.340 348.410,74.306 349.691,73.914 350.047 C 73.521 350.403,73.200 350.912,73.200 351.178 C 73.200 351.445,72.480 352.354,71.600 353.200 C 70.720 354.046,70.000 354.946,70.000 355.200 C 70.000 355.454,69.280 356.354,68.400 357.200 C 67.520 358.046,66.800 358.892,66.800 359.080 C 66.800 359.269,66.440 359.683,66.000 360.000 C 65.560 360.317,65.200 360.897,65.200 361.288 C 65.200 361.680,65.020 362.000,64.800 362.000 C 64.577 362.000,64.400 363.076,64.400 364.428 C 64.400 366.925,66.285 370.766,67.225 370.185 C 67.431 370.057,67.600 370.143,67.600 370.376 C 67.600 370.609,67.949 370.800,68.376 370.800 C 68.803 370.800,69.264 370.980,69.400 371.200 C 70.228 372.539,76.800 370.102,76.800 368.456 C 76.800 368.205,76.980 368.000,77.200 368.000 C 77.420 368.000,77.600 367.820,77.600 367.601 C 77.600 367.381,78.320 366.437,79.200 365.503 C 80.080 364.569,80.800 363.644,80.800 363.449 C 80.800 363.254,81.124 362.803,81.519 362.447 C 81.914 362.091,82.672 361.170,83.204 360.400 C 83.735 359.630,84.671 358.523,85.285 357.940 C 85.898 357.356,86.400 356.766,86.400 356.629 C 86.400 356.491,86.985 355.738,87.700 354.954 C 88.415 354.171,89.180 353.202,89.400 352.800 C 89.620 352.398,90.385 351.429,91.100 350.646 C 91.815 349.862,92.400 349.058,92.400 348.859 C 92.400 348.660,93.120 347.755,94.000 346.848 C 94.880 345.941,95.600 345.041,95.600 344.848 C 95.600 344.655,96.320 343.755,97.200 342.848 C 98.080 341.941,98.800 341.108,98.800 340.996 C 98.800 340.884,99.340 340.228,100.000 339.537 C 100.660 338.846,101.200 338.053,101.200 337.774 C 101.200 337.495,101.398 337.201,101.640 337.120 C 101.910 337.030,102.074 335.775,102.067 333.851 C 102.054 330.475,100.197 327.600,98.031 327.600 C 97.574 327.600,97.200 327.420,97.200 327.200 C 97.200 326.541,94.708 326.778,93.079 327.591 M302.214 329.680 C 301.205 330.265,300.146 331.353,298.399 333.597 C 297.630 334.586,296.505 335.918,295.900 336.557 C 295.295 337.196,294.800 337.884,294.800 338.086 C 294.800 338.288,294.172 339.116,293.403 339.927 C 292.635 340.737,292.005 341.588,292.003 341.818 C 292.002 342.047,291.280 342.917,290.400 343.751 C 289.520 344.585,288.800 345.450,288.800 345.673 C 288.800 345.896,288.260 346.583,287.600 347.200 C 286.940 347.817,286.400 348.519,286.400 348.760 C 286.400 349.002,286.220 349.200,286.000 349.200 C 285.780 349.200,285.600 349.386,285.600 349.613 C 285.600 349.841,284.970 350.657,284.200 351.427 C 283.430 352.197,282.800 352.979,282.800 353.166 C 282.800 353.353,281.992 354.382,281.004 355.453 C 280.017 356.524,279.207 357.533,279.204 357.697 C 279.202 357.860,278.705 358.490,278.100 359.097 C 275.359 361.847,275.013 367.070,277.414 369.471 C 279.125 371.182,283.519 372.302,284.200 371.200 C 284.336 370.980,284.814 370.800,285.263 370.800 C 286.208 370.800,288.737 368.249,290.492 365.526 C 290.873 364.935,291.638 363.998,292.192 363.444 C 292.746 362.890,293.200 362.242,293.200 362.005 C 293.200 361.768,293.785 360.964,294.500 360.220 C 296.548 358.088,297.732 356.701,298.789 355.196 C 299.328 354.428,300.271 353.323,300.885 352.740 C 301.498 352.156,302.000 351.481,302.000 351.240 C 302.000 350.998,302.180 350.800,302.400 350.800 C 302.620 350.800,302.800 350.620,302.800 350.401 C 302.800 350.181,303.430 349.334,304.200 348.518 C 304.970 347.701,305.600 346.899,305.600 346.735 C 305.600 346.571,306.058 345.978,306.618 345.418 C 307.178 344.858,307.504 344.400,307.342 344.400 C 307.180 344.400,307.396 344.145,307.824 343.832 C 308.251 343.520,308.623 343.070,308.650 342.832 C 308.678 342.595,308.723 342.232,308.750 342.027 C 308.778 341.822,309.128 341.550,309.528 341.423 C 311.263 340.872,313.196 333.200,311.600 333.200 C 311.380 333.200,311.200 332.922,311.200 332.582 C 311.200 331.908,309.865 330.492,308.483 329.700 C 307.399 329.079,303.273 329.066,302.214 329.680 M34.000 335.200 C 34.000 335.420,33.764 335.600,33.475 335.600 C 32.817 335.600,30.800 337.670,30.800 338.345 C 30.800 338.621,30.620 338.736,30.400 338.600 C 30.180 338.464,30.000 338.549,30.000 338.790 C 30.000 339.030,29.370 339.857,28.600 340.627 C 27.830 341.397,27.199 342.156,27.198 342.313 C 27.197 342.471,26.657 343.175,25.998 343.878 C 25.339 344.581,24.800 345.309,24.800 345.495 C 24.800 345.681,23.991 346.726,23.002 347.817 C 22.013 348.908,21.203 349.929,21.202 350.087 C 21.201 350.244,20.591 350.983,19.846 351.728 C 19.101 352.473,18.271 353.493,18.002 353.996 C 17.733 354.499,16.988 355.470,16.346 356.155 C 13.967 358.694,12.347 360.963,12.127 362.065 C 12.002 362.689,11.767 363.200,11.604 363.200 C 11.231 363.200,11.263 365.730,11.639 366.000 C 11.792 366.110,11.981 366.650,12.059 367.200 C 12.329 369.110,15.767 371.600,18.135 371.600 C 19.160 371.600,22.000 370.647,22.000 370.303 C 22.000 370.136,22.189 370.000,22.419 370.000 C 22.965 370.000,24.704 368.023,25.043 367.018 C 25.188 366.587,26.002 365.566,26.853 364.749 C 27.704 363.932,28.400 363.054,28.400 362.800 C 28.400 362.546,29.120 361.646,30.000 360.800 C 30.880 359.954,31.600 359.108,31.600 358.920 C 31.600 358.731,31.960 358.317,32.400 358.000 C 32.840 357.683,33.200 357.285,33.200 357.116 C 33.200 356.789,34.085 355.641,35.409 354.250 C 35.853 353.782,36.662 352.770,37.204 352.000 C 37.747 351.230,38.706 350.060,39.336 349.400 C 39.966 348.740,40.758 347.660,41.096 347.000 C 41.435 346.340,41.822 345.710,41.956 345.600 C 43.080 344.679,43.810 338.800,42.800 338.800 C 42.580 338.800,42.400 338.531,42.400 338.203 C 42.400 337.320,40.766 335.600,39.928 335.600 C 39.528 335.600,39.200 335.420,39.200 335.200 C 39.200 334.974,38.067 334.800,36.600 334.800 C 35.133 334.800,34.000 334.974,34.000 335.200 " stroke="none" fill="#bcdce4" fill-rule="evenodd"></path><path id="path2" d="M185.738 28.894 C 186.134 29.146,178.392 29.431,176.860 29.221 C 176.563 29.180,176.438 29.339,176.583 29.573 C 176.752 29.846,176.262 30.018,175.224 30.050 C 173.278 30.110,173.120 30.136,172.579 30.481 C 172.347 30.629,171.239 30.806,170.116 30.874 C 168.994 30.942,168.159 31.133,168.261 31.299 C 168.364 31.465,167.852 31.627,167.124 31.661 C 165.431 31.739,165.230 31.781,163.866 32.340 C 163.243 32.596,162.540 32.687,162.305 32.541 C 162.051 32.384,161.993 32.465,162.162 32.738 C 162.348 33.040,162.101 33.200,161.447 33.200 C 160.897 33.200,160.336 33.380,160.200 33.600 C 160.064 33.820,159.601 34.000,159.171 34.000 C 158.741 34.000,158.077 34.159,157.695 34.353 C 157.313 34.548,156.460 34.929,155.800 35.200 C 155.140 35.471,154.287 35.852,153.905 36.047 C 153.523 36.241,152.841 36.400,152.389 36.400 C 151.937 36.400,151.180 36.760,150.708 37.200 C 150.236 37.640,149.523 38.000,149.125 38.000 C 148.726 38.000,148.400 38.180,148.400 38.400 C 148.400 38.620,148.130 38.800,147.800 38.800 C 147.470 38.800,147.200 38.980,147.200 39.200 C 147.200 39.420,146.649 39.600,145.976 39.600 C 145.303 39.600,144.854 39.763,144.977 39.962 C 145.100 40.161,144.120 40.823,142.800 41.432 C 141.480 42.042,140.400 42.689,140.400 42.870 C 140.400 43.052,140.212 43.200,139.983 43.200 C 139.754 43.200,138.558 43.945,137.325 44.855 C 136.093 45.766,135.209 46.261,135.361 45.955 C 135.513 45.650,135.337 45.805,134.970 46.300 C 134.603 46.795,134.098 47.200,133.847 47.200 C 133.597 47.200,133.168 47.560,132.893 48.000 C 132.618 48.440,132.215 48.800,131.997 48.800 C 131.779 48.800,130.859 49.520,129.952 50.400 C 129.045 51.280,128.135 52.000,127.928 52.000 C 127.722 52.000,127.664 52.180,127.800 52.400 C 127.936 52.620,127.778 52.800,127.449 52.800 C 126.807 52.800,120.400 59.045,120.400 59.671 C 120.400 59.878,120.255 59.958,120.078 59.848 C 119.901 59.739,119.424 60.264,119.019 61.016 C 118.614 61.768,117.949 62.489,117.542 62.619 C 117.134 62.748,116.800 63.067,116.799 63.327 C 116.799 63.587,116.259 64.430,115.600 65.200 C 114.941 65.970,114.401 66.746,114.401 66.924 C 114.400 67.102,114.216 67.133,113.990 66.994 C 113.765 66.855,113.630 66.918,113.690 67.135 C 113.812 67.572,112.980 68.934,111.900 70.066 C 111.515 70.470,111.186 70.935,111.169 71.100 C 111.109 71.696,109.445 74.400,109.139 74.400 C 108.966 74.400,108.929 74.670,109.055 75.000 C 109.182 75.330,109.086 75.600,108.843 75.600 C 108.599 75.600,108.400 75.960,108.400 76.400 C 108.400 76.840,108.220 77.200,108.000 77.200 C 107.780 77.200,107.600 77.470,107.600 77.800 C 107.600 78.130,107.420 78.400,107.200 78.400 C 106.980 78.400,106.800 78.760,106.800 79.200 C 106.800 79.640,106.654 80.000,106.475 80.000 C 106.296 80.000,105.905 80.622,105.607 81.382 C 105.309 82.142,104.915 82.671,104.732 82.558 C 104.550 82.445,104.400 82.903,104.400 83.576 C 104.400 84.249,104.249 84.800,104.064 84.800 C 103.879 84.800,103.488 85.565,103.194 86.500 C 102.901 87.435,102.512 88.371,102.330 88.580 C 102.149 88.789,102.000 89.374,102.000 89.880 C 102.000 90.386,101.820 90.800,101.600 90.800 C 101.380 90.800,101.200 91.160,101.200 91.600 C 101.200 92.040,101.020 92.400,100.800 92.400 C 100.580 92.400,100.421 92.535,100.447 92.700 C 100.601 93.670,100.349 95.216,100.067 95.041 C 99.688 94.807,99.710 94.659,99.451 99.200 C 99.344 101.070,99.080 103.410,98.864 104.400 C 97.222 111.932,97.509 126.543,99.491 136.400 C 100.937 143.588,100.938 143.600,100.459 143.600 C 99.022 143.600,87.283 132.206,83.368 127.010 C 78.642 120.739,73.505 111.759,71.236 105.800 C 70.733 104.480,70.178 103.040,70.001 102.600 C 69.530 101.424,68.958 99.637,68.400 97.600 C 68.129 96.610,67.728 95.308,67.508 94.707 C 67.289 94.106,67.200 93.378,67.311 93.088 C 67.462 92.694,67.047 92.580,65.656 92.634 C 64.635 92.673,63.800 92.740,63.800 92.783 C 63.800 92.918,62.258 93.173,60.739 93.289 C 59.935 93.350,59.349 93.516,59.436 93.658 C 59.661 94.022,58.815 94.250,57.338 94.223 C 56.644 94.210,56.148 94.315,56.235 94.456 C 56.322 94.597,55.726 94.837,54.910 94.990 C 54.095 95.143,52.971 95.504,52.414 95.792 C 51.856 96.081,50.950 96.380,50.400 96.458 C 49.850 96.536,49.294 96.744,49.164 96.920 C 49.034 97.096,48.552 97.268,48.092 97.303 C 47.632 97.338,47.344 97.509,47.451 97.683 C 47.559 97.857,47.292 98.000,46.857 98.000 C 46.422 98.000,46.004 98.188,45.927 98.418 C 45.851 98.648,45.394 98.865,44.911 98.902 C 44.429 98.938,44.107 99.040,44.196 99.129 C 44.423 99.356,40.721 101.196,40.033 101.198 C 39.722 101.199,39.586 101.319,39.732 101.465 C 39.878 101.611,38.786 102.543,37.306 103.535 C 35.827 104.528,34.263 105.669,33.833 106.070 C 33.402 106.472,32.892 106.800,32.701 106.800 C 32.509 106.800,32.464 106.980,32.600 107.200 C 32.736 107.420,32.681 107.600,32.478 107.600 C 32.275 107.600,31.614 108.095,31.009 108.700 C 30.404 109.305,29.705 109.808,29.455 109.818 C 29.205 109.828,29.045 110.053,29.100 110.318 C 29.155 110.583,28.919 110.800,28.576 110.800 C 28.233 110.800,28.051 110.960,28.172 111.155 C 28.293 111.350,28.089 111.755,27.719 112.055 C 27.142 112.523,27.088 112.515,27.338 112.000 C 27.499 111.670,27.398 111.749,27.115 112.176 C 26.832 112.604,26.195 113.377,25.700 113.895 C 25.205 114.413,24.800 114.989,24.800 115.175 C 24.800 115.362,24.519 115.622,24.175 115.754 C 23.831 115.886,23.661 116.176,23.798 116.397 C 23.935 116.619,23.899 116.800,23.718 116.800 C 23.537 116.800,22.944 117.520,22.400 118.400 C 21.856 119.280,21.295 120.000,21.152 120.000 C 21.010 120.000,20.787 120.315,20.658 120.700 C 20.216 122.011,18.913 123.979,18.656 123.723 C 18.515 123.582,18.400 123.932,18.400 124.500 C 18.400 125.068,18.259 125.593,18.087 125.667 C 17.538 125.900,16.000 128.816,16.000 129.623 C 16.000 130.050,15.820 130.400,15.600 130.400 C 15.380 130.400,15.200 130.839,15.200 131.376 C 15.200 131.913,15.020 132.464,14.800 132.600 C 14.580 132.736,14.400 133.199,14.400 133.629 C 14.400 134.059,14.232 134.723,14.027 135.105 C 13.821 135.487,13.422 136.655,13.139 137.700 C 12.857 138.745,12.505 139.600,12.357 139.600 C 12.210 139.600,12.097 139.825,12.107 140.100 C 12.176 141.957,11.951 144.017,11.696 143.859 C 11.528 143.756,11.371 144.510,11.347 145.536 C 11.246 149.729,11.057 151.559,10.742 151.364 C 10.559 151.251,10.489 151.393,10.586 151.679 C 11.029 152.982,11.077 157.171,10.646 156.913 C 10.324 156.720,10.319 156.806,10.629 157.223 C 11.083 157.833,11.272 159.277,11.343 162.666 C 11.367 163.803,11.524 164.647,11.693 164.543 C 11.996 164.355,12.052 164.700,12.150 167.362 C 12.177 168.111,12.308 168.657,12.439 168.576 C 12.571 168.494,12.915 169.456,13.204 170.714 C 13.493 171.971,13.880 173.171,14.064 173.380 C 14.249 173.589,14.400 174.354,14.400 175.080 C 14.400 175.806,14.536 176.400,14.702 176.400 C 14.869 176.400,15.229 176.940,15.502 177.600 C 15.776 178.260,16.224 179.340,16.498 180.000 C 16.771 180.660,17.131 181.200,17.298 181.200 C 17.464 181.200,17.600 181.465,17.600 181.788 C 17.600 182.353,18.559 184.250,19.809 186.157 C 20.136 186.656,20.267 187.213,20.101 187.396 C 19.936 187.579,20.025 187.599,20.300 187.441 C 20.609 187.263,20.800 187.391,20.800 187.776 C 20.800 188.119,20.980 188.400,21.200 188.400 C 21.420 188.400,21.600 188.771,21.600 189.224 C 21.600 189.677,21.780 189.936,22.000 189.800 C 22.220 189.664,22.400 189.750,22.400 189.991 C 22.400 190.232,22.805 190.878,23.300 191.428 C 25.380 193.737,25.600 194.016,25.600 194.339 C 25.600 194.718,26.982 196.400,27.294 196.400 C 27.723 196.400,33.393 202.175,33.290 202.507 C 33.230 202.701,33.338 202.762,33.530 202.643 C 33.825 202.461,36.976 204.455,37.600 205.219 C 37.710 205.354,38.385 205.719,39.100 206.030 C 39.815 206.341,40.400 206.690,40.400 206.806 C 40.400 206.922,41.210 207.459,42.200 208.000 C 43.190 208.541,44.000 209.122,44.000 209.292 C 44.000 209.461,44.461 209.600,45.024 209.600 C 45.604 209.600,45.940 209.773,45.800 210.000 C 45.654 210.236,46.097 210.403,46.876 210.406 C 47.878 210.411,48.054 210.507,47.600 210.800 C 47.154 211.088,47.384 211.189,48.500 211.194 C 49.325 211.197,50.000 211.380,50.000 211.600 C 50.000 211.820,50.450 212.000,51.000 212.000 C 51.550 212.000,52.000 212.180,52.000 212.400 C 52.000 212.620,52.439 212.800,52.976 212.800 C 53.513 212.800,54.064 212.980,54.200 213.200 C 54.336 213.420,54.966 213.600,55.600 213.600 C 56.234 213.600,56.864 213.780,57.000 214.000 C 57.136 214.220,58.047 214.400,59.024 214.400 C 60.001 214.400,60.800 214.580,60.800 214.800 C 60.800 215.020,61.711 215.200,62.824 215.200 C 64.033 215.200,64.750 215.357,64.607 215.589 C 64.452 215.839,73.830 215.984,90.937 215.994 L 117.508 216.011 118.654 214.672 C 120.366 212.671,121.253 211.586,122.800 209.600 C 124.243 207.748,124.962 206.853,126.000 205.620 C 126.330 205.227,127.050 204.310,127.600 203.580 C 128.150 202.850,129.230 201.499,130.000 200.577 C 131.471 198.815,136.121 192.943,138.241 190.171 C 139.466 188.568,140.269 187.582,141.745 185.866 C 142.155 185.390,142.965 184.374,143.545 183.608 C 144.125 182.842,144.897 181.852,145.259 181.408 C 145.622 180.964,148.285 177.630,151.178 174.000 C 154.071 170.370,156.657 167.130,156.925 166.800 C 157.192 166.470,158.039 165.390,158.806 164.400 C 159.572 163.411,160.479 162.331,160.819 162.000 C 161.159 161.670,161.875 160.770,162.410 160.000 C 162.944 159.230,163.910 158.015,164.555 157.300 L 165.729 156.000 191.764 156.000 C 221.219 156.001,255.601 156.413,255.598 156.765 C 255.597 156.894,248.622 165.746,240.098 176.435 C 231.574 187.124,224.060 196.556,223.400 197.395 C 222.740 198.234,219.375 202.448,215.922 206.760 L 209.643 214.600 227.436 214.704 C 242.762 214.794,245.260 214.891,245.457 215.404 C 245.803 216.307,325.723 216.306,327.454 215.402 C 328.084 215.074,328.918 214.804,329.307 214.802 C 331.305 214.796,337.993 212.684,341.789 210.862 C 352.383 205.777,360.849 196.836,364.761 186.600 C 365.265 185.280,365.824 183.840,366.002 183.400 C 366.180 182.960,366.535 181.700,366.791 180.600 C 367.047 179.500,367.452 177.818,367.691 176.861 C 369.617 169.159,366.723 152.662,362.337 146.338 C 361.931 145.754,361.600 145.140,361.600 144.974 C 361.600 144.361,357.005 138.590,354.639 136.232 C 348.203 129.815,339.747 125.356,330.362 123.429 L 329.324 123.216 329.342 116.508 C 329.360 110.009,328.748 104.694,327.536 100.800 C 322.624 85.020,315.798 75.701,302.636 66.801 C 300.150 65.120,296.003 63.091,291.444 61.324 C 289.488 60.565,287.622 59.679,287.296 59.354 C 286.795 58.852,286.605 58.845,286.052 59.307 C 285.694 59.606,285.040 59.840,284.600 59.826 C 284.160 59.812,283.672 59.980,283.515 60.200 C 283.358 60.420,282.811 60.606,282.299 60.613 C 281.787 60.620,280.836 61.000,280.184 61.458 C 279.533 61.916,278.684 62.241,278.298 62.180 C 277.912 62.120,277.698 62.234,277.822 62.435 C 277.946 62.636,277.789 62.800,277.473 62.800 C 277.157 62.800,276.676 63.068,276.404 63.396 C 276.132 63.723,275.762 63.900,275.582 63.789 C 275.402 63.678,275.142 63.770,275.004 63.993 C 274.866 64.217,274.418 64.400,274.010 64.400 C 273.601 64.400,273.207 64.547,273.133 64.728 C 273.060 64.908,271.830 65.841,270.400 66.800 C 268.970 67.759,267.740 68.692,267.667 68.872 C 267.426 69.465,266.380 69.215,266.110 68.500 C 265.964 68.115,265.608 67.560,265.319 67.268 C 265.029 66.975,264.912 66.542,265.058 66.306 C 265.215 66.051,265.136 65.993,264.862 66.162 C 264.608 66.319,264.400 66.292,264.400 66.102 C 264.400 65.912,263.772 65.071,263.004 64.233 C 262.237 63.395,261.726 62.505,261.869 62.255 C 262.011 62.005,261.986 61.929,261.812 62.086 C 261.497 62.370,260.686 61.598,258.000 58.456 C 257.230 57.555,256.403 56.814,256.161 56.809 C 255.920 56.804,255.560 56.468,255.361 56.062 C 255.163 55.656,253.740 54.188,252.200 52.801 C 250.660 51.413,249.449 50.112,249.510 49.909 C 249.570 49.706,249.450 49.646,249.242 49.774 C 249.035 49.902,248.243 49.421,247.482 48.704 C 246.722 47.987,245.969 47.381,245.808 47.358 C 245.399 47.299,244.006 46.332,243.134 45.500 C 242.730 45.115,242.324 44.845,242.232 44.900 C 242.140 44.955,241.615 44.610,241.066 44.132 C 240.518 43.655,239.967 43.366,239.844 43.490 C 239.720 43.613,239.510 43.430,239.376 43.083 C 239.243 42.735,238.917 42.534,238.653 42.635 C 238.388 42.737,237.781 42.455,237.303 42.010 C 236.825 41.564,236.156 41.200,235.817 41.200 C 235.478 41.200,235.200 41.020,235.200 40.800 C 235.200 40.580,234.975 40.396,234.700 40.391 C 234.425 40.386,233.750 40.030,233.200 39.600 C 232.650 39.170,231.885 38.814,231.500 38.809 C 231.115 38.804,230.800 38.620,230.800 38.400 C 230.800 38.180,230.528 38.000,230.195 38.000 C 229.607 38.000,229.182 37.833,227.305 36.862 C 226.813 36.608,226.138 36.400,225.805 36.400 C 225.472 36.400,225.200 36.220,225.200 36.000 C 225.200 35.780,224.851 35.600,224.424 35.600 C 223.997 35.600,223.536 35.420,223.400 35.200 C 223.264 34.980,222.713 34.800,222.176 34.800 C 221.639 34.800,221.200 34.620,221.200 34.400 C 221.200 34.180,220.838 34.000,220.395 34.000 C 219.952 34.000,219.277 33.825,218.895 33.611 C 217.812 33.006,212.630 31.600,211.480 31.600 C 210.912 31.600,210.336 31.420,210.200 31.200 C 210.064 30.980,209.233 30.800,208.353 30.800 C 207.245 30.800,206.841 30.658,207.038 30.338 C 207.195 30.084,207.161 29.971,206.962 30.086 C 206.654 30.265,203.398 29.920,200.600 29.412 C 200.160 29.332,198.394 29.252,196.676 29.233 C 194.958 29.215,193.636 29.065,193.738 28.900 C 193.840 28.735,191.977 28.600,189.599 28.600 C 187.221 28.600,185.483 28.732,185.738 28.894 M71.905 92.683 C 72.402 92.779,73.122 92.775,73.505 92.675 C 73.887 92.575,73.480 92.496,72.600 92.501 C 71.720 92.505,71.407 92.587,71.905 92.683 M63.600 232.712 C 63.600 233.054,61.202 234.142,60.670 234.042 C 60.489 234.008,60.455 234.166,60.596 234.393 C 60.736 234.620,60.581 234.909,60.251 235.036 C 59.921 235.163,59.748 235.521,59.868 235.833 C 60.005 236.191,59.824 236.400,59.376 236.400 C 58.986 236.400,58.772 236.505,58.901 236.634 C 59.029 236.763,58.429 237.617,57.567 238.532 C 56.705 239.447,56.000 240.333,56.000 240.501 C 56.000 240.670,55.460 241.372,54.800 242.063 C 54.140 242.754,53.600 243.480,53.600 243.678 C 53.600 244.218,51.721 245.988,51.442 245.709 C 51.309 245.576,51.200 245.777,51.200 246.157 C 51.200 246.577,51.019 246.735,50.738 246.562 C 50.480 246.402,50.384 246.451,50.521 246.672 C 50.806 247.134,47.662 251.448,47.148 251.300 C 46.956 251.245,46.845 251.350,46.900 251.533 C 46.996 251.852,45.074 254.412,43.400 256.195 C 42.554 257.096,41.773 258.219,41.324 259.181 C 40.898 260.093,38.741 262.211,38.351 262.100 C 38.158 262.045,38.021 262.135,38.047 262.300 C 38.173 263.097,37.960 263.622,37.600 263.400 C 37.380 263.264,37.200 263.419,37.200 263.745 C 37.200 264.070,36.480 265.064,35.600 265.953 C 34.720 266.842,34.000 267.673,34.000 267.801 C 34.000 267.929,33.640 268.420,33.200 268.892 C 32.760 269.364,32.400 269.987,32.400 270.275 C 32.400 270.564,32.100 270.800,31.733 270.800 C 31.367 270.800,31.187 270.920,31.334 271.068 C 31.481 271.215,31.286 271.684,30.901 272.110 C 30.515 272.535,30.237 273.000,30.283 273.142 C 30.328 273.284,30.259 273.821,30.130 274.336 C 29.598 276.457,31.390 279.662,33.912 281.100 C 34.862 281.642,38.878 281.789,39.367 281.300 C 39.532 281.135,39.807 281.000,39.979 281.000 C 40.435 281.000,44.000 277.309,44.000 276.837 C 44.000 276.287,45.898 274.431,46.176 274.709 C 46.299 274.832,46.400 274.633,46.400 274.267 C 46.400 273.900,46.580 273.600,46.800 273.600 C 47.020 273.600,47.200 273.397,47.200 273.148 C 47.200 272.476,49.888 269.626,50.232 269.934 C 50.395 270.081,50.411 269.995,50.269 269.745 C 50.126 269.495,50.282 269.064,50.615 268.787 C 50.949 268.511,51.779 267.455,52.462 266.442 C 53.144 265.429,54.049 264.240,54.474 263.800 C 54.898 263.360,56.086 261.920,57.112 260.600 C 58.138 259.280,59.117 258.140,59.289 258.067 C 59.460 257.993,59.600 257.678,59.600 257.367 C 59.600 257.055,59.780 256.800,60.000 256.800 C 60.220 256.800,60.400 256.602,60.400 256.360 C 60.400 256.119,60.940 255.417,61.600 254.800 C 62.260 254.183,62.800 253.573,62.800 253.444 C 62.800 253.217,63.154 252.762,65.111 250.468 C 66.178 249.218,66.251 249.126,68.102 246.701 C 68.880 245.683,69.625 244.958,69.758 245.091 C 69.891 245.224,70.000 245.033,70.000 244.667 C 70.000 244.300,70.149 244.000,70.332 244.000 C 72.013 244.000,72.762 238.327,71.447 235.557 C 70.415 233.380,63.600 230.910,63.600 232.712 M366.400 250.800 C 366.400 251.020,366.085 251.206,365.700 251.214 C 364.982 251.229,362.716 252.360,363.355 252.386 C 363.550 252.394,363.235 252.875,362.655 253.455 C 362.075 254.035,361.600 254.665,361.600 254.855 C 361.600 255.045,361.319 255.200,360.976 255.200 C 360.622 255.200,360.471 255.391,360.627 255.644 C 360.778 255.888,360.461 256.473,359.922 256.944 C 359.384 257.415,358.602 258.385,358.185 259.100 C 357.769 259.815,357.286 260.400,357.114 260.400 C 356.941 260.400,356.800 260.595,356.800 260.833 C 356.800 261.072,356.167 261.882,355.393 262.633 C 354.619 263.385,354.092 264.000,354.221 264.000 C 354.351 264.000,354.219 264.240,353.929 264.534 C 353.638 264.828,353.050 265.537,352.623 266.110 C 352.196 266.683,351.673 267.045,351.461 266.914 C 351.250 266.783,351.193 266.865,351.336 267.096 C 351.479 267.328,350.971 268.210,350.207 269.058 C 349.443 269.906,348.814 270.825,348.809 271.100 C 348.804 271.375,348.524 271.600,348.187 271.600 C 347.851 271.600,347.458 271.915,347.315 272.300 C 347.172 272.685,346.716 273.301,346.301 273.670 C 345.887 274.038,345.514 274.488,345.474 274.670 C 345.433 274.851,345.252 274.951,345.070 274.890 C 344.889 274.830,344.870 274.989,345.027 275.244 C 345.198 275.520,344.600 276.361,343.557 277.315 C 342.591 278.199,342.070 278.791,342.400 278.631 C 342.730 278.471,342.651 278.624,342.224 278.970 C 341.796 279.317,341.581 279.600,341.744 279.600 C 341.907 279.600,341.492 280.185,340.822 280.900 C 340.152 281.615,339.603 282.346,339.602 282.524 C 339.601 282.702,339.392 282.719,339.138 282.562 C 338.861 282.390,338.785 282.452,338.948 282.715 C 339.097 282.957,338.585 283.789,337.809 284.564 C 337.034 285.339,336.400 286.159,336.400 286.387 C 336.400 286.614,336.220 286.800,336.000 286.800 C 335.780 286.800,335.600 287.004,335.600 287.253 C 335.600 287.502,335.285 287.997,334.900 288.353 C 334.267 288.938,334.057 289.386,333.847 290.600 C 333.809 290.820,333.662 291.185,333.520 291.411 C 331.934 293.943,336.558 298.800,340.556 298.800 C 342.624 298.800,347.200 295.677,347.200 294.265 C 347.200 293.934,349.065 291.766,350.300 290.661 C 350.795 290.218,351.200 289.608,351.200 289.304 C 351.200 289.001,351.380 288.864,351.600 289.000 C 351.820 289.136,352.005 289.012,352.011 288.724 C 352.028 287.919,354.240 285.177,354.605 285.508 C 354.783 285.668,354.822 285.613,354.693 285.384 C 354.563 285.156,355.164 284.203,356.029 283.267 C 356.893 282.331,357.600 281.416,357.600 281.233 C 357.600 281.050,358.230 280.213,359.000 279.372 C 359.770 278.531,360.404 277.654,360.409 277.422 C 360.414 277.190,361.134 276.381,362.009 275.624 C 362.884 274.867,363.600 274.012,363.600 273.724 C 363.600 273.436,363.780 273.200,364.000 273.200 C 364.220 273.200,364.400 273.021,364.400 272.803 C 364.400 272.120,366.100 270.415,366.522 270.675 C 366.750 270.816,366.800 270.723,366.636 270.459 C 366.476 270.199,366.624 269.889,366.972 269.755 C 367.315 269.624,367.495 269.354,367.372 269.155 C 367.250 268.957,367.431 268.686,367.775 268.554 C 368.119 268.422,368.400 268.141,368.400 267.929 C 368.400 267.322,369.471 266.407,369.817 266.719 C 369.988 266.874,370.005 266.786,369.855 266.524 C 369.705 266.262,370.095 265.452,370.722 264.724 C 374.418 260.430,375.660 256.579,374.127 254.168 C 373.835 253.711,373.718 253.216,373.865 253.068 C 374.013 252.921,373.833 252.800,373.467 252.800 C 373.100 252.800,372.800 252.638,372.800 252.440 C 372.800 252.241,372.160 251.701,371.377 251.240 C 369.898 250.367,366.400 250.058,366.400 250.800 M198.383 261.200 C 198.043 261.530,197.289 262.150,196.707 262.577 C 196.124 263.004,195.739 263.502,195.851 263.682 C 195.963 263.863,195.329 264.708,194.442 265.559 C 193.556 266.411,192.779 267.349,192.715 267.644 C 192.652 267.939,192.411 268.388,192.179 268.640 C 191.948 268.892,191.138 269.869,190.379 270.809 C 189.621 271.750,188.386 273.168,187.636 273.960 C 186.886 274.752,186.280 275.490,186.289 275.600 C 186.327 276.064,185.306 277.173,185.064 276.931 C 184.919 276.786,184.800 276.972,184.800 277.346 C 184.800 277.719,184.531 278.128,184.202 278.254 C 183.874 278.381,183.704 278.645,183.826 278.842 C 183.948 279.039,183.895 279.200,183.710 279.200 C 183.524 279.200,183.080 279.695,182.721 280.300 C 182.363 280.905,181.674 281.850,181.190 282.400 C 180.706 282.950,179.860 283.983,179.310 284.696 C 178.761 285.409,178.120 285.874,177.888 285.730 C 177.625 285.568,177.559 285.717,177.715 286.124 C 177.854 286.484,177.732 286.919,177.446 287.089 C 177.159 287.260,176.381 288.159,175.716 289.087 C 175.051 290.014,174.364 290.644,174.189 290.487 C 174.015 290.329,173.991 290.409,174.137 290.664 C 174.283 290.919,173.772 291.778,173.001 292.571 C 172.231 293.365,171.596 294.146,171.591 294.307 C 171.577 294.735,168.934 297.601,168.736 297.403 C 168.643 297.310,168.538 297.629,168.502 298.111 C 168.465 298.594,168.248 299.051,168.018 299.127 C 167.329 299.357,167.581 303.667,168.361 305.000 C 169.999 307.801,174.996 309.399,176.875 307.724 C 177.246 307.393,177.741 307.240,177.975 307.384 C 178.209 307.529,178.400 307.406,178.400 307.112 C 178.400 306.817,178.760 306.317,179.200 306.000 C 179.640 305.683,180.000 305.282,180.000 305.108 C 180.000 304.935,180.437 304.300,180.972 303.697 C 181.506 303.093,182.289 302.198,182.712 301.707 C 183.135 301.216,183.627 300.946,183.805 301.107 C 183.983 301.268,184.002 301.181,183.848 300.913 C 183.687 300.632,184.085 299.885,184.784 299.153 C 185.453 298.454,186.000 297.728,186.000 297.541 C 186.000 297.353,186.281 297.200,186.624 297.200 C 186.967 297.200,187.136 297.020,187.000 296.800 C 186.864 296.580,186.973 296.400,187.243 296.400 C 187.513 296.400,187.624 296.291,187.491 296.157 C 187.235 295.901,187.518 295.495,189.300 293.564 C 189.905 292.909,190.400 292.226,190.400 292.047 C 190.400 291.569,191.848 289.982,192.076 290.210 C 192.184 290.317,192.686 289.599,193.193 288.614 C 193.699 287.629,194.268 286.919,194.457 287.035 C 194.646 287.152,194.800 287.032,194.800 286.769 C 194.800 286.507,195.259 285.866,195.821 285.346 C 196.382 284.826,196.723 284.400,196.578 284.400 C 196.434 284.400,196.874 283.878,197.558 283.240 C 198.241 282.601,198.800 281.883,198.800 281.643 C 198.800 281.403,199.160 280.982,199.600 280.707 C 200.040 280.432,200.400 279.981,200.400 279.704 C 200.400 279.427,200.551 279.200,200.736 279.200 C 200.920 279.200,201.281 278.740,201.537 278.177 C 201.816 277.567,202.189 277.269,202.464 277.439 C 202.755 277.619,202.814 277.547,202.626 277.243 C 202.445 276.950,202.902 276.221,203.793 275.381 C 204.598 274.621,205.109 273.995,204.928 273.988 C 204.748 273.981,204.915 273.792,205.300 273.568 C 205.685 273.344,206.000 272.912,206.000 272.609 C 206.000 272.306,206.405 271.726,206.900 271.319 C 208.786 269.771,208.695 262.400,206.790 262.400 C 206.575 262.400,206.400 262.130,206.400 261.800 C 206.400 261.470,206.265 261.237,206.100 261.282 C 205.935 261.327,205.170 261.149,204.400 260.887 C 202.563 260.262,199.166 260.438,198.383 261.200 M60.958 301.320 C 60.275 301.804,59.195 302.830,58.558 303.600 C 57.922 304.370,57.086 305.349,56.700 305.775 C 56.315 306.202,56.000 306.697,56.000 306.875 C 56.000 307.054,55.325 307.907,54.500 308.771 C 52.403 310.969,52.000 311.496,52.000 312.050 C 52.000 312.316,51.881 312.414,51.736 312.269 C 51.590 312.124,51.261 312.409,51.003 312.902 C 50.745 313.396,50.311 313.751,50.038 313.690 C 49.764 313.630,49.641 313.743,49.764 313.942 C 49.888 314.142,49.496 314.927,48.894 315.687 C 48.292 316.448,47.450 317.539,47.023 318.111 C 46.596 318.684,46.096 319.059,45.913 318.946 C 45.730 318.833,45.614 318.889,45.655 319.070 C 45.696 319.252,45.516 319.918,45.255 320.551 C 44.754 321.768,44.790 326.852,45.298 326.539 C 45.462 326.438,45.806 326.815,46.063 327.377 C 46.319 327.940,46.770 328.400,47.064 328.400 C 47.359 328.400,47.600 328.580,47.600 328.800 C 47.600 329.020,48.061 329.200,48.624 329.200 C 49.204 329.200,49.540 329.373,49.400 329.600 C 49.249 329.844,49.855 330.000,50.953 330.000 C 51.943 330.000,52.864 329.820,53.000 329.600 C 53.136 329.380,53.565 329.200,53.954 329.200 C 54.342 329.200,54.962 328.885,55.332 328.500 C 55.702 328.115,56.633 327.143,57.402 326.340 C 58.171 325.537,58.800 324.709,58.800 324.499 C 58.800 324.290,59.340 323.554,60.000 322.863 C 60.660 322.172,61.200 321.502,61.200 321.372 C 61.200 321.243,61.893 320.451,62.741 319.612 C 63.588 318.773,64.392 317.797,64.528 317.443 C 64.664 317.090,64.952 316.800,65.169 316.800 C 65.385 316.800,65.861 316.172,66.225 315.404 C 66.590 314.635,67.076 314.123,67.306 314.265 C 67.536 314.407,67.609 314.338,67.468 314.110 C 67.328 313.883,68.005 312.847,68.973 311.807 L 70.734 309.917 70.704 306.754 C 70.688 305.015,70.584 303.683,70.473 303.794 C 70.362 303.905,70.071 303.591,69.825 303.098 C 68.613 300.661,63.370 299.610,60.958 301.320 M322.800 305.600 C 322.800 305.820,322.448 306.000,322.017 306.000 C 321.259 306.000,316.800 310.182,316.800 310.892 C 316.800 311.085,316.261 311.819,315.602 312.522 C 314.943 313.225,314.403 313.903,314.402 314.028 C 314.401 314.153,313.860 314.861,313.200 315.600 C 312.540 316.339,312.000 317.282,312.000 317.696 C 312.000 318.109,311.849 318.354,311.665 318.240 C 311.481 318.127,311.400 318.791,311.485 319.717 C 311.570 320.643,311.661 321.653,311.686 321.963 C 311.796 323.272,315.015 326.000,316.451 326.000 C 317.215 326.000,318.082 326.225,318.379 326.500 C 318.810 326.900,318.861 326.900,318.635 326.500 C 318.429 326.135,318.798 326.000,320.000 326.000 C 320.996 326.000,321.550 325.842,321.400 325.600 C 321.264 325.380,321.406 325.200,321.715 325.200 C 322.303 325.200,324.198 323.727,324.203 323.266 C 324.205 323.120,324.520 322.555,324.903 322.011 C 325.286 321.467,325.600 321.159,325.600 321.327 C 325.600 321.494,325.853 321.399,326.162 321.116 C 326.471 320.832,326.719 320.510,326.714 320.400 C 326.677 319.569,326.861 319.190,327.200 319.400 C 327.420 319.536,327.600 319.412,327.600 319.124 C 327.601 318.420,329.413 316.346,329.740 316.674 C 329.883 316.817,330.000 316.554,330.000 316.090 C 330.000 315.627,330.180 315.136,330.400 315.000 C 330.620 314.864,330.800 313.503,330.800 311.976 C 330.800 310.392,330.628 309.200,330.400 309.200 C 330.180 309.200,330.000 308.840,330.000 308.400 C 330.000 307.960,329.854 307.600,329.675 307.600 C 329.497 307.600,328.952 307.228,328.465 306.774 C 327.977 306.320,327.223 305.922,326.789 305.889 C 326.355 305.857,326.000 305.688,326.000 305.515 C 326.000 305.342,325.280 305.200,324.400 305.200 C 323.520 305.200,322.800 305.380,322.800 305.600 M232.738 351.046 C 232.155 351.354,231.125 352.235,230.451 353.003 C 229.776 353.772,229.045 354.400,228.825 354.400 C 228.605 354.400,228.519 354.643,228.633 354.941 C 228.747 355.238,228.246 356.015,227.520 356.666 C 223.860 359.949,221.843 365.901,223.747 367.804 C 224.096 368.153,224.611 368.754,224.891 369.138 C 225.171 369.522,226.030 370.128,226.800 370.483 C 230.640 372.257,233.213 371.119,237.158 365.900 C 238.115 364.635,239.085 363.600,239.315 363.600 C 239.545 363.600,239.617 363.484,239.476 363.342 C 239.334 363.201,239.754 362.475,240.409 361.729 C 241.064 360.983,241.600 359.939,241.600 359.410 C 241.600 358.880,241.780 358.336,242.000 358.200 C 242.220 358.064,242.400 357.434,242.400 356.800 C 242.400 356.166,242.220 355.536,242.000 355.400 C 241.780 355.264,241.600 354.803,241.600 354.376 C 241.600 353.949,241.420 353.600,241.200 353.600 C 240.980 353.600,240.800 353.373,240.800 353.096 C 240.800 352.605,239.979 351.952,238.054 350.911 C 236.841 350.255,234.103 350.325,232.738 351.046 " stroke="none" fill="#24a4bc" fill-rule="evenodd"></path><path id="path3" d="M188.291 28.689 C 189.001 28.777,190.261 28.779,191.091 28.692 C 191.921 28.605,191.340 28.533,189.800 28.531 C 188.260 28.529,187.581 28.600,188.291 28.689 M193.200 28.793 C 193.879 29.240,195.081 29.347,194.656 28.923 C 194.504 28.771,193.979 28.590,193.490 28.522 C 192.784 28.423,192.724 28.479,193.200 28.793 M206.400 30.393 C 207.079 30.840,208.281 30.947,207.856 30.523 C 207.704 30.371,207.179 30.190,206.690 30.122 C 205.984 30.023,205.924 30.079,206.400 30.393 M136.884 44.615 C 136.222 45.366,136.770 45.349,137.776 44.587 C 138.322 44.174,138.382 44.005,137.976 44.015 C 137.659 44.024,137.168 44.294,136.884 44.615 M298.000 57.234 C 298.000 57.435,296.639 57.600,294.976 57.600 C 293.063 57.600,292.044 57.747,292.200 58.000 C 292.349 58.241,291.821 58.400,290.874 58.400 C 285.904 58.400,286.068 59.240,291.444 61.324 C 296.003 63.091,300.150 65.120,302.636 66.801 C 315.798 75.701,322.624 85.020,327.536 100.800 C 328.748 104.694,329.360 110.009,329.342 116.508 L 329.324 123.216 330.362 123.429 C 339.747 125.356,348.203 129.815,354.639 136.232 C 357.005 138.590,361.600 144.361,361.600 144.974 C 361.600 145.140,361.931 145.754,362.337 146.338 C 366.754 152.706,369.620 169.186,367.663 176.961 C 367.408 177.973,367.003 179.655,366.763 180.700 C 366.523 181.745,366.180 182.960,366.002 183.400 C 365.824 183.840,365.265 185.280,364.761 186.600 C 359.190 201.176,345.362 212.060,328.714 214.971 C 324.043 215.788,327.772 216.007,343.671 215.848 C 360.581 215.680,365.200 215.447,365.200 214.763 C 365.200 214.563,365.819 214.400,366.576 214.400 C 367.333 214.400,368.064 214.220,368.200 214.000 C 368.336 213.780,368.797 213.600,369.224 213.600 C 369.651 213.600,370.000 213.420,370.000 213.200 C 370.000 212.980,370.540 212.800,371.200 212.800 C 371.860 212.800,372.400 212.620,372.400 212.400 C 372.400 212.180,372.760 212.000,373.200 212.000 C 373.640 212.000,374.000 211.820,374.000 211.600 C 374.000 211.380,374.270 211.200,374.600 211.200 C 374.930 211.200,375.200 211.020,375.200 210.800 C 375.200 210.580,375.560 210.400,376.000 210.400 C 376.440 210.400,376.800 210.220,376.800 210.000 C 376.800 209.780,377.160 209.600,377.600 209.600 C 378.040 209.600,378.400 209.423,378.400 209.208 C 378.400 208.992,378.895 208.693,379.500 208.544 C 380.105 208.394,380.891 207.941,381.247 207.536 C 381.603 207.131,382.091 206.800,382.333 206.800 C 382.985 206.800,391.200 198.466,391.200 197.804 C 391.200 197.492,391.650 196.786,392.200 196.236 C 392.750 195.686,393.200 194.958,393.200 194.618 C 393.200 194.278,393.380 194.000,393.600 194.000 C 393.820 194.000,394.000 193.680,394.000 193.288 C 394.000 192.897,394.360 192.317,394.800 192.000 C 395.240 191.683,395.600 191.103,395.600 190.712 C 395.600 190.320,395.780 190.000,396.000 190.000 C 396.220 190.000,396.400 189.550,396.400 189.000 C 396.400 188.450,396.580 188.000,396.800 188.000 C 397.020 188.000,397.200 187.640,397.200 187.200 C 397.200 186.760,397.380 186.400,397.600 186.400 C 397.820 186.400,398.000 185.759,398.000 184.976 C 398.000 184.129,398.162 183.653,398.400 183.800 C 398.632 183.944,398.800 183.549,398.800 182.857 C 398.800 182.202,399.021 181.593,399.292 181.503 C 400.144 181.219,399.976 156.800,399.122 156.800 C 398.945 156.800,398.800 156.080,398.800 155.200 C 398.800 154.320,398.620 153.600,398.400 153.600 C 398.180 153.600,398.000 153.240,398.000 152.800 C 398.000 152.360,397.820 152.000,397.600 152.000 C 397.380 152.000,397.200 151.460,397.200 150.800 C 397.200 150.140,397.020 149.600,396.800 149.600 C 396.580 149.600,396.400 149.240,396.400 148.800 C 396.400 148.360,396.220 148.000,396.000 148.000 C 395.780 148.000,395.600 147.640,395.600 147.200 C 395.600 146.760,395.420 146.400,395.200 146.400 C 394.980 146.400,394.800 146.080,394.800 145.688 C 394.800 145.297,394.440 144.717,394.000 144.400 C 393.560 144.083,393.200 143.621,393.200 143.374 C 393.200 143.126,392.840 142.598,392.400 142.200 C 391.960 141.802,391.600 141.240,391.600 140.951 C 391.600 140.663,390.970 139.797,390.200 139.027 C 389.430 138.257,388.800 137.455,388.800 137.244 C 388.800 136.807,385.621 133.600,385.187 133.600 C 385.030 133.600,384.113 132.879,383.151 131.997 C 382.188 131.115,381.085 130.293,380.700 130.170 C 380.315 130.047,380.000 129.778,380.000 129.573 C 380.000 129.368,379.680 129.200,379.288 129.200 C 378.897 129.200,378.317 128.840,378.000 128.400 C 377.683 127.960,377.103 127.600,376.712 127.600 C 376.320 127.600,376.000 127.401,376.000 127.157 C 376.000 126.914,375.742 126.814,375.426 126.935 C 375.110 127.056,374.795 126.999,374.726 126.808 C 374.657 126.616,374.334 126.402,374.010 126.330 C 373.685 126.259,373.175 125.973,372.877 125.696 C 372.579 125.419,372.182 125.287,371.995 125.403 C 371.808 125.518,371.542 125.430,371.404 125.207 C 371.266 124.983,370.713 124.800,370.176 124.800 C 369.639 124.800,369.200 124.620,369.200 124.400 C 369.200 124.180,368.480 124.000,367.600 124.000 C 366.720 124.000,366.000 123.820,366.000 123.600 C 366.000 123.380,365.280 123.200,364.400 123.200 C 363.520 123.200,362.800 123.020,362.800 122.800 C 362.800 122.580,362.440 122.400,362.000 122.400 C 361.467 122.400,361.200 122.133,361.200 121.600 C 361.200 121.160,361.380 120.800,361.600 120.800 C 361.847 120.800,362.000 118.733,362.000 115.400 C 362.000 112.067,361.847 110.000,361.600 110.000 C 361.371 110.000,361.200 108.800,361.200 107.200 C 361.200 105.600,361.029 104.400,360.800 104.400 C 360.580 104.400,360.400 103.500,360.400 102.400 C 360.400 101.300,360.220 100.400,360.000 100.400 C 359.780 100.400,359.600 99.860,359.600 99.200 C 359.600 98.540,359.420 98.000,359.200 98.000 C 358.980 98.000,358.800 97.571,358.800 97.046 C 358.800 95.759,357.563 92.000,357.139 92.000 C 356.953 92.000,356.800 91.788,356.800 91.528 C 356.800 90.773,355.090 87.200,354.729 87.200 C 354.548 87.200,354.400 86.840,354.400 86.400 C 354.400 85.960,354.220 85.600,354.000 85.600 C 353.780 85.600,353.600 85.280,353.600 84.888 C 353.600 84.497,353.240 83.917,352.800 83.600 C 352.360 83.283,352.000 82.743,352.000 82.400 C 352.000 82.057,351.640 81.517,351.200 81.200 C 350.760 80.883,350.399 80.438,350.397 80.212 C 350.396 79.985,349.451 78.788,348.297 77.550 C 347.144 76.313,345.600 74.648,344.868 73.850 C 344.135 73.053,343.346 72.400,343.114 72.400 C 342.637 72.400,341.200 70.853,341.200 70.339 C 341.200 70.152,340.919 70.000,340.576 70.000 C 340.233 70.000,340.064 69.820,340.200 69.600 C 340.336 69.380,340.193 69.200,339.883 69.200 C 339.573 69.200,338.754 68.660,338.063 68.000 C 337.372 67.340,336.575 66.800,336.292 66.800 C 336.009 66.800,335.517 66.440,335.200 66.000 C 334.883 65.560,334.303 65.200,333.912 65.200 C 333.520 65.200,333.200 65.020,333.200 64.800 C 333.200 64.580,332.840 64.400,332.400 64.400 C 331.960 64.400,331.600 64.252,331.600 64.071 C 331.600 63.710,328.027 62.000,327.272 62.000 C 327.012 62.000,326.800 61.820,326.800 61.600 C 326.800 61.380,326.440 61.200,326.000 61.200 C 325.560 61.200,325.200 61.020,325.200 60.800 C 325.200 60.580,324.848 60.400,324.419 60.400 C 323.989 60.400,323.224 60.235,322.719 60.033 C 320.109 58.989,319.739 58.898,316.700 58.558 C 315.435 58.417,314.400 58.143,314.400 57.950 C 314.400 57.758,313.061 57.600,311.424 57.600 C 309.787 57.600,308.334 57.417,308.196 57.193 C 307.879 56.681,298.000 56.721,298.000 57.234 M118.400 61.200 C 117.930 61.860,117.699 62.400,117.887 62.400 C 118.074 62.400,118.546 61.860,118.936 61.200 C 119.326 60.540,119.557 60.000,119.450 60.000 C 119.342 60.000,118.870 60.540,118.400 61.200 M115.700 64.198 C 115.131 64.845,115.061 65.200,115.504 65.200 C 115.671 65.200,116.032 64.840,116.307 64.400 C 116.878 63.487,116.451 63.345,115.700 64.198 M113.500 67.357 C 112.769 67.912,112.584 68.400,113.104 68.400 C 113.271 68.400,113.632 68.040,113.907 67.600 C 114.489 66.668,114.444 66.640,113.500 67.357 M266.215 68.824 C 266.496 69.279,267.600 69.327,267.600 68.885 C 267.600 68.712,267.236 68.543,266.791 68.509 C 266.347 68.476,266.087 68.618,266.215 68.824 M67.309 93.092 C 67.199 93.379,67.289 94.106,67.508 94.707 C 67.728 95.308,68.129 96.610,68.400 97.600 C 68.958 99.637,69.530 101.424,70.001 102.600 C 70.178 103.040,70.733 104.480,71.236 105.800 C 73.505 111.759,78.642 120.739,83.368 127.010 C 87.283 132.206,99.022 143.600,100.459 143.600 C 100.938 143.600,100.937 143.588,99.491 136.400 C 97.399 125.999,97.233 113.839,99.038 103.173 C 99.820 98.546,99.687 97.891,97.863 97.429 C 97.058 97.226,96.400 96.911,96.400 96.729 C 96.400 96.548,96.051 96.400,95.624 96.400 C 95.197 96.400,94.736 96.220,94.600 96.000 C 94.464 95.780,93.924 95.600,93.400 95.600 C 92.876 95.600,92.336 95.420,92.200 95.200 C 92.064 94.980,91.524 94.800,91.000 94.800 C 90.476 94.800,89.951 94.644,89.833 94.454 C 89.631 94.127,87.665 93.719,85.000 93.452 C 84.340 93.386,83.170 93.134,82.400 92.892 C 80.327 92.241,67.571 92.410,67.309 93.092 M30.000 109.000 C 29.717 109.341,29.576 109.709,29.686 109.819 C 29.796 109.929,30.117 109.741,30.400 109.400 C 30.683 109.059,30.824 108.691,30.714 108.581 C 30.604 108.471,30.283 108.659,30.000 109.000 M12.806 137.300 C 12.811 138.028,12.886 138.085,13.200 137.600 C 13.701 136.824,13.701 136.400,13.200 136.400 C 12.980 136.400,12.803 136.805,12.806 137.300 M10.473 154.135 C 10.473 155.970,10.597 157.672,10.749 157.917 C 10.901 158.163,11.019 156.663,11.013 154.583 C 11.006 152.503,10.881 150.801,10.736 150.801 C 10.591 150.800,10.473 152.301,10.473 154.135 M230.299 157.500 C 229.929 158.105,229.125 159.159,228.513 159.843 C 227.901 160.527,226.950 161.681,226.400 162.407 C 225.850 163.133,225.220 163.928,225.000 164.173 C 224.780 164.419,223.972 165.425,223.206 166.410 C 222.439 167.394,221.591 168.470,221.321 168.800 C 221.052 169.130,219.472 171.110,217.811 173.200 C 212.863 179.425,211.440 181.200,210.655 182.123 C 210.245 182.605,209.435 183.630,208.855 184.400 C 208.275 185.170,207.572 186.041,207.294 186.335 C 207.016 186.629,206.296 187.525,205.694 188.327 C 205.092 189.128,204.302 190.148,203.938 190.592 C 203.574 191.036,201.640 193.470,199.639 196.000 C 197.638 198.530,195.593 201.052,195.096 201.604 C 194.598 202.157,193.751 203.237,193.214 204.004 C 192.677 204.772,191.951 205.670,191.600 206.000 C 191.249 206.330,190.529 207.230,190.000 208.000 C 189.471 208.770,188.755 209.670,188.409 210.000 C 188.063 210.330,187.475 211.050,187.103 211.600 C 186.731 212.150,186.046 213.095,185.580 213.700 L 184.733 214.800 197.111 214.800 L 209.489 214.800 215.845 206.859 C 219.340 202.492,222.740 198.232,223.400 197.394 C 224.060 196.555,231.574 187.124,240.098 176.435 C 248.622 165.746,255.597 156.865,255.598 156.700 C 255.599 156.535,250.059 156.400,243.286 156.400 L 230.972 156.400 230.299 157.500 M12.828 170.900 C 12.813 171.505,12.980 172.000,13.200 172.000 C 13.669 172.000,13.669 171.693,13.200 170.600 C 12.895 169.891,12.853 169.925,12.828 170.900 M32.638 201.822 C 33.277 202.384,34.160 203.037,34.600 203.273 C 35.040 203.509,34.680 203.057,33.800 202.268 C 32.920 201.479,32.037 200.826,31.838 200.817 C 31.639 200.807,31.999 201.260,32.638 201.822 M36.143 204.600 C 36.473 204.930,36.970 205.200,37.248 205.200 C 37.531 205.200,37.412 204.942,36.976 204.613 C 35.958 203.842,35.376 203.833,36.143 204.600 M38.543 206.200 C 38.873 206.530,39.471 206.799,39.871 206.798 C 40.392 206.796,40.273 206.624,39.454 206.198 C 38.007 205.443,37.786 205.443,38.543 206.200 M68.576 233.013 C 69.004 233.336,69.533 233.600,69.753 233.600 C 69.973 233.600,69.804 233.336,69.376 233.013 C 68.949 232.690,68.420 232.425,68.200 232.425 C 67.980 232.425,68.149 232.690,68.576 233.013 M60.632 234.313 L 59.864 235.400 61.032 234.400 C 61.674 233.850,62.275 233.355,62.367 233.300 C 62.458 233.245,62.278 233.206,61.967 233.213 C 61.655 233.219,61.054 233.714,60.632 234.313 M71.628 235.876 C 71.718 236.915,72.344 237.796,72.372 236.924 C 72.387 236.442,72.220 235.936,72.000 235.800 C 71.780 235.664,71.613 235.698,71.628 235.876 M71.665 241.817 C 70.995 243.288,71.123 243.602,71.847 242.265 C 72.186 241.640,72.388 241.054,72.296 240.963 C 72.205 240.871,71.921 241.256,71.665 241.817 M68.877 245.626 C 68.309 246.535,68.612 246.645,69.432 245.826 C 69.748 245.510,69.861 245.161,69.683 245.051 C 69.505 244.942,69.143 245.200,68.877 245.626 M50.198 247.202 C 49.798 247.644,49.566 248.099,49.682 248.215 C 49.797 248.330,50.190 247.969,50.555 247.412 C 51.352 246.196,51.193 246.102,50.198 247.202 M65.843 249.433 C 65.467 250.411,65.549 250.508,66.200 249.857 C 66.880 249.177,66.967 248.800,66.443 248.800 C 66.246 248.800,65.976 249.085,65.843 249.433 M47.600 250.600 C 47.306 251.150,46.915 251.600,46.732 251.600 C 46.550 251.600,46.400 251.791,46.400 252.024 C 46.400 252.639,47.041 252.147,48.009 250.788 C 48.474 250.135,48.693 249.600,48.495 249.600 C 48.297 249.600,47.894 250.050,47.600 250.600 M44.293 254.508 C 43.912 254.978,43.600 255.530,43.600 255.735 C 43.600 255.940,43.981 255.624,44.446 255.033 C 44.911 254.442,45.223 253.889,45.139 253.806 C 45.055 253.722,44.675 254.038,44.293 254.508 M373.239 261.344 C 371.839 263.378,371.595 264.190,372.800 262.800 C 373.240 262.293,373.600 261.738,373.600 261.567 C 373.600 261.397,373.891 260.966,374.248 260.610 C 374.604 260.253,374.801 259.868,374.686 259.753 C 374.571 259.638,373.920 260.354,373.239 261.344 M56.262 261.531 C 55.898 261.934,55.600 262.411,55.600 262.593 C 55.600 262.774,55.960 262.507,56.400 262.000 C 56.840 261.493,57.200 261.015,57.200 260.939 C 57.200 260.639,56.895 260.832,56.262 261.531 M38.261 262.240 C 37.228 263.657,37.600 263.742,38.730 262.347 C 39.242 261.716,39.512 261.206,39.330 261.213 C 39.149 261.219,38.667 261.682,38.261 262.240 M196.884 261.815 C 196.222 262.566,196.770 262.549,197.776 261.787 C 198.322 261.374,198.382 261.205,197.976 261.215 C 197.659 261.224,197.168 261.494,196.884 261.815 M53.275 265.184 C 52.082 266.798,52.168 267.195,53.400 265.762 C 54.282 264.736,54.648 264.000,54.275 264.000 C 54.207 264.000,53.757 264.533,53.275 265.184 M369.806 265.888 L 369.104 267.000 370.030 266.111 C 370.539 265.622,370.855 265.122,370.732 264.999 C 370.609 264.876,370.192 265.276,369.806 265.888 M351.100 267.357 C 350.369 267.912,350.184 268.400,350.704 268.400 C 350.871 268.400,351.232 268.040,351.507 267.600 C 352.089 266.668,352.044 266.640,351.100 267.357 M366.000 270.600 C 365.483 271.150,365.227 271.594,365.430 271.587 C 365.772 271.576,367.421 269.600,367.088 269.600 C 367.006 269.600,366.517 270.050,366.000 270.600 M206.598 271.602 C 206.198 272.044,205.966 272.499,206.082 272.615 C 206.197 272.730,206.590 272.369,206.955 271.812 C 207.752 270.596,207.593 270.502,206.598 271.602 M344.800 275.600 C 344.330 276.260,344.036 276.800,344.146 276.800 C 344.256 276.800,344.730 276.260,345.200 275.600 C 345.670 274.940,345.964 274.400,345.854 274.400 C 345.744 274.400,345.270 274.940,344.800 275.600 M202.475 276.784 C 201.994 277.435,201.600 278.100,201.600 278.262 C 201.600 278.423,202.050 277.945,202.600 277.200 C 203.150 276.455,203.600 275.790,203.600 275.722 C 203.600 275.395,203.275 275.702,202.475 276.784 M180.900 281.985 C 179.841 283.328,179.683 284.104,180.700 282.970 C 182.040 281.476,182.496 280.800,182.149 280.822 C 181.957 280.834,181.395 281.358,180.900 281.985 M353.835 285.789 C 353.244 286.565,352.871 287.200,353.008 287.200 C 353.402 287.200,354.400 286.098,354.400 285.662 C 354.400 285.445,354.625 285.186,354.900 285.088 C 355.175 284.990,355.290 284.790,355.156 284.644 C 355.021 284.498,354.427 285.013,353.835 285.789 M171.257 294.057 C 170.975 294.509,170.832 294.966,170.940 295.073 C 171.047 295.181,171.344 294.878,171.600 294.400 C 172.205 293.270,171.924 292.990,171.257 294.057 M334.000 295.818 C 334.000 296.212,336.044 298.090,336.248 297.885 C 336.358 297.775,335.979 297.216,335.406 296.642 C 334.377 295.613,334.000 295.392,334.000 295.818 M344.493 297.200 C 344.218 297.640,344.098 298.000,344.225 298.000 C 344.525 298.000,345.600 296.927,345.600 296.629 C 345.600 296.120,344.962 296.449,344.493 297.200 M183.806 300.288 L 183.104 301.400 184.030 300.511 C 184.539 300.022,184.855 299.522,184.732 299.399 C 184.609 299.276,184.192 299.676,183.806 300.288 M180.660 304.038 C 180.266 304.499,180.047 304.981,180.175 305.109 C 180.415 305.348,181.564 304.038,181.587 303.500 C 181.607 303.034,181.434 303.134,180.660 304.038 M170.624 307.787 C 171.051 308.110,171.580 308.375,171.800 308.375 C 172.020 308.375,171.851 308.110,171.424 307.787 C 170.996 307.464,170.467 307.200,170.247 307.200 C 170.027 307.200,170.196 307.464,170.624 307.787 M67.846 313.047 C 67.035 314.063,66.939 314.320,67.501 313.969 C 67.930 313.701,68.501 313.131,68.768 312.702 C 69.610 311.355,69.020 311.575,67.846 313.047 M314.989 312.515 C 313.605 314.148,312.792 315.578,313.375 315.354 C 313.719 315.222,314.000 314.967,314.000 314.788 C 314.000 314.608,314.466 313.908,315.036 313.231 C 315.605 312.554,315.920 312.007,315.736 312.015 C 315.551 312.024,315.215 312.249,314.989 312.515 M49.653 314.042 C 49.132 314.701,48.779 315.312,48.868 315.401 C 48.957 315.490,49.526 314.941,50.132 314.181 C 50.738 313.422,51.091 312.810,50.917 312.822 C 50.743 312.834,50.174 313.383,49.653 314.042 M46.796 317.697 C 45.662 319.402,45.495 319.797,46.246 318.995 C 47.582 317.568,48.107 316.800,47.745 316.800 C 47.551 316.800,47.124 317.204,46.796 317.697 M61.700 320.598 C 61.131 321.245,61.061 321.600,61.504 321.600 C 61.671 321.600,62.032 321.240,62.307 320.800 C 62.878 319.887,62.451 319.745,61.700 320.598 M312.000 323.064 C 312.000 323.282,312.495 323.897,313.100 324.430 L 314.200 325.400 313.200 324.200 C 312.650 323.540,312.155 322.925,312.100 322.833 C 312.045 322.742,312.000 322.845,312.000 323.064 M316.800 326.433 C 316.800 326.642,317.340 326.772,318.000 326.721 C 318.660 326.671,319.200 326.516,319.200 326.376 C 319.200 326.236,318.660 326.106,318.000 326.088 C 317.340 326.069,316.800 326.224,316.800 326.433 M239.979 362.222 C 239.451 362.784,239.288 363.141,239.618 363.014 C 240.139 362.815,241.434 361.200,241.073 361.200 C 241.000 361.200,240.507 361.660,239.979 362.222 M237.483 365.400 C 236.167 367.049,236.476 367.300,237.853 365.700 C 238.667 364.753,239.043 364.000,238.700 364.000 C 238.645 364.000,238.097 364.630,237.483 365.400 M234.300 369.233 C 233.915 369.655,233.752 370.000,233.938 370.000 C 234.124 370.000,234.602 369.640,235.000 369.200 C 235.398 368.760,235.561 368.415,235.362 368.433 C 235.163 368.452,234.685 368.812,234.300 369.233 M227.400 371.200 C 227.536 371.420,228.042 371.587,228.524 371.572 C 229.369 371.545,229.371 371.531,228.600 371.200 C 227.499 370.727,227.108 370.727,227.400 371.200 M230.400 371.200 L 229.400 371.520 230.500 371.560 C 231.105 371.582,231.600 371.420,231.600 371.200 C 231.600 370.980,231.555 370.818,231.500 370.840 C 231.445 370.862,230.950 371.024,230.400 371.200 " stroke="none" fill="#148ca4" fill-rule="evenodd"></path><path id="path4" d="M164.555 157.300 C 163.910 158.015,162.944 159.230,162.410 160.000 C 161.875 160.770,161.159 161.670,160.819 162.000 C 160.479 162.331,159.572 163.411,158.806 164.400 C 158.039 165.390,157.192 166.470,156.925 166.800 C 156.657 167.130,154.071 170.370,151.178 174.000 C 148.285 177.630,145.622 180.964,145.259 181.408 C 144.897 181.852,144.125 182.842,143.545 183.608 C 142.965 184.374,142.155 185.390,141.745 185.866 C 140.269 187.582,139.466 188.568,138.241 190.171 C 136.121 192.943,131.471 198.815,130.000 200.577 C 129.230 201.499,128.150 202.850,127.600 203.580 C 127.050 204.310,126.330 205.227,126.000 205.620 C 124.919 206.905,124.220 207.777,122.810 209.601 C 122.046 210.591,121.326 211.490,121.210 211.600 C 119.902 212.844,117.640 216.007,118.319 215.643 C 118.786 215.394,119.670 214.517,120.284 213.695 C 120.898 212.873,121.640 211.948,121.932 211.639 C 122.225 211.330,123.167 210.160,124.025 209.039 C 124.884 207.918,126.084 206.378,126.693 205.618 C 128.344 203.556,139.574 189.494,140.124 188.799 C 140.386 188.468,144.903 182.798,150.162 176.199 C 155.421 169.599,161.091 162.457,162.762 160.328 L 165.800 156.455 198.134 156.428 L 230.467 156.400 229.134 158.099 C 228.400 159.033,227.502 160.158,227.138 160.599 C 226.774 161.039,224.839 163.470,222.838 166.000 C 218.238 171.815,216.000 174.611,215.055 175.723 C 214.645 176.205,213.835 177.230,213.255 178.000 C 212.675 178.770,211.972 179.641,211.694 179.935 C 211.416 180.229,210.696 181.129,210.094 181.935 C 209.492 182.741,208.772 183.641,208.494 183.935 C 208.216 184.229,207.496 185.127,206.894 185.932 C 206.292 186.736,204.572 188.926,203.071 190.797 C 199.709 194.990,199.704 194.995,197.994 197.190 C 197.228 198.175,196.372 199.225,196.094 199.525 C 195.816 199.824,195.097 200.729,194.496 201.535 C 193.896 202.341,193.305 203.090,193.182 203.200 C 192.364 203.937,184.175 214.567,184.071 215.027 C 183.959 215.520,188.144 215.600,214.138 215.600 C 230.746 215.600,244.644 215.719,245.022 215.864 C 245.505 216.049,245.653 215.960,245.521 215.564 C 245.363 215.088,240.624 214.969,215.077 214.800 L 184.820 214.600 186.196 212.800 C 186.952 211.810,187.896 210.640,188.293 210.200 C 188.690 209.760,189.453 208.770,189.989 208.000 C 190.524 207.230,191.249 206.330,191.600 206.000 C 191.951 205.670,192.677 204.772,193.214 204.004 C 193.751 203.237,194.598 202.157,195.096 201.604 C 195.593 201.052,197.638 198.530,199.639 196.000 C 201.640 193.470,203.574 191.036,203.938 190.592 C 204.302 190.148,205.092 189.128,205.694 188.327 C 206.296 187.525,207.016 186.629,207.294 186.335 C 207.572 186.041,208.275 185.170,208.855 184.400 C 209.435 183.630,210.245 182.605,210.655 182.123 C 211.440 181.200,212.863 179.425,217.811 173.200 C 219.472 171.110,221.052 169.130,221.321 168.800 C 221.591 168.470,222.439 167.394,223.206 166.410 C 223.972 165.425,224.780 164.419,225.000 164.173 C 225.220 163.928,225.850 163.134,226.400 162.410 C 226.950 161.686,227.735 160.712,228.145 160.247 C 229.960 158.185,230.849 156.804,230.611 156.417 C 230.435 156.133,220.043 156.000,198.041 156.000 L 165.729 156.000 164.555 157.300 " stroke="none" fill="#60a17d" fill-rule="evenodd"></path></g></svg>